<svg width="12" height="12" viewBox="0 0 12 12" fill="none" xmlns="http://www.w3.org/2000/svg">
<path d="M6.2507 11.2203C6.0907 11.2603 5.9507 11.2303 5.8307 11.1303C5.7107 11.0303 5.6207 10.9103 5.5607 10.7703C5.5007 10.6303 5.4807 10.4903 5.5007 10.3503C5.5207 10.2103 5.5907 10.0803 5.7107 9.96027L9.6707 6.00027L5.7107 2.04027C5.5907 1.88027 5.5307 1.70027 5.5307 1.50027C5.5307 1.30027 5.6007 1.13027 5.7407 0.990273C5.8807 0.850274 6.0507 0.780273 6.2507 0.780273C6.4507 0.780273 6.6307 0.840274 6.7907 0.960274L11.2907 5.46027C11.4107 5.62027 11.4707 5.80027 11.4707 6.00027C11.4707 6.20027 11.4107 6.38027 11.2907 6.54027L6.7907 11.0403C6.6307 11.1603 6.4507 11.2203 6.2507 11.2203ZM1.7507 11.2203C1.5907 11.2603 1.4507 11.2303 1.3307 11.1303C1.2107 11.0303 1.1207 10.9103 1.0607 10.7703C1.0007 10.6303 0.980703 10.4903 1.0007 10.3503C1.0207 10.2103 1.0907 10.0803 1.2107 9.96027L5.1707 6.00027L1.2107 2.04027C1.0507 1.88027 0.970703 1.70027 0.970703 1.50027C0.970703 1.30027 1.0507 1.12027 1.2107 0.960274C1.3707 0.800274 1.5507 0.720274 1.7507 0.720274C1.9507 0.720274 2.1307 0.800274 2.2907 0.960274L6.7907 5.46027C6.9507 5.62027 7.0307 5.80027 7.0307 6.00027C7.0307 6.20027 6.9507 6.38027 6.7907 6.54027L2.2907 11.0403C2.1307 11.1603 1.9507 11.2403 1.7507 11.2803V11.2203Z" fill="white"/>
</svg>
