<svg xmlns="http://www.w3.org/2000/svg" viewBox="0 0 24 24" fill="currentColor">
  <path d="M12 2.2c3.2 0 3.6 0 4.9.1 1.2.1 1.9.2 2.3.4.5.2.9.5 1.3.9.4.4.7.8.9 1.3.2.4.3 1.1.4 2.3.1 1.3.1 1.7.1 4.9s0 3.6-.1 4.9c-.1 1.2-.2 1.9-.4 2.3-.2.5-.5.9-.9 1.3-.4.4-.8.7-1.3.9-.4.2-1.1.3-2.3.4-1.3.1-1.7.1-4.9.1s-3.6 0-4.9-.1c-1.2-.1-1.9-.2-2.3-.4-.5-.2-.9-.5-1.3-.9-.4-.4-.7-.8-.9-1.3-.2-.4-.3-1.1-.4-2.3C2.2 15.6 2.2 15.2 2.2 12s0-3.6.1-4.9c.1-1.2.2-1.9.4-2.3.2-.5.5-.9.9-1.3.4-.4.8-.7 1.3-.9.4-.2 1.1-.3 2.3-.4C8.4 2.2 8.8 2.2 12 2.2zm0 1.8c-3.1 0-3.5 0-4.8.1-1.1.1-1.7.2-2.1.4-.5.2-.8.4-1.1.8-.3.3-.6.7-.8 1.1-.2.4-.3 1-.4 2.1-.1 1.3-.1 1.7-.1 4.8s0 3.5.1 4.8c.1 1.1.2 1.7.4 2.1.2.5.4.8.8 1.1.3.3.7.6 1.1.8.4.2 1 .3 2.1.4 1.3.1 1.7.1 4.8.1s3.5 0 4.8-.1c1.1-.1 1.7-.2 2.1-.4.5-.2.8-.4 1.1-.8.3-.3.6-.7.8-1.1.2-.4.3-1 .4-2.1.1-1.3.1-1.7.1-4.8s0-3.5-.1-4.8c-.1-1.1-.2-1.7-.4-2.1-.2-.5-.4-.8-.8-1.1-.3-.3-.7-.6-1.1-.8-.4-.2-1-.3-2.1-.4-1.3-.1-1.7-.1-4.8-.1zm0 3.7a5.3 5.3 0 1 1 0 10.6 5.3 5.3 0 0 1 0-10.6zm0 1.8a3.5 3.5 0 1 0 0 7 3.5 3.5 0 0 0 0-7zm5.6-2.1a1.2 1.2 0 1 1 0 2.4 1.2 1.2 0 0 1 0-2.4z"/>
</svg>
