<svg width="17" height="16" viewBox="0 0 17 16" fill="none" xmlns="http://www.w3.org/2000/svg">
<path d="M4.31914 16H1.04961V5.48828H4.31914V16ZM2.6668 4.08203C1.64727 4.08203 0.803515 3.20312 0.803515 2.14844C0.803515 1.12891 1.64727 0.285156 2.6668 0.285156C3.72148 0.285156 4.56523 1.12891 4.56523 2.14844C4.56523 3.20312 3.72148 4.08203 2.6668 4.08203ZM16.5184 16H13.284V10.9023C13.284 9.67188 13.2488 8.125 11.5613 8.125C9.87383 8.125 9.62773 9.42578 9.62773 10.7969V16H6.3582V5.48828H9.48711V6.92969H9.52227C9.9793 6.12109 11.034 5.24219 12.616 5.24219C15.9207 5.24219 16.5535 7.42188 16.5535 10.2344V16H16.5184Z" fill="white"/>
</svg>
