<svg width="25" height="24" viewBox="0 0 25 24" fill="none" xmlns="http://www.w3.org/2000/svg">
<path d="M23.0607 16.9603C22.9007 16.8536 22.474 16.5603 21.7807 16.0803C20.8207 15.4936 19.994 15.0136 19.3007 14.6403C18.2874 14.1069 17.634 13.8669 17.3407 13.9203C17.0474 13.9736 16.794 14.0803 16.5807 14.2403C16.3674 14.4003 16.074 14.7203 15.7007 15.2003L15.1407 15.8403C14.714 15.7336 14.2874 15.5736 13.8607 15.3603C12.8474 14.8803 11.9274 14.2269 11.1007 13.4003C10.274 12.5736 9.6207 11.6536 9.1407 10.6403C8.92737 10.2136 8.76737 9.78694 8.6607 9.36027L9.3007 8.80027C9.7807 8.42694 10.1007 8.13361 10.2607 7.92027C10.4207 7.70694 10.5274 7.45361 10.5807 7.16027C10.634 6.86694 10.4207 6.21361 9.9407 5.20027C9.56737 4.50694 9.0607 3.68027 8.4207 2.72027L7.5407 1.44027C7.2207 1.01361 6.79404 0.773607 6.2607 0.720274C5.88737 0.720274 5.27404 1.14694 4.4207 2.00027C3.67404 2.74694 2.95404 3.60027 2.2607 4.56027C1.56737 5.52027 1.2207 6.14694 1.2207 6.44027C1.2207 6.73361 1.3007 7.22694 1.4607 7.92027C1.7807 9.14694 2.31404 10.4269 3.0607 11.7603C4.07404 13.6269 5.47404 15.4536 7.2607 17.2403C9.04737 19.0269 10.874 20.4269 12.7407 21.4403C14.074 22.1869 15.354 22.7203 16.5807 23.0403C17.274 23.2003 17.7674 23.2803 18.0607 23.2803C18.354 23.2803 18.9807 22.9336 19.9407 22.2403C20.9007 21.5469 21.754 20.8269 22.5007 20.0803C23.354 19.2269 23.7807 18.6136 23.7807 18.2403C23.7274 17.7069 23.4874 17.2803 23.0607 16.9603ZM18.0207 21.7603C17.114 21.6536 16.0474 21.3336 14.8207 20.8003C12.634 19.8403 10.474 18.2936 8.3407 16.1603C6.20737 14.0269 4.6607 11.8669 3.7007 9.68027C3.16737 8.45361 2.84737 7.38694 2.7407 6.48027C3.75404 4.93361 4.92737 3.54694 6.2607 2.32027L6.4207 2.40027C7.43404 3.84027 8.31404 5.36027 9.0607 6.96027C8.84737 7.22694 8.60737 7.46694 8.3407 7.68027C7.91404 8.00027 7.5407 8.34694 7.2207 8.72027C7.0607 8.88027 7.00737 9.06694 7.0607 9.28027C7.2207 9.97361 7.4607 10.6403 7.7807 11.2803C8.36737 12.4536 9.12737 13.5069 10.0607 14.4403C10.994 15.3736 12.0474 16.1336 13.2207 16.7203C13.8607 17.0403 14.5274 17.2803 15.2207 17.4403C15.434 17.4936 15.6207 17.4403 15.7807 17.2803C16.154 16.9603 16.5007 16.5869 16.8207 16.1603L17.5407 15.4403C19.1407 16.1869 20.6607 17.0669 22.1007 18.0803L22.1807 18.2403C20.954 19.5736 19.5674 20.7469 18.0207 21.7603ZM17.7807 11.2803H19.2207C19.2207 10.1603 18.954 9.14694 18.4207 8.24027C17.8874 7.33361 17.1674 6.61361 16.2607 6.08027C15.354 5.54694 14.3407 5.28027 13.2207 5.28027V6.72027C14.5007 6.72027 15.5807 7.16027 16.4607 8.04027C17.3407 8.92027 17.7807 10.0003 17.7807 11.2803ZM21.5407 11.2803H22.9807C22.9807 9.52027 22.5407 7.89361 21.6607 6.40027C20.7807 4.90694 19.594 3.72027 18.1007 2.84027C16.6074 1.96027 14.9807 1.52027 13.2207 1.52027V2.96027C14.714 3.01361 16.1007 3.40027 17.3807 4.12027C18.6607 4.84027 19.6607 5.84027 20.3807 7.12027C21.1007 8.40027 21.4607 9.78694 21.4607 11.2803H21.5407Z" fill="#4A2848"/>
</svg>
