<svg width="15" height="19" viewBox="0 0 15 19" fill="none" xmlns="http://www.w3.org/2000/svg">
<path d="M8.08047 0.496094C11.3852 0.496094 14.4086 2.78125 14.4086 6.26172C14.4086 9.53125 12.7211 13.1875 8.99453 13.1875C8.08047 13.1875 6.99062 12.7305 6.53359 11.9219C5.76016 15.0859 5.79531 15.5781 4.0375 18.0039C3.86172 18.0742 3.89687 18.0742 3.79141 17.9336C3.72109 17.2656 3.65078 16.6328 3.65078 15.9648C3.65078 13.8203 4.63516 10.6914 5.12734 8.61719C4.84609 8.05469 4.77578 7.42188 4.77578 6.82422C4.77578 4.01172 8.08047 3.58984 8.08047 5.91016C8.08047 7.28125 7.13125 8.58203 7.13125 9.91797C7.13125 10.7969 7.90469 11.4297 8.78359 11.4297C11.2094 11.4297 11.9477 7.94922 11.9477 6.08594C11.9477 3.58984 10.1898 2.21875 7.76406 2.21875C4.98672 2.21875 2.84219 4.22266 2.84219 7.03516C2.84219 8.40625 3.68594 9.10938 3.68594 9.42578C3.68594 9.70703 3.475 10.6562 3.12344 10.6562C2.27969 10.6562 0.908594 9.25 0.908594 6.78906C0.908594 2.88672 4.45937 0.496094 8.08047 0.496094Z" fill="white"/>
</svg>
