<svg width="20" height="20" viewBox="0 0 20 20" fill="none" xmlns="http://www.w3.org/2000/svg">
<path d="M0.540428 10.327C-0.206023 10.7186 -0.175056 11.2922 0.607525 11.6018L2.92623 12.5192C3.70946 12.8302 4.89462 12.6605 5.55849 12.1425L15.6275 4.20183C16.2895 3.68118 16.3604 3.75796 15.7856 4.37344L7.82559 12.8934C7.24882 13.507 7.41914 14.2605 8.20494 14.5644L8.47656 14.6702C9.26236 14.9741 10.543 15.4844 11.3237 15.8018L13.8953 16.8489C14.6766 17.1663 15.5114 16.7922 15.7333 15.9792L19.6527 1.5728C19.874 0.759892 19.4443 0.414731 18.6978 0.805698L0.540428 10.327Z" fill="white"/>
<path d="M6.90348 19.7585C6.85767 19.8959 8.48928 17.3959 8.48928 17.3959C8.95057 16.6914 8.68864 15.8508 7.90928 15.5321L6.12993 14.8037C5.35057 14.485 4.97703 14.8592 5.29961 15.6379C5.29961 15.6379 6.95057 19.6172 6.90348 19.7585Z" fill="white"/>
</svg>
