<svg width="30" height="30" viewBox="0 0 30 30" fill="none" xmlns="http://www.w3.org/2000/svg">
<g clip-path="url(#clip0_8398_3688)">
<path d="M14.0208 27.5242H15.9283C16.2322 27.5242 16.4789 27.2775 16.4789 26.9735C16.4789 26.6695 16.2322 26.4229 15.9283 26.4229H14.0208C13.7168 26.4229 13.4701 26.6695 13.4701 26.9735C13.4701 27.2775 13.7212 27.5242 14.0208 27.5242ZM8.86218 27.5242H10.7697C11.0736 27.5242 11.3203 27.2775 11.3203 26.9735C11.3203 26.6695 11.0736 26.4229 10.7697 26.4229H8.86218C8.55822 26.4229 8.31152 26.6695 8.31152 26.9735C8.31152 27.2775 8.55822 27.5242 8.86218 27.5242ZM19.1485 27.5242H21.056C21.36 27.5242 21.6067 27.2775 21.6067 26.9735C21.6067 26.6695 21.36 26.4229 21.056 26.4229H19.1485C18.8446 26.4229 18.5979 26.6695 18.5979 26.9735C18.5979 27.2775 18.8446 27.5242 19.1485 27.5242Z" fill="white"/>
<path d="M27.0078 24.8857H2.94617C2.6422 24.8857 2.39551 25.1324 2.39551 25.4363C2.39551 27.4363 4.02106 29.0619 6.02106 29.0619H23.9285C25.9285 29.0619 27.5541 27.4363 27.5541 25.4363C27.5585 25.1324 27.3118 24.8857 27.0078 24.8857ZM23.933 27.9606H6.02546C4.82282 27.9606 3.8096 27.1148 3.5585 25.9826H26.3999C26.1444 27.1148 25.1356 27.9606 23.933 27.9606ZM22.3382 15.9341V8.46277C22.3382 8.15881 22.0915 7.91211 21.7876 7.91211H8.16643C7.86247 7.91211 7.61577 8.15881 7.61577 8.46277V15.9341C7.61577 16.2381 7.86247 16.4848 8.16643 16.4848H21.7876C22.0915 16.4804 22.3382 16.2337 22.3382 15.9341ZM21.2413 9.00903V12.1896L19.118 10.0663C18.9021 9.85043 18.5541 9.85043 18.3426 10.0663L15.1796 13.2293L13.0959 11.1456C12.9946 11.0443 12.8537 10.9826 12.7083 10.9826C12.5629 10.9826 12.4219 11.0399 12.3206 11.1456L8.71709 14.7491V9.00903H21.2413ZM15.7788 15.3835H9.6378L12.7083 12.313L15.7788 15.3835ZM17.3294 15.3835L15.955 14.009L18.7303 11.2337L21.162 13.6654C21.1885 13.6918 21.2149 13.7139 21.2413 13.7315V15.3835H17.3294ZM17.9153 4.01343H22.7611C23.0651 4.01343 23.3118 3.76673 23.3118 3.46277C23.3118 3.15881 23.0651 2.91211 22.7611 2.91211H17.9153C17.6114 2.91211 17.3647 3.15881 17.3647 3.46277C17.3647 3.76673 17.6114 4.01343 17.9153 4.01343ZM9.44397 4.01343C9.58934 4.01343 9.73031 3.95616 9.83163 3.85044C9.93295 3.74911 9.99463 3.60814 9.99463 3.46277C9.99463 3.3174 9.93736 3.17643 9.83163 3.07511C9.73031 2.97378 9.58934 2.91211 9.44397 2.91211C9.29859 2.91211 9.15762 2.96938 9.0563 3.07511C8.95498 3.17643 8.8933 3.3174 8.8933 3.46277C8.8933 3.60814 8.95057 3.74911 9.0563 3.85044C9.15762 3.95176 9.29859 4.01343 9.44397 4.01343ZM6.99903 4.01343C7.14441 4.01343 7.28538 3.95616 7.3867 3.85044C7.48802 3.74911 7.54969 3.60814 7.54969 3.46277C7.54969 3.3174 7.49242 3.17643 7.3867 3.07511C7.28538 2.97378 7.14441 2.91211 6.99903 2.91211C6.85366 2.91211 6.71269 2.96938 6.61137 3.07511C6.51005 3.17643 6.44837 3.3174 6.44837 3.46277C6.44837 3.60814 6.50564 3.74911 6.61137 3.85044C6.71269 3.95176 6.85366 4.01343 6.99903 4.01343ZM11.8889 4.01343C12.0343 4.01343 12.1752 3.95616 12.2766 3.85044C12.3779 3.74911 12.4396 3.60814 12.4396 3.46277C12.4396 3.3174 12.3823 3.17643 12.2766 3.07511C12.1752 2.97378 12.0343 2.91211 11.8889 2.91211C11.7435 2.91211 11.6026 2.96938 11.5012 3.07511C11.3999 3.17643 11.3426 3.3174 11.3426 3.46277C11.3426 3.60814 11.3999 3.74911 11.5012 3.85044C11.6026 3.95176 11.7479 4.01343 11.8889 4.01343ZM14.4219 4.01343C14.5673 4.01343 14.7083 3.95616 14.8096 3.85044C14.9109 3.74911 14.9726 3.60814 14.9726 3.46277C14.9726 3.3174 14.9153 3.17643 14.8096 3.07511C14.7083 2.97378 14.5673 2.91211 14.4219 2.91211C14.2766 2.91211 14.1356 2.96938 14.0343 3.07511C13.933 3.17643 13.8757 3.3174 13.8757 3.46277C13.8757 3.60814 13.933 3.74911 14.0343 3.85044C14.1356 3.95176 14.281 4.01343 14.4219 4.01343Z" fill="white"/>
<path d="M14.973 11.5286C15.1184 11.5286 15.2594 11.4713 15.3607 11.3656C15.462 11.2643 15.5237 11.1233 15.5237 10.9779C15.5237 10.8325 15.4664 10.6916 15.3607 10.5902C15.2594 10.4889 15.1184 10.4272 14.973 10.4272C14.8276 10.4272 14.6867 10.4845 14.5853 10.5902C14.484 10.6916 14.4268 10.8325 14.4268 10.9779C14.4268 11.1233 14.484 11.2643 14.5853 11.3656C14.6867 11.4669 14.832 11.5286 14.973 11.5286Z" fill="white"/>
<path d="M5.52746 19.5024H18.9372C19.2411 19.5024 19.4878 19.2557 19.4878 18.9517C19.4878 18.6477 19.2411 18.401 18.9372 18.401H5.52746C5.22349 18.401 4.9768 18.1543 4.9768 17.8504V5.99134H24.9724V17.8548C24.9724 18.1587 24.7257 18.4054 24.4217 18.4054H12.5583C12.2543 18.4054 12.0076 18.6521 12.0076 18.9561C12.0076 19.2601 12.2543 19.5068 12.5583 19.5068H24.4217C25.3292 19.5068 26.0693 18.7667 26.0693 17.8592V2.58605C26.0693 1.67856 25.3292 0.938477 24.4217 0.938477H5.52746C4.61997 0.938477 3.87988 1.67856 3.87988 2.58605V17.8548C3.87988 18.7623 4.61997 19.5024 5.52746 19.5024ZM5.52746 2.03539H24.4217C24.7257 2.03539 24.9724 2.28209 24.9724 2.58605V4.89002H4.9812V2.58605C4.9812 2.28209 5.2279 2.03539 5.52746 2.03539Z" fill="white"/>
<path d="M9.9766 18.5639C9.87528 18.6652 20.5845 18.8062 20.5845 18.9515C20.5845 19.0969 9.87087 19.2379 9.9766 19.3392C10.0779 19.4405 10.2189 19.5022 10.3643 19.5022C10.5096 19.5022 10.6506 19.4449 10.7519 19.3392C10.8532 19.2379 10.9149 19.0969 10.9149 18.9515C10.9149 18.8062 10.8577 18.6652 10.7519 18.5639C10.6506 18.4626 10.5096 18.4009 10.3643 18.4009C10.2189 18.4053 10.0779 18.4626 9.9766 18.5639ZM3.19686 23.696C3.28497 23.696 3.37307 23.674 3.45677 23.63C3.7255 23.4846 3.82241 23.1542 3.68144 22.8855L1.94576 19.6608C1.80039 19.3921 1.46999 19.2952 1.20127 19.4361C0.932544 19.5815 0.835628 19.9119 0.976597 20.1806L2.71228 23.4053C2.8136 23.5903 3.00303 23.696 3.19686 23.696ZM28.7519 19.4405C28.4832 19.2952 28.1528 19.3965 28.0074 19.6652L26.2717 22.8899C26.1264 23.1586 26.2277 23.489 26.4964 23.6344C26.5801 23.6784 26.6682 23.7004 26.7563 23.7004C26.9502 23.7004 27.1396 23.5947 27.2409 23.4097L28.9766 20.185C29.1176 19.9163 29.0162 19.5859 28.7519 19.4405ZM14.4259 21.2863V23.348C14.4259 23.652 14.6726 23.8987 14.9766 23.8987C15.2806 23.8987 15.5273 23.652 15.5273 23.348V21.2863C15.5273 20.9824 15.2806 20.7357 14.9766 20.7357C14.6726 20.7401 14.4259 20.9824 14.4259 21.2863Z" fill="white"/>
</g>
<defs>
<clipPath id="clip0_8398_3688">
<rect width="30" height="30" fill="white" transform="translate(-0.00976562)"/>
</clipPath>
</defs>
</svg>
