<svg width="23" height="24" viewBox="0 0 23 24" fill="none" xmlns="http://www.w3.org/2000/svg">
<path d="M11.5004 22.8101C9.55821 22.8101 7.75654 22.3245 6.09543 21.3534C4.43432 20.3823 3.11821 19.0662 2.1471 17.4051C1.17599 15.7439 0.69043 13.9423 0.69043 12.0001C0.69043 10.0578 1.17599 8.25617 2.1471 6.59506C3.11821 4.93395 4.43432 3.61784 6.09543 2.64672C7.75654 1.67561 9.55821 1.19006 11.5004 1.19006C13.4427 1.19006 15.2443 1.67561 16.9054 2.64672C18.5665 3.61784 19.8827 4.93395 20.8538 6.59506C21.8249 8.25617 22.3104 10.0578 22.3104 12.0001C22.3104 13.9423 21.8249 15.7439 20.8538 17.4051C19.8827 19.0662 18.5665 20.3823 16.9054 21.3534C15.2443 22.3245 13.4427 22.8101 11.5004 22.8101ZM11.5004 2.64672C9.81376 2.64672 8.25487 3.06839 6.82376 3.91172C5.39265 4.75506 4.25543 5.89228 3.4121 7.32339C2.56876 8.7545 2.1471 10.3134 2.1471 12.0001C2.1471 13.6867 2.56876 15.2456 3.4121 16.6767C4.25543 18.1078 5.39265 19.2451 6.82376 20.0884C8.25487 20.9317 9.81376 21.3534 11.5004 21.3534C13.1871 21.3534 14.746 20.9317 16.1771 20.0884C17.6082 19.2451 18.7454 18.1078 19.5888 16.6767C20.4321 15.2456 20.8538 13.6867 20.8538 12.0001C20.8538 10.3134 20.4321 8.7545 19.5888 7.32339C18.7454 5.89228 17.6082 4.75506 16.1771 3.91172C14.746 3.06839 13.1871 2.64672 11.5004 2.64672ZM10.5804 15.3734L17.0204 8.93339C17.1738 8.78006 17.2504 8.60117 17.2504 8.39672C17.2504 8.19228 17.1865 8.02617 17.0588 7.89839C16.931 7.77061 16.7649 7.70673 16.5604 7.70673C16.356 7.70673 16.1771 7.75784 16.0238 7.86006L10.0438 13.8401L7.6671 11.4634C7.56487 11.3612 7.41154 11.3101 7.2071 11.3101C7.00265 11.3101 6.82376 11.3739 6.67043 11.5017C6.5171 11.6295 6.44043 11.7956 6.44043 12.0001C6.44043 12.2045 6.5171 12.3834 6.67043 12.5367L9.58376 15.3734C9.68599 15.5267 9.83932 15.6034 10.0438 15.6034C10.2482 15.6034 10.4271 15.5267 10.5804 15.3734Z" fill="#4A2848"/>
</svg>
