<svg width="610" height="400" viewBox="0 0 610 400" fill="none" xmlns="http://www.w3.org/2000/svg">
<path d="M496.668 269.161L487.192 242.68L471.367 247.815L439.046 157.473L403.012 169.168L403.121 169.475L391.498 217.265L374.962 285.253L384.609 305.542L418.634 294.497L431.02 290.475L444.808 285.997L456.066 317.471L492.101 305.776L480.842 274.302L496.668 269.161ZM431.147 260.874L422.974 263.527L407.319 268.61L418.004 218.075L419.009 213.882L435.332 259.514L431.147 260.874Z" fill="#9DC2E7"/>
<path opacity="0.25" d="M480.842 274.301L492.1 305.775L469.148 296.423L432.465 170.516L419.008 213.883L412.777 238.446L391.499 217.263L403.121 169.474L403.013 169.167L439.046 157.473L471.366 247.816L487.19 242.68L496.668 269.161L480.842 274.301Z" fill="#010101"/>
<path opacity="0.25" d="M431.02 290.474L418.634 294.497L420.454 270.181V265.749L422.974 263.528L424.595 262.101L431.147 260.874C431.148 260.874 430.742 278.734 431.02 290.474Z" fill="#010101"/>
<path d="M431.149 260.873C431.149 260.873 428.053 257.17 422.649 257.598C417.244 258.026 414.228 259.957 414.047 265.32C413.866 270.683 415.209 297.71 413.975 308.436C412.741 319.162 420.417 320.234 420.857 312.297C421.298 304.361 418.037 279.478 420.454 275.402C422.874 271.327 421.402 279.907 423.939 282.696C426.477 285.484 429.179 280.551 426.477 273.901C423.774 267.251 431.149 260.873 431.149 260.873Z" fill="url(#paint0_linear_10594_785)"/>
<path d="M101.167 220.83C100.242 220.83 99.5566 220.782 99.2608 220.664C98.9155 220.525 97.8622 220.107 88.667 204.471L90.3201 203.59C93.7542 209.428 98.9619 217.927 100.065 219.013C101.065 219.168 106.565 218.802 111.438 218.336L111.628 220.133C108.56 220.425 103.852 220.83 101.167 220.83Z" fill="#F26647"/>
<path d="M134.5 228.412V228.935C134.5 228.935 133.998 238.86 126.198 238.432C126.179 238.432 126.16 238.427 126.141 238.427C121.317 238.129 115.347 235.985 111.344 234.393C108.828 233.39 107.085 232.605 106.891 232.636C106.384 232.713 112.798 258.134 112.713 259.582C112.703 259.776 112.656 259.984 112.585 260.197C112.13 261.573 110.543 263.224 109.591 263.361C109.491 263.375 109.288 263.198 108.999 262.854C106.099 259.42 94.6191 239.47 94.3058 232.956C93.9698 225.798 97.7687 221.487 102.92 220.666C106.72 220.061 117.831 221.519 123.397 222.327C125.374 222.615 126.648 222.819 126.648 222.819L134.5 228.412Z" fill="#0A2533"/>
<path opacity="0.25" d="M112.713 259.582C112.704 259.776 112.656 259.983 112.585 260.196C112.131 261.573 110.544 263.224 109.591 263.36C109.491 263.374 109.288 263.197 109 262.854C113.084 257.361 102.408 230.618 104.73 230.542C105.876 230.505 108.411 232.361 111.344 234.392C108.829 233.39 107.085 232.604 106.891 232.636C106.383 232.712 112.799 258.132 112.713 259.582Z" fill="#010101"/>
<path opacity="0.25" d="M134.499 228.412V228.935C134.499 228.935 133.997 238.86 126.198 238.432C127.732 237.263 128.017 235.205 127.902 232.713C127.77 229.828 124.969 224.891 123.396 222.328C125.373 222.616 126.647 222.82 126.647 222.82L134.499 228.412Z" fill="#010101"/>
<path d="M117.902 195.823C117.642 196.212 117.471 196.537 117.471 196.784C117.471 196.784 117.462 196.769 117.443 196.739C117.353 196.586 117.026 196.049 116.605 195.425C115.894 194.379 114.913 193.078 114.321 192.92C113.368 192.671 110.834 195.722 107.408 195.966C107.18 195.986 106.954 195.989 106.721 195.981C102.95 195.818 98.9498 190.723 102.162 184.719C103.286 186.917 105.593 186.971 105.593 186.971C105.593 186.971 104.185 186.701 104.134 185.039C108.241 185.734 110.379 182.787 113.928 183.861C117.471 184.93 117.25 186.97 117.25 186.97C117.25 186.97 119.95 185.95 120.793 189.168C121.47 191.743 118.945 194.28 117.902 195.823Z" fill="#0A2533"/>
<path d="M117.443 196.74C117.202 197.552 116.742 198.437 116.121 199.154C115.369 200.031 114.373 200.671 113.25 200.644C110.853 200.59 108.469 197.525 107.408 195.967C110.834 195.724 113.368 192.673 114.321 192.921C114.913 193.079 115.893 194.379 116.605 195.426C117.025 196.05 117.353 196.587 117.443 196.74Z" fill="url(#paint1_linear_10594_785)"/>
<path d="M120.906 197.05C120.906 197.05 119.106 200.968 118.429 200.11C118.064 199.646 117.012 199.34 116.121 199.153C116.743 198.436 117.202 197.551 117.443 196.739C117.463 196.769 117.471 196.784 117.471 196.784C117.471 196.536 117.642 196.211 117.902 195.823C119.21 196.763 120.906 197.05 120.906 197.05Z" fill="url(#paint2_linear_10594_785)"/>
<path d="M133.571 230.141C130.7 229.739 122.934 221.695 122.934 218.234C122.934 217.746 122.878 217.204 122.783 216.614C122.186 213.012 120.002 207.731 119.092 203.998C118.036 199.656 119.556 198.031 119.556 198.031C123.091 192.24 131.091 203.718 135.653 212.921L135.658 212.926C137.193 216.027 138.208 218.906 138.302 220.834C138.629 227.35 136.443 230.542 133.571 230.141Z" fill="#5462AD"/>
<path opacity="0.25" d="M133.571 230.141C130.699 229.739 122.934 221.696 122.934 218.234C122.934 217.746 122.877 217.204 122.782 216.614L122.764 215.071L125.577 201.023C125.577 201.023 129.463 205.425 130.083 213.305C130.699 221.186 139.808 222.901 135.657 212.926C137.191 216.027 138.207 218.906 138.3 220.835C138.628 227.351 136.442 230.542 133.571 230.141Z" fill="#010101"/>
<path d="M127.548 212.767C127.473 212.829 127.34 212.879 127.165 212.925C125.833 213.276 121.953 213.223 120.337 212.92C120.096 212.875 119.901 212.821 119.778 212.767C118.713 212.284 119.778 211.102 119.442 209.012C119.105 206.918 118.261 200.806 121.526 198.928C124.942 196.965 127.434 204.398 127.548 208.1C127.662 211.802 128.283 212.176 127.548 212.767Z" fill="#5462AD"/>
<path d="M127.165 212.925C127.165 212.925 127.009 221.965 125.198 226.231C125.198 226.236 125.198 226.236 125.198 226.24C124.635 227.567 123.91 228.429 122.976 228.412C119.049 228.33 110.227 219.443 109.422 219.118C108.621 218.797 104.608 219.362 104.735 218.797C104.863 218.234 106.427 216.987 108.113 216.387C109.805 215.783 109.506 216.144 120.357 220.892C120.209 219.98 120.271 216.036 120.318 213.801C120.324 213.462 120.334 213.165 120.338 212.921C121.954 213.223 125.833 213.277 127.165 212.925Z" fill="url(#paint3_linear_10594_785)"/>
<path d="M115.95 265.693C116.225 267.304 104.862 278.321 105.454 275.428C106.041 272.531 109.591 263.359 109.591 263.359C110.543 263.223 112.13 261.572 112.585 260.195C113.514 261.73 115.718 264.357 115.95 265.693Z" fill="#5462AD"/>
<path opacity="0.25" d="M126.198 231.857C126.198 231.857 107.959 228.594 104.356 230.172C100.753 231.749 110.948 259.206 110.948 259.206" stroke="white" stroke-width="0.4597" stroke-miterlimit="10"/>
<path opacity="0.25" d="M125.198 226.231C125.545 224.416 125.805 219.14 124.848 217.055C124.204 215.646 121.807 214.436 120.317 213.801C120.323 213.462 120.333 213.165 120.337 212.921C121.953 213.224 125.833 213.277 127.165 212.926C127.165 212.925 127.009 221.965 125.198 226.231Z" fill="#010101"/>
<path d="M419.966 165.085C419.597 166.439 418.98 168.182 418.023 170.515C416.659 173.86 414.597 178.418 411.56 184.773C411.485 188.001 410.405 208.587 410.111 213.326C410.073 213.904 410.049 214.247 410.04 214.292C409.998 214.499 409.215 214.897 408.363 215.1C407.557 215.298 406.695 215.325 406.324 214.855C405.562 213.89 400.412 194.422 400.161 189.838C399.906 185.252 399.654 186.299 405.562 168.042C404.126 168.683 394.821 168.443 394.821 168.443C394.821 168.443 396.526 190.803 396.536 190.965C396.536 190.987 396.521 191.041 396.488 191.118C396.38 191.425 396.038 192.108 395.669 192.45C395.503 192.607 395.332 192.698 395.175 192.653C395.086 192.631 394.867 192.441 394.551 192.12C392.765 190.314 387.865 184.24 385.211 178.575C382.088 171.899 381.325 167.232 384.283 162.569C387.239 157.903 402.211 157.545 402.211 157.545C403.159 157.798 405.338 158.046 407.494 158.534C408.129 158.674 408.764 158.841 409.362 159.031C412.641 160.069 418.89 161.386 420.236 160.647C420.535 161.642 420.601 162.807 419.966 165.085Z" fill="#6561AB"/>
<path d="M432.375 149.542C431.783 149.862 424.903 149.618 420.254 147.93C420.278 148.71 420.382 149.939 420.5 151.334C420.686 153.532 420.899 156.145 420.847 158.05C420.818 159.409 420.653 160.41 420.254 160.641C420.249 160.646 420.245 160.65 420.234 160.65C419.52 161.042 417.425 160.853 415.123 160.438C413.634 160.167 412.062 159.801 410.721 159.435C410.232 159.3 409.774 159.165 409.361 159.034C406.727 158.194 403.439 157.873 402.211 157.548C401.903 157.467 401.728 157.39 401.717 157.3C401.68 156.857 402.859 155.856 403.414 154.808C403.48 154.678 403.569 154.483 403.669 154.235C404.12 153.138 404.826 151.062 405.167 149.739C405.37 148.959 405.446 148.444 405.267 148.534C404.717 148.813 401.466 154.605 401.086 154.605C400.955 154.605 400.3 154.248 399.523 153.747C398.215 152.902 396.571 151.662 396.533 151.07C396.524 150.989 396.548 150.921 396.609 150.867C397.372 150.181 403.195 140.851 405.308 138.861C406.298 137.922 407.469 137.358 408.421 137.024C409.487 136.645 410.293 136.559 410.293 136.559C411.548 136.518 412.813 136.677 414.046 136.974C418.234 137.972 422.077 140.491 424.266 141.736C427.094 143.343 429.037 142.901 429.752 143.303C430.475 143.71 432.962 149.217 432.375 149.542Z" fill="#F26647"/>
<path d="M420.847 158.05C416.953 158.095 408.295 157.765 403.671 154.236C404.121 153.139 404.827 151.063 405.168 149.74C405.168 149.74 414.308 152.38 420.501 151.334C420.687 153.532 420.9 156.145 420.847 158.05Z" fill="#F69181"/>
<path opacity="0.25" d="M414.048 136.976C413.897 138.519 413.323 140.18 411.56 140.05C409.073 139.865 408.537 137.928 408.424 137.026C409.489 136.647 410.295 136.561 410.295 136.561C411.551 136.519 412.815 136.677 414.048 136.976Z" fill="#010101"/>
<path d="M412.996 133.612C412.996 133.612 412.574 131.965 411.726 131.117C411.04 132.182 408.391 132.728 406.348 132.868C405.382 132.936 404.548 132.913 404.126 132.809C402.691 127.497 407.168 125.167 409.661 125.005C412.148 124.842 414.389 126.607 413.712 129.302C415.948 131.401 412.996 133.612 412.996 133.612Z" fill="#321212"/>
<path d="M412.996 133.612C412.868 133.964 412.669 134.583 412.328 135.16H412.323C411.765 136.121 410.827 136.974 409.201 136.347C409.145 136.325 409.088 136.302 409.035 136.275C407.667 135.683 406.956 134.533 406.596 133.626C406.483 133.341 406.402 133.08 406.35 132.868C408.391 132.727 411.041 132.181 411.727 131.116C411.766 131.157 411.804 131.198 411.841 131.238C412.613 132.114 412.996 133.612 412.996 133.612Z" fill="url(#paint4_linear_10594_785)"/>
<path d="M412.783 137.715C412.532 139.204 409.955 139.124 409.674 138.158C409.527 137.657 409.361 137.174 409.233 136.822C409.12 136.493 409.034 136.28 409.034 136.28V136.276C409.087 136.302 409.143 136.325 409.2 136.347C410.825 136.975 411.763 136.123 412.322 135.16H412.327C412.152 135.494 412.621 135.914 412.777 136.704C412.835 136.988 412.85 137.323 412.783 137.715Z" fill="url(#paint5_linear_10594_785)"/>
<path d="M399.398 196.677C399.146 198.528 389.097 205.767 389.268 204.481C389.433 203.194 394.551 192.123 394.551 192.123C394.868 192.443 395.087 192.633 395.175 192.655C395.682 192.795 396.327 191.567 396.487 191.12C397.838 192.736 399.625 195.025 399.398 196.677Z" fill="#262166"/>
<path d="M406.323 229.929C403.959 225.099 406.323 214.857 406.323 214.857C407.082 215.823 409.953 214.695 410.038 214.293C410.048 214.248 410.071 213.904 410.109 213.327C410.109 213.327 410.488 218.234 410.938 222.391C411.389 226.548 408.689 234.753 406.323 229.929Z" fill="#262166"/>
<path opacity="0.25" d="M405.56 168.043C404.125 168.684 394.819 168.445 394.819 168.445C394.819 168.445 396.525 190.805 396.534 190.967C396.534 190.989 396.52 191.043 396.487 191.12C396.379 191.427 396.036 192.109 395.667 192.452C393.952 184.801 390.532 170.131 393.26 167.613C396.753 164.395 406.21 163.538 406.347 164.242C406.485 164.951 405.56 168.043 405.56 168.043Z" fill="#010101"/>
<path d="M398.866 157.476C398.729 157.747 398.658 157.973 398.701 158.122C398.904 158.871 397.824 168.255 398.218 169.221C398.61 170.187 398.838 173.242 398.61 175.174C398.383 177.107 394.162 178.285 394.162 176.624C394.162 174.959 394.669 171.045 394.839 169.542C395.009 168.044 393.433 157.184 393.854 155.68C394.129 154.701 395.186 153.04 395.887 152.007C396.261 151.452 396.536 151.072 396.536 151.072C396.599 152.015 400.744 154.606 401.089 154.606C401.088 154.605 399.421 156.384 398.866 157.476Z" fill="url(#paint6_linear_10594_785)"/>
<path opacity="0.25" d="M419.966 165.086C418.103 164.956 416.009 164.179 414.55 162.784C412.853 161.168 410.024 159.67 407.494 158.537C408.129 158.677 408.764 158.844 409.362 159.034C412.641 160.071 418.89 161.389 420.236 160.65C420.535 161.643 420.601 162.808 419.966 165.086Z" fill="#010101"/>
<path opacity="0.25" d="M418.023 170.516C416.659 173.861 414.598 178.419 411.56 184.774C411.485 188.002 410.405 208.588 410.111 213.327C410.073 213.905 410.049 214.248 410.04 214.293C409.998 214.5 409.216 214.898 408.363 215.101C408.557 208.159 408.301 193.047 409.534 188.552C411.006 183.172 417.611 171.256 418.023 170.516Z" fill="#010101"/>
<path opacity="0.25" d="M410.721 159.435C410.233 159.3 409.774 159.165 409.362 159.033C406.727 158.194 403.44 157.873 402.211 157.548C401.903 157.467 401.728 157.39 401.718 157.3C401.681 156.857 402.86 155.856 403.414 154.808C403.963 153.76 405.816 148.25 405.267 148.533C404.718 148.813 401.466 154.605 401.087 154.605C400.955 154.605 400.301 154.248 399.523 153.747C399.604 153.616 399.693 153.485 399.793 153.345C401.818 150.502 405.139 146.964 405.702 143.907C406.152 141.655 406.83 142.941 406.715 145.839C406.614 148.44 406.467 156.402 410.721 159.435Z" fill="#010101"/>
<path opacity="0.25" d="M420.255 160.64C420.249 160.645 420.245 160.649 420.235 160.649C419.521 161.042 417.425 160.852 415.123 160.437C419.24 156.506 416.994 145.858 417.639 146.405C418.396 147.046 420.253 147.93 420.253 147.93C420.34 150.827 421.568 159.877 420.255 160.64Z" fill="#010101"/>
<path opacity="0.25" d="M401.088 154.605C401.088 154.605 399.421 156.384 398.866 157.476C398.852 157.237 398.834 157.016 398.81 156.817C398.682 155.667 396.801 153.165 395.886 152.006C396.26 151.451 396.535 151.071 396.535 151.071C396.598 152.015 400.743 154.605 401.088 154.605Z" fill="#010101"/>
<path opacity="0.25" d="M411.839 131.238C410.826 133.373 407.845 133.621 406.594 133.626C406.481 133.341 406.4 133.08 406.348 132.868C408.389 132.727 411.039 132.181 411.725 131.116C411.764 131.157 411.802 131.198 411.839 131.238Z" fill="#010101"/>
<path opacity="0.25" d="M412.777 136.705C412.588 136.845 412.357 136.949 412.067 137.012C410.708 137.306 409.75 137.053 409.234 136.823C409.121 136.494 409.035 136.281 409.035 136.281V136.277C409.088 136.303 409.144 136.326 409.201 136.348C410.826 136.976 411.764 136.124 412.323 135.161H412.328C412.153 135.495 412.622 135.914 412.777 136.705Z" fill="#010101"/>
<path d="M426.252 -29.8242V170.516" stroke="#0A2533" stroke-width="0.9195" stroke-miterlimit="10"/>
<path d="M435.118 146.67C435.109 146.724 435.096 146.778 435.085 146.828C434.527 149.252 432.489 149.51 432.105 149.352C431.721 149.193 430.707 148.083 429.821 144.171C429.801 144.093 429.788 144.017 429.768 143.936C429.768 143.936 427.854 139.26 426.955 137.012C424.733 135.757 424.311 136.267 423.998 134.818C423.69 133.369 424.676 131.496 425.24 131.225C425.803 130.959 428.334 133.211 428.675 134.042C429.011 134.871 435.625 144.097 435.118 146.67Z" fill="url(#paint7_linear_10594_785)"/>
<path opacity="0.25" d="M435.085 146.828C434.526 149.252 432.489 149.51 432.104 149.351C431.721 149.193 430.707 148.083 429.82 144.171C430.384 145.257 431.252 146.666 432.204 147.249C433.25 147.884 434.426 147.681 435.085 146.828Z" fill="#010101"/>
<path d="M360.482 273.543L355.052 247.125C351.034 227.586 343.287 213.333 331.811 204.358C320.33 195.39 306.15 192.479 289.267 195.629C272.384 198.78 260.412 206.534 253.356 218.887C246.296 231.245 244.78 247.227 248.812 266.835L254.261 293.353C258.265 312.824 266.003 327.046 277.483 336.015C282.33 339.801 287.665 342.509 293.488 344.131C301.453 346.357 310.333 346.55 320.126 344.726C325.201 343.783 329.835 342.415 334.019 340.627C343.703 336.493 351.009 330.115 355.937 321.485C362.998 309.128 364.51 293.145 360.482 273.543ZM326.585 309.001C324.728 314.419 320.8 317.686 314.801 318.805C308.589 319.965 303.542 318.304 299.649 313.818C296.995 310.762 294.725 306.226 292.843 300.21C292.843 300.205 292.843 300.2 292.843 300.2C292.839 300.191 292.839 300.181 292.834 300.168C291.962 297.379 291.176 294.269 290.474 290.843L282.851 253.756C281.065 244.015 281.06 236.496 282.832 231.196C284.605 225.898 288.527 222.679 294.596 221.551C299.226 220.684 303.22 221.429 306.574 223.777H306.579C307.721 224.58 308.791 225.564 309.787 226.738C313.705 231.355 316.737 238.884 318.879 249.315L326.256 285.202C328.334 295.65 328.443 303.58 326.585 309.001Z" fill="#F26647"/>
<path opacity="0.25" d="M329.31 313.957C330.875 316.251 332.954 331.84 334.02 340.628C329.836 342.416 325.201 343.783 320.127 344.727C310.334 346.55 301.455 346.357 293.49 344.132C293.816 343.432 294.114 342.7 294.37 341.951C299.341 327.485 293.129 301.384 292.845 300.209C294.726 306.226 296.995 310.761 299.65 313.818C303.544 318.303 308.591 319.965 314.802 318.805C320.8 317.685 324.729 314.418 326.586 309.001C328.445 303.581 328.334 295.65 326.26 285.201L318.882 249.313C316.741 238.883 313.708 231.354 309.79 226.737C308.795 225.563 307.725 224.58 306.583 223.776C318.566 226.014 328.298 261.356 332.354 278.404C336.404 295.456 336.745 303.341 329.31 313.957Z" fill="#010101"/>
<path d="M295.488 307.144C295.488 307.144 296.265 309.079 300.347 310.151C304.429 311.223 308.257 305.209 310.959 307.144C313.661 309.079 317.986 317.099 321.791 315.878C325.596 314.656 326.721 333.962 324.921 336.107C323.119 338.252 321.824 320.914 317.067 321.432C312.31 321.949 315.913 335.034 313.211 337.394C310.509 339.754 311.635 331.603 308.708 330.1C305.78 328.599 311.861 395.74 307.356 396.812C302.852 397.885 299.925 393.809 301.727 379.437C303.528 365.066 301.275 315.514 298.573 312.94C295.873 310.366 296.042 309.883 295.488 307.144Z" fill="#6561AB"/>
<path d="M294.371 -29.8242V204.4" stroke="#0A2533" stroke-width="0.9195" stroke-miterlimit="10"/>
<path d="M352.829 113.825C352.829 113.825 349.241 104.454 349.536 103.729C349.832 103.005 353.773 101.638 354.062 102.039C354.35 102.442 356.841 109.722 356.418 110.244C355.996 110.767 352.829 113.825 352.829 113.825Z" fill="#262166"/>
<path d="M293.127 101.535C293.127 101.535 295.317 102.4 296.291 104.653C297.264 106.906 296.885 98.7815 296.885 98.7815L295.829 97.8567L293.127 101.535Z" fill="url(#paint8_linear_10594_785)"/>
<path d="M291.987 101.536C291.987 101.536 294.732 103.487 295.196 103.607C295.66 103.728 296.557 98.6199 296.152 97.8158C295.745 97.0108 294.258 96.2067 293.292 96.73C292.325 97.2533 291.538 101.22 291.987 101.536Z" fill="url(#paint9_linear_10594_785)"/>
<path d="M299.292 102.12C299.292 102.12 297.106 97.2935 296.152 96.4492C295.197 95.6049 293.424 96.6907 293.296 97.1325C293.168 97.5743 295.417 97.8964 296.152 98.6209C296.886 99.3455 294.901 104.694 296.801 106.585C298.701 108.475 299.292 102.12 299.292 102.12Z" fill="url(#paint10_linear_10594_785)"/>
<path d="M350.127 114.909C350.127 114.909 352.069 113.904 352.491 113.381C352.913 112.857 352.153 110.887 353.378 109.077C354.602 107.267 357.22 107.79 357.853 109.962C358.486 112.134 356.84 114.869 356.08 115.713C355.319 116.558 350.127 120.097 350.127 120.097" fill="url(#paint11_linear_10594_785)"/>
<path d="M351.518 119.105C351.461 119.426 351.115 119.976 350.443 120.726C347.979 123.47 341.189 128.841 328.951 134.98C328.709 135.919 328.52 136.876 328.378 137.833C327.923 140.888 327.931 143.975 328.084 146.751C328.121 147.465 328.168 148.16 328.221 148.827C328.445 151.752 328.748 154.167 328.667 155.566C328.629 156.18 328.516 156.595 328.298 156.78C328.023 157.009 327.733 157.218 327.43 157.403C321.318 161.141 310.192 155.557 308.392 153.878C308.249 153.747 308.164 153.638 308.146 153.561C307.833 152.433 309.046 151.228 309.723 149.296C309.837 148.967 309.951 148.23 310.064 147.224C310.387 144.249 310.666 138.928 310.766 134.925C310.823 132.369 310.809 130.352 310.686 129.819C310.681 129.81 310.681 129.801 310.681 129.801C310.345 128.487 300.095 113.737 297.021 108.51C296.457 107.558 296.136 106.921 296.153 106.741C296.266 105.563 298.631 101.379 299.138 101.433C299.223 101.442 299.537 101.817 300.01 102.44C302.384 105.581 308.771 115.078 309.946 116.288C311.046 117.421 316.641 123.031 319.039 125.437C319.716 126.109 320.138 126.533 320.138 126.533C321.436 126.511 322.738 126.398 324.042 126.204C335.56 124.512 346.879 116.83 349.841 114.694C350.329 114.343 350.591 114.143 350.591 114.143C350.591 114.143 351.774 117.603 351.518 119.105Z" fill="#F47920"/>
<path d="M322.774 131.387C318.846 131.992 318.834 127.122 319.038 125.438C319.716 126.111 320.137 126.535 320.137 126.535C321.436 126.513 322.737 126.4 324.041 126.206C324.53 128.125 324.138 131.18 322.774 131.387Z" fill="#C54527"/>
<path d="M326.751 120.947C325.989 121.385 324.993 121.535 323.723 121.222C322.747 120.988 321.604 120.478 320.273 119.615C320.273 119.615 319.221 120.821 319.136 123.032C316.349 120.739 315.672 118.446 318.036 117.602C317.065 113.58 319.136 112.736 322.595 112.538C326.059 112.334 326.86 115.715 328.929 115.634C329.055 117.437 328.519 119.95 326.751 120.947Z" fill="#262166"/>
<path d="M326.751 120.947C326.713 121.272 326.656 121.646 326.576 122.049C326.111 124.401 324.898 127.682 323.07 127.501C322.975 127.497 322.876 127.479 322.771 127.447C321.127 126.955 320.136 125.435 319.62 124.315C319.279 123.589 319.137 123.033 319.137 123.033C319.165 122.334 319.287 121.733 319.445 121.242C319.781 120.18 320.273 119.617 320.273 119.617C321.605 120.479 322.747 120.989 323.724 121.224C324.993 121.534 325.988 121.385 326.751 120.947Z" fill="url(#paint12_linear_10594_785)"/>
<path d="M323.07 128.887C323.05 129.74 322.928 130.408 322.331 130.448C321.122 130.53 319.516 129.026 319.602 127.393C319.63 126.838 319.64 126.247 319.64 125.705C319.64 125.158 319.63 124.662 319.62 124.315C320.137 125.434 321.127 126.955 322.771 127.447C322.876 127.478 322.975 127.497 323.07 127.501C323.065 127.976 323.084 128.454 323.07 128.887Z" fill="url(#paint13_linear_10594_785)"/>
<path d="M351.519 119.106C351.462 119.427 351.116 119.977 350.444 120.727C350.476 118.808 350.036 115.897 349.842 114.696C350.329 114.344 350.591 114.145 350.591 114.145C350.591 114.145 351.774 117.604 351.519 119.106Z" fill="#C54527"/>
<path d="M300.009 102.442C298.209 103.908 297.331 107.105 297.02 108.513C296.456 107.561 296.135 106.924 296.152 106.744C296.265 105.566 298.63 101.382 299.137 101.436C299.223 101.444 299.536 101.818 300.009 102.442Z" fill="#C54527"/>
<path d="M328.22 148.828C324.193 149.383 316.616 149.876 310.063 147.226C310.386 144.251 310.665 138.93 310.765 134.926C314.011 136.235 321.018 138.564 328.378 137.832C327.804 141.675 327.964 145.57 328.22 148.828Z" fill="#FCAF17"/>
<path opacity="0.25" d="M327.429 157.405C320.843 161.431 308.438 154.638 308.145 153.563C307.832 152.435 309.045 151.229 309.722 149.297C309.836 148.968 309.95 148.232 310.063 147.226C310.386 144.251 310.665 138.93 310.765 134.926C310.822 132.37 310.808 130.354 310.685 129.821C310.827 130.236 313.054 136.961 314.195 143.506C315.379 150.262 315.124 153.481 318.588 155.652C320.615 156.921 324.316 157.589 327.429 157.405Z" fill="#010101"/>
<path d="M342.482 175.978C342.482 178.767 331.896 194.222 329.704 197.394C329.453 197.76 329.311 197.963 329.311 197.963C329.311 197.963 327.946 197.814 326.823 197.453C326.041 197.195 325.374 196.843 325.374 196.356C325.374 196.256 325.393 196.103 325.426 195.9C325.8 193.747 328.126 185.956 331.112 175.657C329.539 173.833 318.505 166.86 318.505 166.86C318.505 166.86 318.499 166.869 318.494 166.886C318.016 167.938 302.698 201.681 300.958 204.828C300.896 204.941 300.853 205.012 300.825 205.045C300.039 206.011 296.774 206.115 296.547 204.079C296.547 204.075 296.547 204.075 296.547 204.07C295.609 195.54 303.332 169.811 306.929 158.433C307.573 156.393 308.084 154.814 308.392 153.879C310.193 155.558 321.318 161.141 327.431 157.404C327.734 157.219 328.023 157.012 328.299 156.781C328.516 156.596 328.629 156.181 328.668 155.568C328.781 155.684 328.9 155.811 329.018 155.947C333.281 160.59 342.482 173.291 342.482 175.978Z" fill="#9DC2E7"/>
<path d="M302.037 209.549C301.615 211.558 290.466 217.511 291.481 213.909C292.306 210.989 295.404 205.893 296.546 204.07C296.546 204.075 296.546 204.075 296.546 204.079C296.774 206.115 300.039 206.012 300.824 205.045C300.852 205.014 300.895 204.942 300.957 204.828C301.526 206.381 302.312 208.249 302.037 209.549Z" fill="#262166"/>
<path d="M333.366 207.779C332.518 208.182 321.544 204.159 321.795 202.792C322.051 201.424 325.424 195.9 325.424 195.9C325.391 196.103 325.372 196.256 325.372 196.356C325.372 197.533 329.309 197.963 329.309 197.963C329.309 197.963 329.451 197.76 329.702 197.394C330.192 201.569 334.158 207.401 333.366 207.779Z" fill="#262166"/>
<path opacity="0.25" d="M317.068 165.708C317.068 165.708 304.907 188.457 300.347 204.07" stroke="#010101" stroke-width="0.4597" stroke-miterlimit="10"/>
<path opacity="0.25" d="M319.938 165.708C319.938 165.708 333.448 174.154 333.956 175.522C334.462 176.89 326.947 195.901 326.947 195.901" stroke="#010101" stroke-width="0.4597" stroke-miterlimit="10"/>
<path opacity="0.25" d="M329.017 155.946C327.53 161.605 318.915 160.067 314.509 158.979C311.946 158.347 309.007 158.324 306.929 158.432C307.573 156.392 308.084 154.813 308.392 153.878C310.193 155.557 321.318 161.14 327.431 157.403C327.734 157.218 328.024 157.011 328.299 156.78C328.516 156.595 328.63 156.18 328.668 155.567C328.78 155.684 328.898 155.811 329.017 155.946Z" fill="#010101"/>
<path opacity="0.25" d="M326.822 197.454C326.041 197.196 325.373 196.845 325.373 196.358C325.373 196.257 325.393 196.104 325.426 195.901C325.8 193.748 328.126 185.958 331.112 175.658C329.539 173.835 318.504 166.861 318.504 166.861C318.504 166.861 319.404 163.968 320.418 163.752C321.431 163.54 333.14 173.136 334.433 175.122C335.574 176.866 327.6 191.112 326.822 197.454Z" fill="#010101"/>
<path opacity="0.25" d="M326.751 120.947C326.713 121.272 326.657 121.646 326.576 122.049C323.624 123.48 320.728 120.257 320.383 120.297C320.184 120.32 319.776 120.808 319.445 121.241C319.781 120.179 320.274 119.616 320.274 119.616C321.605 120.478 322.747 120.988 323.724 121.223C324.993 121.534 325.989 121.385 326.751 120.947Z" fill="#010101"/>
<path opacity="0.25" d="M323.07 128.887C321.122 128.435 320.046 126.576 319.64 125.705C319.64 125.158 319.629 124.662 319.62 124.315C320.136 125.434 321.127 126.955 322.771 127.447C322.876 127.478 322.975 127.497 323.07 127.501C323.064 127.976 323.084 128.454 323.07 128.887Z" fill="#010101"/>
<path opacity="0.25" d="M328.377 137.833C327.923 140.888 327.931 143.976 328.083 146.751C327.316 143.668 326.644 140.355 327.429 138.438C328.783 135.134 328.931 134.981 328.95 134.981C328.708 135.919 328.518 136.876 328.377 137.833Z" fill="#010101"/>
<path d="M233.575 168.611L197.12 162.644L197.063 162.955L116.556 249.3L114.894 270.884L126.441 272.775L146.427 276.047L173.254 280.44L175.803 280.855L173.884 291.502L172.994 296.428L170.061 312.699L193.789 316.585L206.517 318.666L212.259 286.822L228.274 289.44L233.106 262.642L217.091 260.025L233.575 168.611ZM188.066 212.858L180.631 254.058L171.738 252.6L152.287 249.419L163.057 237.173L165.521 234.37L186.056 211.022L188.96 207.89L188.066 212.858Z" fill="#6561AB"/>
<path opacity="0.25" d="M173.254 280.44L146.427 276.048C149.587 266.104 153.53 252.401 152.288 249.418L171.739 252.599C172.985 254.577 173.97 257.298 174.236 261.031C174.709 267.64 173.675 274.387 173.254 280.44Z" fill="#010101"/>
<path d="M153.448 249.61C153.448 249.61 156.373 245.744 162.96 246.951C169.547 248.159 170.054 255.882 167.183 264.408C164.311 272.935 163.636 302.697 164.986 312.35C166.338 322.003 165.493 326.508 162.285 326.829C159.077 327.151 157.555 315.245 159.414 306.881C161.272 298.515 161.103 290.792 158.063 292.079C155.022 293.368 157.555 296.585 156.035 299.48C154.515 302.375 149.956 300.606 150.125 295.136C150.294 289.665 159.476 254.116 153.448 249.61Z" fill="#9DC2E7"/>
<path opacity="0.25" d="M217.091 260.025L233.106 262.642L228.274 289.44L212.259 286.822L206.516 318.666L193.789 316.584L216.159 183.624L233.575 168.611L217.091 260.025Z" fill="#010101"/>
<path d="M206.194 -29.8242V177.414" stroke="#0A2533" stroke-width="0.9195" stroke-miterlimit="10"/>
<path d="M267.498 136.096C271.136 136.096 274.085 133.287 274.085 129.821C274.085 126.356 271.136 123.547 267.498 123.547C263.86 123.547 260.911 126.356 260.911 129.821C260.911 133.287 263.86 136.096 267.498 136.096Z" fill="#F47920"/>
<path d="M496.668 215.831C500.306 215.831 503.254 213.022 503.254 209.557C503.254 206.092 500.306 203.282 496.668 203.282C493.03 203.282 490.081 206.092 490.081 209.557C490.081 213.022 493.03 215.831 496.668 215.831Z" fill="#6561AB"/>
<path d="M152.287 170.021C155.925 170.021 158.874 167.211 158.874 163.746C158.874 160.281 155.925 157.472 152.287 157.472C148.649 157.472 145.7 160.281 145.7 163.746C145.7 167.211 148.649 170.021 152.287 170.021Z" fill="#9DC2E7"/>
<path d="M260.913 361.901C264.551 361.901 267.5 359.092 267.5 355.627C267.5 352.162 264.551 349.352 260.913 349.352C257.275 349.352 254.326 352.162 254.326 355.627C254.326 359.092 257.275 361.901 260.913 361.901Z" fill="#F26647"/>
<path d="M459.015 151.129C460.418 151.129 461.556 150.045 461.556 148.709C461.556 147.372 460.418 146.289 459.015 146.289C457.612 146.289 456.475 147.372 456.475 148.709C456.475 150.045 457.612 151.129 459.015 151.129Z" fill="#F47920"/>
<path d="M264.957 188.812C266.361 188.812 267.498 187.729 267.498 186.392C267.498 185.055 266.361 183.972 264.957 183.972C263.554 183.972 262.417 185.055 262.417 186.392C262.417 187.729 263.554 188.812 264.957 188.812Z" fill="#9DC2E7"/>
<path d="M188.959 156.044C190.363 156.044 191.5 154.961 191.5 153.624C191.5 152.288 190.363 151.204 188.959 151.204C187.556 151.204 186.419 152.288 186.419 153.624C186.419 154.961 187.556 156.044 188.959 156.044Z" fill="#6561AB"/>
<path d="M532.65 20.9964C532.65 20.9964 522.497 11.3436 503.255 15.2049C484.011 19.0663 470.486 48.0246 456.476 54.4591C442.464 60.8946 414.843 79.8968 412.778 96.1362C439.763 74.7307 449.896 84.0614 467.46 81.4872C485.024 78.913 486.375 59.2855 511.709 59.9295C537.042 60.5726 564.064 90.5578 589.396 73.7961C614.729 57.0343 644.453 37.0847 620.471 20.6754C596.488 4.26605 547.85 29.3621 532.65 20.9964Z" fill="url(#paint14_linear_10594_785)"/>
<path d="M121.587 86.2375C121.587 86.2375 118.944 99.6672 133.143 112.629C147.341 125.59 180.074 119.9 193.553 127.292C207.033 134.685 239.083 145.7 254.326 138.165C220.551 129.008 222.926 115.775 210.789 103.409C198.654 91.0433 180.876 101.049 167.149 80.7573C153.421 60.4651 164.175 22.2987 135.359 11.8223C106.542 1.34579 72.4847 -10.7879 71.7828 17.332C71.081 45.4518 120.267 69.5622 121.587 86.2375Z" fill="url(#paint15_linear_10594_785)"/>
<path d="M612.026 163.231C612.026 163.231 570.818 206.3 562.035 256.796C553.253 307.293 511.012 304.075 496.667 327.885C482.321 351.695 448.133 353.626 432.463 363.279C416.793 372.932 381.094 356.2 374.962 363.279C368.83 370.357 406.983 381.298 456.475 381.941C505.966 382.584 515.422 345.904 559.333 340.756C603.244 335.608 647.153 317.589 662.691 249.375C678.23 181.162 651.883 144.657 612.026 163.231Z" fill="url(#paint16_linear_10594_785)"/>
<path d="M17.294 180.574C17.294 180.574 58.5015 223.643 67.2845 274.139C76.0664 324.635 118.308 321.417 132.653 345.228C146.998 369.038 181.187 370.969 196.857 380.622C212.526 390.274 248.226 373.543 254.358 380.622C260.489 387.7 222.337 398.64 172.845 399.284C123.353 399.927 113.897 363.246 69.9867 358.099C26.077 352.95 -17.8348 334.932 -33.3714 266.718C-48.9101 198.505 -22.5633 161.999 17.294 180.574Z" fill="url(#paint17_linear_10594_785)"/>
<defs>
<linearGradient id="paint0_linear_10594_785" x1="419.074" y1="233.887" x2="426.433" y2="357.485" gradientUnits="userSpaceOnUse">
<stop stop-color="#FCAF17"/>
<stop offset="1" stop-color="#F47920"/>
</linearGradient>
<linearGradient id="paint1_linear_10594_785" x1="111.969" y1="200.453" x2="112.813" y2="192.078" gradientUnits="userSpaceOnUse">
<stop stop-color="#FBC4AF"/>
<stop offset="1" stop-color="#EA8B69"/>
</linearGradient>
<linearGradient id="paint2_linear_10594_785" x1="123.674" y1="197.655" x2="115.571" y2="198.275" gradientUnits="userSpaceOnUse">
<stop stop-color="#FBC4AF"/>
<stop offset="1" stop-color="#EA8B69"/>
</linearGradient>
<linearGradient id="paint3_linear_10594_785" x1="113.06" y1="229.175" x2="119.849" y2="203.585" gradientUnits="userSpaceOnUse">
<stop stop-color="#FBC4AF"/>
<stop offset="1" stop-color="#EA8B69"/>
</linearGradient>
<linearGradient id="paint4_linear_10594_785" x1="409.547" y1="135.977" x2="409.854" y2="128.617" gradientUnits="userSpaceOnUse">
<stop stop-color="#FBC4AF"/>
<stop offset="1" stop-color="#EA8B69"/>
</linearGradient>
<linearGradient id="paint5_linear_10594_785" x1="411.046" y1="139.108" x2="410.817" y2="133.879" gradientUnits="userSpaceOnUse">
<stop stop-color="#FBC4AF"/>
<stop offset="1" stop-color="#EA8B69"/>
</linearGradient>
<linearGradient id="paint6_linear_10594_785" x1="394.107" y1="178.576" x2="399.636" y2="140.85" gradientUnits="userSpaceOnUse">
<stop stop-color="#FBC4AF"/>
<stop offset="1" stop-color="#EA8B69"/>
</linearGradient>
<linearGradient id="paint7_linear_10594_785" x1="428.121" y1="133.169" x2="432.426" y2="157.001" gradientUnits="userSpaceOnUse">
<stop stop-color="#FBC4AF"/>
<stop offset="1" stop-color="#EA8B69"/>
</linearGradient>
<linearGradient id="paint8_linear_10594_785" x1="294.002" y1="98.125" x2="296.731" y2="104.212" gradientUnits="userSpaceOnUse">
<stop stop-color="#FBC4AF"/>
<stop offset="1" stop-color="#EA8B69"/>
</linearGradient>
<linearGradient id="paint9_linear_10594_785" x1="289.519" y1="97.9772" x2="296.755" y2="101.164" gradientUnits="userSpaceOnUse">
<stop stop-color="#FBC4AF"/>
<stop offset="1" stop-color="#EA8B69"/>
</linearGradient>
<linearGradient id="paint10_linear_10594_785" x1="293.736" y1="95.7247" x2="298.1" y2="105.461" gradientUnits="userSpaceOnUse">
<stop stop-color="#FBC4AF"/>
<stop offset="1" stop-color="#EA8B69"/>
</linearGradient>
<linearGradient id="paint11_linear_10594_785" x1="361.07" y1="105.198" x2="348.402" y2="121.006" gradientUnits="userSpaceOnUse">
<stop stop-color="#FBC4AF"/>
<stop offset="1" stop-color="#EA8B69"/>
</linearGradient>
<linearGradient id="paint12_linear_10594_785" x1="323.52" y1="128.371" x2="322.216" y2="112.432" gradientUnits="userSpaceOnUse">
<stop stop-color="#FBC4AF"/>
<stop offset="1" stop-color="#EA8B69"/>
</linearGradient>
<linearGradient id="paint13_linear_10594_785" x1="321.065" y1="128.495" x2="321.679" y2="124.384" gradientUnits="userSpaceOnUse">
<stop stop-color="#FBC4AF"/>
<stop offset="1" stop-color="#EA8B69"/>
</linearGradient>
<linearGradient id="paint14_linear_10594_785" x1="569.501" y1="40.4576" x2="343.017" y2="95.4867" gradientUnits="userSpaceOnUse">
<stop stop-color="white" stop-opacity="0"/>
<stop offset="1" stop-color="#9DC2E7"/>
</linearGradient>
<linearGradient id="paint15_linear_10594_785" x1="117.677" y1="46.2721" x2="281.887" y2="205.011" gradientUnits="userSpaceOnUse">
<stop stop-color="white" stop-opacity="0"/>
<stop offset="1" stop-color="#9DC2E7"/>
</linearGradient>
<linearGradient id="paint16_linear_10594_785" x1="593.181" y1="260.079" x2="268.081" y2="339.069" gradientUnits="userSpaceOnUse">
<stop stop-color="white" stop-opacity="0"/>
<stop offset="1" stop-color="#9DC2E7"/>
</linearGradient>
<linearGradient id="paint17_linear_10594_785" x1="36.1389" y1="277.42" x2="361.239" y2="356.41" gradientUnits="userSpaceOnUse">
<stop stop-color="white" stop-opacity="0"/>
<stop offset="1" stop-color="#9DC2E7"/>
</linearGradient>
</defs>
</svg>
