<svg width="40" height="40" viewBox="0 0 40 40" fill="none" xmlns="http://www.w3.org/2000/svg">
<path d="M9.93499 30.451C13.0726 33.693 16.9325 36.1469 21.1995 37.6123C18.0769 39.6446 12.1672 37.7285 7.40595 32.9801C2.64466 28.2317 0.709183 22.322 2.74144 19.1865C4.21373 23.4579 6.6792 27.3186 9.93499 30.451Z" fill="url(#paint0_linear_10579_385)"/>
<path d="M32.4326 33.7734C32.147 34.3357 31.7747 34.8495 31.3293 35.296C29.51 37.1153 26.6777 37.625 23.4519 36.9863L22.8067 36.8508C22.5938 36.7992 22.3874 36.7476 22.1616 36.6831C18.4455 35.6443 14.3422 33.1992 10.7358 29.5863C7.12933 25.9734 4.68417 21.8766 3.63901 18.1605C3.57449 17.9476 3.51643 17.7411 3.46481 17.5153C3.4132 17.2895 3.36803 17.0895 3.32933 16.8702C2.68416 13.6443 3.2003 10.8121 5.01965 8.99273C5.46952 8.54675 5.9852 8.17249 6.54868 7.88306C6.25564 9.82411 6.38995 11.8057 6.94223 13.6895C7.14368 14.4565 7.39144 15.2106 7.68416 15.9476C7.76158 16.1476 7.85191 16.354 7.93578 16.554C8.01965 16.754 8.11643 16.9734 8.2132 17.1992C9.76268 20.4534 11.8747 23.4085 14.4519 25.9282C16.9591 28.4791 19.8938 30.5709 23.1229 32.1089L23.768 32.3863L24.3745 32.6379C25.1136 32.9248 25.8673 33.1725 26.6326 33.3798C27.9194 33.7337 29.2464 33.9202 30.5809 33.9347C31.2016 33.9331 31.821 33.8792 32.4326 33.7734Z" fill="url(#paint1_linear_10579_385)"/>
<path d="M37.8069 25.3023C37.8725 26.2968 37.7346 27.2943 37.4019 28.2339C37.0691 29.1734 36.5484 30.0352 35.8714 30.7668C35.4257 31.2177 34.9092 31.5925 34.3424 31.8765C34.1229 31.9956 33.8942 32.097 33.6585 32.1797C33.4374 32.2684 33.2112 32.3439 32.9811 32.4055C30.9804 32.8657 28.8941 32.7946 26.9295 32.1991C25.9823 31.9449 25.055 31.6215 24.1553 31.2313L23.5101 30.9345C23.2779 30.8184 23.0392 30.7087 22.8069 30.5861C17.2624 27.6569 12.7298 23.1242 9.80045 17.5797C9.67787 17.3474 9.56175 17.1087 9.45207 16.8765C9.34239 16.6442 9.25207 16.4378 9.16175 16.2313C8.77056 15.3335 8.44497 14.4085 8.18755 13.4636C7.59063 11.4967 7.52166 9.40745 7.98755 7.40551C8.05207 7.17325 8.12304 6.94744 8.20691 6.72809C8.29088 6.5075 8.38783 6.29207 8.49723 6.08293C8.78761 5.50901 9.16643 4.98432 9.61981 4.52809C10.3322 3.86752 11.1695 3.35602 12.0825 3.02364C12.9954 2.69126 13.9656 2.54471 14.9359 2.5926H15.0714C14.9162 2.71345 14.7696 2.84495 14.6327 2.98615C13.776 3.86056 13.193 4.96595 12.9553 6.1668C12.9166 6.35389 12.8843 6.54744 12.8521 6.74099C12.8198 6.93454 12.8069 7.12809 12.794 7.33454C12.4908 11.4184 14.8327 16.7603 19.2456 21.1732C23.4069 25.3345 28.394 27.6249 32.3746 27.6249C32.6134 27.6249 32.8456 27.6249 33.0779 27.6249C33.3101 27.6249 33.4843 27.6249 33.6843 27.5603C33.8861 27.5343 34.0864 27.4977 34.2843 27.4507C34.5932 27.3861 34.8972 27.2998 35.194 27.1926C36.0348 26.8945 36.7993 26.4142 37.4327 25.7861C37.5685 25.6337 37.6935 25.472 37.8069 25.3023Z" fill="url(#paint2_linear_10579_385)"/>
<path d="M38.0771 20.6831C38.0786 21.1287 38.0398 21.5736 37.961 22.0121C37.8938 22.4303 37.7791 22.8394 37.6191 23.2315C37.3785 23.8566 37.0117 24.4254 36.5417 24.9025C35.8373 25.5837 34.9571 26.0551 33.9997 26.2638C33.7997 26.3154 33.5997 26.3476 33.3933 26.3799C33.1868 26.4121 32.9933 26.4251 32.7481 26.4315C29.0707 26.6444 24.161 24.4057 20.0449 20.2896C15.9288 16.1734 13.6771 11.2573 13.8965 7.56699C13.9056 7.36613 13.925 7.16587 13.9546 6.96699C13.9806 6.77372 14.0172 6.58204 14.0642 6.39279C14.2622 5.41883 14.7371 4.52273 15.432 3.81215C15.8917 3.35288 16.4377 2.98893 17.0384 2.74118C17.4515 2.57447 17.8822 2.45542 18.3223 2.38634C18.7799 2.30254 19.2442 2.2615 19.7094 2.26376H20.1288C20.6772 2.28814 21.2229 2.355 21.761 2.46376C21.6215 2.53981 21.4878 2.62607 21.361 2.72183C21.1697 2.85404 20.9905 3.00302 20.8255 3.16699C20.6836 3.31196 20.5501 3.4649 20.4255 3.62505C19.4642 4.91537 19.2126 6.63795 19.5933 8.56053C19.6449 8.8272 19.7094 9.09172 19.7868 9.35408C19.8642 9.64441 19.961 9.94118 20.0707 10.2315C20.9612 12.5082 22.3296 14.5674 24.0836 16.2702C25.7838 18.0228 27.8411 19.3892 30.1159 20.2767C30.4126 20.3863 30.7029 20.4831 30.9933 20.5605C31.2604 20.6403 31.5318 20.7049 31.8062 20.7541C32.3453 20.8654 32.8944 20.9216 33.4449 20.9218C34.15 20.9307 34.851 20.8149 35.5158 20.5799C35.9507 20.4279 36.3597 20.2104 36.7288 19.9347C36.8912 19.8178 37.0424 19.6861 37.1804 19.5412C37.3367 19.3844 37.4812 19.2162 37.6126 19.038C37.7069 18.9101 37.793 18.7765 37.8707 18.638C37.9787 19.1805 38.0456 19.7305 38.0707 20.2831C38.0707 20.3863 38.0771 20.5476 38.0771 20.6831Z" fill="url(#paint3_linear_10579_385)"/>
<path d="M37.3042 15.8704C37.3042 16.0962 37.3042 16.3091 37.3042 16.5156C37.2601 16.9008 37.1646 17.2783 37.0203 17.6382C36.9262 17.8644 36.8095 18.0806 36.6719 18.2833C36.5662 18.4333 36.4474 18.5736 36.3171 18.7027L36.2397 18.7801C35.059 19.8833 33.0719 19.9866 30.8848 19.264C30.5623 19.1543 30.2397 19.0317 29.9042 18.8898C29.5687 18.7479 29.1494 18.5414 28.7687 18.335C25.9541 16.7678 23.6326 14.4464 22.0655 11.6317C21.859 11.2609 21.6717 10.8798 21.5042 10.4898C21.3623 10.1672 21.2397 9.84463 21.1365 9.5285C20.4139 7.3414 20.4913 5.35431 21.6074 4.16721L21.6913 4.08334C21.8221 3.9548 21.9622 3.8362 22.1106 3.7285C22.3112 3.58559 22.5277 3.46651 22.7558 3.37366C23.1175 3.23069 23.4976 3.13947 23.8848 3.10269C24.0881 3.07634 24.2928 3.06341 24.4978 3.06398C24.8565 3.06629 25.2146 3.09649 25.5687 3.15431C25.6913 3.15431 25.8203 3.19302 25.9494 3.21882C25.9259 3.24518 25.9043 3.27321 25.8848 3.30269C25.764 3.46467 25.6623 3.64002 25.5816 3.82527C25.4456 4.12802 25.348 4.44663 25.2913 4.77366C25.2573 5.00004 25.2401 5.22862 25.2397 5.45753C25.2336 5.70976 25.2465 5.96209 25.2784 6.21237C25.3177 6.52412 25.3803 6.8325 25.4655 7.13495C26.0156 8.97278 27.0312 10.6373 28.4139 11.9672C29.9406 13.6097 31.9608 14.7104 34.1687 15.1027C34.3825 15.1325 34.598 15.1475 34.8139 15.1479H34.8978C35.114 15.1466 35.3299 15.1271 35.5429 15.0898C35.8711 15.0381 36.1904 14.9404 36.4913 14.7995C36.6816 14.725 36.8599 14.6228 37.0203 14.4962C37.0533 14.4853 37.0824 14.4652 37.1042 14.4382C37.1042 14.5737 37.1558 14.7027 37.1752 14.8317C37.2448 15.1741 37.288 15.5214 37.3042 15.8704Z" fill="url(#paint4_linear_10579_385)"/>
<path d="M37.1479 12.2898C37.0993 12.4987 37.0188 12.6989 36.9092 12.8833C36.8699 12.9503 36.8268 13.0149 36.7801 13.0769C36.7277 13.1464 36.6717 13.2132 36.6124 13.2769L36.4898 13.3801C36.335 13.5146 36.1582 13.6215 35.9672 13.6962C35.6046 13.8427 35.2163 13.9151 34.8253 13.9091C34.5613 13.9048 34.298 13.8789 34.0382 13.8317C33.7195 13.7757 33.4065 13.6915 33.1027 13.5801C31.6639 13.0263 30.3572 12.1768 29.2671 11.0867C28.1769 9.99652 27.3275 8.68986 26.7737 7.25105C26.7221 7.10267 26.6834 6.96073 26.6382 6.80589C26.5952 6.64873 26.5607 6.48936 26.535 6.32847C26.4811 6.0717 26.453 5.81018 26.4511 5.54783C26.4413 5.15708 26.5115 4.76846 26.6575 4.40589C26.7374 4.22143 26.8439 4.0497 26.9737 3.89621C27.0068 3.85239 27.0435 3.81139 27.0834 3.77363C27.1417 3.71101 27.2066 3.65478 27.2769 3.60589C27.3344 3.55926 27.3948 3.51617 27.4575 3.47686C27.6447 3.36663 27.8468 3.28405 28.0575 3.2317C28.3176 3.17081 28.584 3.1405 28.8511 3.14138C29.0517 3.14183 29.2521 3.15476 29.4511 3.18009C31.3629 3.55824 33.11 4.52086 34.4511 5.93492C35.8687 7.26567 36.838 9.00376 37.2253 10.9091C37.2918 11.3699 37.2655 11.8393 37.1479 12.2898Z" fill="url(#paint5_linear_10579_385)"/>
<defs>
<linearGradient id="paint0_linear_10579_385" x1="1.93499" y1="28.7994" x2="21.1672" y2="28.7994" gradientUnits="userSpaceOnUse">
<stop stop-color="#F08504"/>
<stop offset="1" stop-color="#E5322D"/>
</linearGradient>
<linearGradient id="paint1_linear_10579_385" x1="3.10997" y1="22.5798" x2="32.4326" y2="22.5798" gradientUnits="userSpaceOnUse">
<stop stop-color="#E53282"/>
<stop offset="1" stop-color="#851D7B"/>
</linearGradient>
<linearGradient id="paint2_linear_10579_385" x1="7.64561" y1="17.6313" x2="37.8134" y2="17.6313" gradientUnits="userSpaceOnUse">
<stop stop-color="#3AB4E6"/>
<stop offset="1" stop-color="#004996"/>
</linearGradient>
<linearGradient id="paint3_linear_10579_385" x1="13.9158" y1="14.3541" x2="38.0771" y2="14.3541" gradientUnits="userSpaceOnUse">
<stop stop-color="#97BE11"/>
<stop offset="1" stop-color="#258F2D"/>
</linearGradient>
<linearGradient id="paint4_linear_10579_385" x1="20.6397" y1="11.3866" x2="37.3042" y2="11.3866" gradientUnits="userSpaceOnUse">
<stop stop-color="#F08504"/>
<stop offset="1" stop-color="#E5322D"/>
</linearGradient>
<linearGradient id="paint5_linear_10579_385" x1="26.4511" y1="8.50912" x2="37.2446" y2="8.50912" gradientUnits="userSpaceOnUse">
<stop stop-color="#E53282"/>
<stop offset="1" stop-color="#851D7B"/>
</linearGradient>
</defs>
</svg>
