<svg width="879" height="189" viewBox="0 0 879 189" fill="none" xmlns="http://www.w3.org/2000/svg">
<path d="M293.832 46.3028C293.542 43.3836 292.3 41.1159 290.104 39.4995C287.909 37.8832 284.93 37.075 281.166 37.075C278.609 37.075 276.45 37.4368 274.688 38.1606C272.927 38.8602 271.576 39.8373 270.635 41.0918C269.719 42.3463 269.26 43.7696 269.26 45.3619C269.212 46.6888 269.49 47.8468 270.093 48.8359C270.72 49.825 271.576 50.6814 272.662 51.4052C273.748 52.1048 275.002 52.72 276.425 53.2507C277.849 53.7574 279.369 54.1916 280.985 54.5535L287.644 56.1457C290.876 56.8695 293.844 57.8345 296.546 59.0407C299.248 60.247 301.588 61.7307 303.566 63.4918C305.544 65.2529 307.076 67.3277 308.162 69.716C309.272 72.1044 309.839 74.8426 309.863 77.9306C309.839 82.4661 308.681 86.3984 306.389 89.7277C304.121 93.0328 300.84 95.6021 296.546 97.4356C292.276 99.245 287.125 100.15 281.094 100.15C275.111 100.15 269.9 99.2329 265.461 97.3994C261.046 95.5659 257.596 92.8518 255.111 89.2572C252.65 85.6385 251.36 81.1633 251.239 75.8317H266.402C266.57 78.3166 267.282 80.3913 268.537 82.0559C269.815 83.6964 271.516 84.9389 273.639 85.7832C275.786 86.6035 278.211 87.0136 280.913 87.0136C283.566 87.0136 285.87 86.6276 287.825 85.8556C289.803 85.0836 291.335 84.0101 292.42 82.6349C293.506 81.2598 294.049 79.6796 294.049 77.8944C294.049 76.2298 293.554 74.8305 292.565 73.6966C291.6 72.5628 290.177 71.5978 288.295 70.8016C286.437 70.0055 284.158 69.2818 281.456 68.6304L273.386 66.6039C267.137 65.084 262.204 62.7077 258.585 59.475C254.966 56.2422 253.169 51.8877 253.193 46.4113C253.169 41.9241 254.363 38.0038 256.776 34.6504C259.212 31.297 262.554 28.6795 266.8 26.7977C271.046 24.916 275.871 23.9751 281.275 23.9751C286.775 23.9751 291.576 24.916 295.677 26.7977C299.803 28.6795 303.011 31.297 305.303 34.6504C307.595 38.0038 308.777 41.8879 308.849 46.3028H293.832ZM335.529 66.9658V99.1002H320.113V24.9884H335.094V53.3231H335.746C337 50.0421 339.027 47.4728 341.825 45.6152C344.624 43.7335 348.134 42.7926 352.356 42.7926C356.216 42.7926 359.581 43.637 362.452 45.3257C365.347 46.9903 367.591 49.3908 369.183 52.527C370.799 55.6391 371.595 59.3664 371.571 63.7089V99.1002H356.155V66.4592C356.18 63.0334 355.311 60.3676 353.55 58.4617C351.813 56.5559 349.376 55.6029 346.24 55.6029C344.141 55.6029 342.284 56.0492 340.667 56.9419C339.075 57.8345 337.82 59.1372 336.904 60.8501C336.011 62.5389 335.553 64.5774 335.529 66.9658ZM409.034 100.186C403.317 100.186 398.395 99.0278 394.27 96.7118C390.169 94.3717 387.008 91.0666 384.789 86.7965C382.569 82.5022 381.459 77.4239 381.459 71.5616C381.459 65.844 382.569 60.826 384.789 56.5076C387.008 52.1893 390.132 48.8238 394.161 46.4113C398.214 43.9988 402.967 42.7926 408.419 42.7926C412.086 42.7926 415.5 43.3836 418.66 44.5658C421.845 45.7238 424.619 47.4728 426.983 49.8129C429.372 52.1531 431.229 55.0963 432.556 58.6427C433.883 62.1649 434.546 66.2903 434.546 71.0188V75.2527H387.611V65.6992H420.035C420.035 63.4797 419.553 61.5135 418.588 59.8007C417.623 58.0878 416.284 56.7489 414.571 55.7839C412.882 54.7947 410.916 54.3002 408.672 54.3002C406.332 54.3002 404.258 54.843 402.448 55.9286C400.663 56.9901 399.264 58.4255 398.25 60.2349C397.237 62.0202 396.718 64.0105 396.694 66.2058V75.2889C396.694 78.0391 397.201 80.4154 398.214 82.4178C399.252 84.4202 400.711 85.9642 402.593 87.0498C404.475 88.1354 406.706 88.6782 409.288 88.6782C411 88.6782 412.569 88.437 413.992 87.9545C415.415 87.472 416.634 86.7482 417.647 85.7832C418.66 84.8182 419.432 83.6361 419.963 82.2369L434.221 83.1777C433.497 86.6035 432.013 89.595 429.77 92.1522C427.55 94.6853 424.679 96.6636 421.157 98.087C417.659 99.4862 413.618 100.186 409.034 100.186ZM444.606 99.1002V43.5163H459.552V53.2146H460.131C461.144 49.7647 462.845 47.1592 465.233 45.3981C467.622 43.6128 470.372 42.7202 473.484 42.7202C474.256 42.7202 475.088 42.7685 475.981 42.865C476.874 42.9615 477.658 43.0941 478.333 43.263V56.9419C477.609 56.7247 476.608 56.5317 475.33 56.3629C474.051 56.194 472.881 56.1096 471.819 56.1096C469.552 56.1096 467.525 56.6041 465.74 57.5932C463.979 58.5582 462.58 59.9092 461.542 61.6462C460.529 63.3832 460.022 65.3856 460.022 67.6533V99.1002H444.606ZM500.561 100.15C497.015 100.15 493.855 99.5345 491.08 98.3041C488.306 97.0496 486.11 95.204 484.494 92.7674C482.902 90.3067 482.106 87.2428 482.106 83.5758C482.106 80.4878 482.673 77.8944 483.807 75.7955C484.94 73.6966 486.484 72.0079 488.438 70.7293C490.393 69.4506 492.612 68.4856 495.097 67.8343C497.606 67.1829 500.236 66.7245 502.986 66.4592C506.219 66.1214 508.824 65.8078 510.802 65.5183C512.781 65.2047 514.216 64.7463 515.109 64.1432C516.001 63.54 516.448 62.6474 516.448 61.4653V61.2482C516.448 58.9563 515.724 57.1831 514.276 55.9286C512.853 54.6741 510.826 54.0469 508.197 54.0469C505.422 54.0469 503.215 54.6621 501.575 55.8924C499.934 57.0987 498.848 58.6185 498.318 60.452L484.06 59.294C484.784 55.9166 486.207 52.9974 488.33 50.5367C490.453 48.0518 493.191 46.1459 496.544 44.8191C499.922 43.4681 503.83 42.7926 508.269 42.7926C511.357 42.7926 514.312 43.1545 517.135 43.8782C519.982 44.602 522.503 45.7238 524.698 47.2436C526.918 48.7635 528.667 50.7176 529.945 53.106C531.224 55.4702 531.863 58.3049 531.863 61.61V99.1002H517.244V91.3923H516.809C515.917 93.1293 514.723 94.6612 513.227 95.9881C511.731 97.2908 509.934 98.3161 507.835 99.064C505.736 99.7878 503.312 100.15 500.561 100.15ZM504.976 89.5105C507.244 89.5105 509.246 89.0642 510.983 88.1716C512.72 87.2549 514.083 86.0245 515.072 84.4805C516.062 82.9365 516.556 81.1874 516.556 79.2333V73.3348C516.074 73.6484 515.41 73.9379 514.566 74.2033C513.746 74.4445 512.817 74.6737 511.779 74.8908C510.742 75.0838 509.705 75.2648 508.667 75.4336C507.63 75.5784 506.689 75.7111 505.845 75.8317C504.035 76.0971 502.455 76.5193 501.104 77.0983C499.753 77.6773 498.704 78.4613 497.956 79.4504C497.208 80.4154 496.834 81.6217 496.834 83.0692C496.834 85.168 497.594 86.7724 499.114 87.8821C500.658 88.9677 502.612 89.5105 504.976 89.5105ZM543.823 99.1002V43.5163H559.239V99.1002H543.823ZM551.567 36.3512C549.276 36.3512 547.309 35.5913 545.669 34.0714C544.052 32.5274 543.244 30.6819 543.244 28.5347C543.244 26.4117 544.052 24.5903 545.669 23.0704C547.309 21.5264 549.276 20.7544 551.567 20.7544C553.859 20.7544 555.813 21.5264 557.43 23.0704C559.07 24.5903 559.891 26.4117 559.891 28.5347C559.891 30.6819 559.07 32.5274 557.43 34.0714C555.813 35.5913 553.859 36.3512 551.567 36.3512ZM587.438 100.15C583.892 100.15 580.731 99.5345 577.957 98.3041C575.183 97.0496 572.987 95.204 571.371 92.7674C569.779 90.3067 568.983 87.2428 568.983 83.5758C568.983 80.4878 569.55 77.8944 570.683 75.7955C571.817 73.6966 573.361 72.0079 575.315 70.7293C577.27 69.4506 579.489 68.4856 581.974 67.8343C584.483 67.1829 587.113 66.7245 589.863 66.4592C593.095 66.1214 595.701 65.8078 597.679 65.5183C599.657 65.2047 601.093 64.7463 601.986 64.1432C602.878 63.54 603.324 62.6474 603.324 61.4653V61.2482C603.324 58.9563 602.601 57.1831 601.153 55.9286C599.73 54.6741 597.703 54.0469 595.074 54.0469C592.299 54.0469 590.092 54.6621 588.451 55.8924C586.811 57.0987 585.725 58.6185 585.195 60.452L570.937 59.294C571.66 55.9166 573.084 52.9974 575.207 50.5367C577.33 48.0518 580.068 46.1459 583.421 44.8191C586.799 43.4681 590.707 42.7926 595.146 42.7926C598.234 42.7926 601.189 43.1545 604.012 43.8782C606.859 44.602 609.38 45.7238 611.575 47.2436C613.795 48.7635 615.544 50.7176 616.822 53.106C618.101 55.4702 618.74 58.3049 618.74 61.61V99.1002H604.121V91.3923H603.686C602.794 93.1293 601.6 94.6612 600.104 95.9881C598.608 97.2908 596.811 98.3161 594.712 99.064C592.613 99.7878 590.188 100.15 587.438 100.15ZM591.853 89.5105C594.121 89.5105 596.123 89.0642 597.86 88.1716C599.597 87.2549 600.96 86.0245 601.949 84.4805C602.938 82.9365 603.433 81.1874 603.433 79.2333V73.3348C602.951 73.6484 602.287 73.9379 601.443 74.2033C600.622 74.4445 599.694 74.6737 598.656 74.8908C597.619 75.0838 596.582 75.2648 595.544 75.4336C594.507 75.5784 593.566 75.7111 592.722 75.8317C590.912 76.0971 589.332 76.5193 587.981 77.0983C586.63 77.6773 585.581 78.4613 584.833 79.4504C584.085 80.4154 583.711 81.6217 583.711 83.0692C583.711 85.168 584.471 86.7724 585.991 87.8821C587.535 88.9677 589.489 89.5105 591.853 89.5105ZM646.116 66.9658V99.1002H630.7V43.5163H645.392V53.3231H646.044C647.274 50.0904 649.337 47.5331 652.232 45.6514C655.127 43.7455 658.637 42.7926 662.762 42.7926C666.622 42.7926 669.988 43.637 672.859 45.3257C675.729 47.0144 677.961 49.4269 679.553 52.5632C681.146 55.6753 681.942 59.3905 681.942 63.7089V99.1002H666.526V66.4592C666.55 63.0575 665.681 60.4038 663.92 58.4979C662.159 56.5679 659.735 55.6029 656.647 55.6029C654.572 55.6029 652.738 56.0492 651.146 56.9419C649.578 57.8345 648.348 59.1372 647.455 60.8501C646.587 62.5389 646.14 64.5774 646.116 66.9658Z" fill="#284767"/>
<path d="M694.145 99.1022V24.9904H709.814V86.1833H741.587V99.1022H694.145ZM739.886 37.9093V24.9904H800.753V37.9093H778.064V99.1022H762.576V37.9093H739.886ZM837.049 99.1022H810.777V24.9904H837.266C844.721 24.9904 851.138 26.4741 856.518 29.4414C861.898 32.3847 866.035 36.6186 868.93 42.1432C871.85 47.6678 873.309 54.2781 873.309 61.9739C873.309 69.6939 871.85 76.3283 868.93 81.877C866.035 87.4257 861.874 91.6838 856.446 94.6512C851.042 97.6185 844.576 99.1022 837.049 99.1022ZM826.446 85.6767H836.398C841.03 85.6767 844.926 84.8564 848.086 83.2159C851.271 81.5513 853.659 78.982 855.252 75.508C856.868 72.0099 857.676 67.4985 857.676 61.9739C857.676 56.4976 856.868 52.0224 855.252 48.5484C853.659 45.0744 851.283 42.5171 848.123 40.8766C844.962 39.2362 841.066 38.4159 836.434 38.4159H826.446V85.6767Z" fill="#F68F51"/>
<path d="M5.70084 92.5C4.80084 93.4 3.80083 94.9 2.90083 94.9C2.00083 94.9 0.100837 93.5 0.100837 92.5C-0.399163 90.1 1.00083 88.2 3.40083 89.2C4.20083 89.1 4.70084 91 5.70084 92.5Z" fill="#232323"/>
<path d="M85.3009 141.3H74.9009V151.7H85.3009V141.3Z" fill="#284867"/>
<mask id="mask0_7_83" style="mask-type:luminance" maskUnits="userSpaceOnUse" x="74" y="141" width="12" height="11">
<path d="M85.3009 141.3H74.9009V151.7H85.3009V141.3Z" fill="white"/>
</mask>
<g mask="url(#mask0_7_83)">
<path d="M79.2009 136.1L70.2009 147.5L81.6009 156.5L90.6009 145.1L79.2009 136.1Z" fill="#284867"/>
</g>
<path d="M85.3008 107.6H76.3008V116.6H85.3008V107.6Z" fill="#284867"/>
<mask id="mask1_7_83" style="mask-type:luminance" maskUnits="userSpaceOnUse" x="76" y="107" width="10" height="10">
<path d="M85.3008 107.6H76.3008V116.6H85.3008V107.6Z" fill="white"/>
</mask>
<g mask="url(#mask1_7_83)">
<path d="M79.7008 103.4L72.1008 113.4L82.1008 121L89.7008 111L79.7008 103.4Z" fill="#284867"/>
</g>
<path d="M62.1008 95.3H49.8008V107.6H62.1008V95.3Z" fill="#284867"/>
<mask id="mask2_7_83" style="mask-type:luminance" maskUnits="userSpaceOnUse" x="49" y="95" width="14" height="13">
<path d="M62.1008 95.3H49.8008V107.6H62.1008V95.3Z" fill="white"/>
</mask>
<g mask="url(#mask2_7_83)">
<path d="M54.5008 89.1L43.6008 102.9L57.4008 113.8L68.3008 100L54.5008 89.1Z" fill="#284867"/>
</g>
<path d="M68.3009 121.4H60.2009V129.5H68.3009V121.4Z" fill="#284867"/>
<mask id="mask3_7_83" style="mask-type:luminance" maskUnits="userSpaceOnUse" x="60" y="121" width="9" height="9">
<path d="M68.3009 121.4H60.2009V129.5H68.3009V121.4Z" fill="white"/>
</mask>
<g mask="url(#mask3_7_83)">
<path d="M63.5009 117.6L56.4009 126.6L65.4009 133.7L72.5009 124.7L63.5009 117.6Z" fill="#284867"/>
</g>
<path d="M66.4008 16.6H43.6008V30.8H66.4008V16.6Z" fill="#284867"/>
<mask id="mask4_7_83" style="mask-type:luminance" maskUnits="userSpaceOnUse" x="43" y="16" width="24" height="15">
<path d="M66.4008 16.6H43.6008V30.8H66.4008V16.6Z" fill="white"/>
</mask>
<g mask="url(#mask4_7_83)">
<path d="M50.7008 30.3C82.5008 30.3 27.9008 30.3 59.7008 30.3C63.5008 30.3 66.8008 27 66.8008 23.2C66.8008 19.4 63.5008 16.1 59.7008 16.1C27.9008 16.1 82.9008 16.1 50.7008 16.1C46.9008 16.1 43.6008 19.4 43.6008 23.2C43.6008 27 46.9008 30.3 50.7008 30.3Z" fill="#284867"/>
<mask id="mask5_7_83" style="mask-type:luminance" maskUnits="userSpaceOnUse" x="43" y="16" width="24" height="15">
<path d="M50.7008 30.3C82.5008 30.3 27.9008 30.3 59.7008 30.3C63.5008 30.3 66.8008 27 66.8008 23.2C66.8008 19.4 63.5008 16.1 59.7008 16.1C27.9008 16.1 82.9008 16.1 50.7008 16.1C46.9008 16.1 43.6008 19.4 43.6008 23.2C43.6008 27 46.9008 30.3 50.7008 30.3Z" fill="white"/>
</mask>
<g mask="url(#mask5_7_83)">
<path d="M50.7008 30.3C82.5008 30.3 27.9008 30.3 59.7008 30.3C63.5008 30.3 66.8008 27 66.8008 23.2C66.8008 19.4 63.5008 16.1 59.7008 16.1C27.9008 16.1 82.9008 16.1 50.7008 16.1C46.9008 16.1 43.6008 19.4 43.6008 23.2C43.6008 27 46.9008 30.3 50.7008 30.3Z" fill="#284867"/>
<mask id="mask6_7_83" style="mask-type:luminance" maskUnits="userSpaceOnUse" x="43" y="16" width="24" height="15">
<path d="M50.7008 30.3C82.5008 30.3 27.9008 30.3 59.7008 30.3C63.5008 30.3 66.8008 27 66.8008 23.2C66.8008 19.4 63.5008 16.1 59.7008 16.1C27.9008 16.1 82.9008 16.1 50.7008 16.1C46.9008 16.1 43.6008 19.4 43.6008 23.2C43.6008 27 46.9008 30.3 50.7008 30.3Z" fill="white"/>
</mask>
<g mask="url(#mask6_7_83)">
<path d="M48.8008 -10.5L20.8008 24.6L61.1008 56.9L89.1008 21.8L48.8008 -10.5Z" fill="#284867"/>
</g>
</g>
</g>
<path d="M31.3007 44.1H8.50073V58.3H31.3007V44.1Z" fill="#284867"/>
<mask id="mask7_7_83" style="mask-type:luminance" maskUnits="userSpaceOnUse" x="8" y="44" width="24" height="15">
<path d="M31.3007 44.1H8.50073V58.3H31.3007V44.1Z" fill="white"/>
</mask>
<g mask="url(#mask7_7_83)">
<path d="M15.1007 58.3C46.9007 58.3 -7.69926 58.3 24.1007 58.3C27.9007 58.3 31.2007 55 31.2007 51.2C31.2007 47.4 28.4007 44.1 24.1007 44.1C-7.69926 44.1 46.9007 44.1 15.1007 44.1C11.3007 44.1 8.00073 46.9 8.00073 51.2C8.50073 55 11.3007 58.3 15.1007 58.3Z" fill="#284867"/>
<mask id="mask8_7_83" style="mask-type:luminance" maskUnits="userSpaceOnUse" x="8" y="44" width="24" height="15">
<path d="M15.1007 58.3C46.9007 58.3 -7.69926 58.3 24.1007 58.3C27.9007 58.3 31.2007 55 31.2007 51.2C31.2007 47.4 28.4007 44.1 24.1007 44.1C-7.69926 44.1 46.9007 44.1 15.1007 44.1C11.3007 44.1 8.00073 46.9 8.00073 51.2C8.50073 55 11.3007 58.3 15.1007 58.3Z" fill="white"/>
</mask>
<g mask="url(#mask8_7_83)">
<path d="M15.1007 58.3C46.9007 58.3 -7.69926 58.3 24.1007 58.3C27.9007 58.3 31.2007 55 31.2007 51.2C31.2007 47.4 28.4007 44.1 24.1007 44.1C-7.69926 44.1 46.9007 44.1 15.1007 44.1C11.3007 44.1 8.00073 46.9 8.00073 51.2C8.50073 55 11.3007 58.3 15.1007 58.3Z" fill="#284867"/>
<mask id="mask9_7_83" style="mask-type:luminance" maskUnits="userSpaceOnUse" x="8" y="44" width="24" height="15">
<path d="M15.1007 58.3C46.9007 58.3 -7.69926 58.3 24.1007 58.3C27.9007 58.3 31.2007 55 31.2007 51.2C31.2007 47.4 28.4007 44.1 24.1007 44.1C-7.69926 44.1 46.9007 44.1 15.1007 44.1C11.3007 44.1 8.00073 46.9 8.00073 51.2C8.50073 55 11.3007 58.3 15.1007 58.3Z" fill="white"/>
</mask>
<g mask="url(#mask9_7_83)">
<path d="M13.7007 17.5L-14.2993 52.6L26.0007 84.9L54.0007 49.8L13.7007 17.5Z" fill="#284867"/>
</g>
</g>
</g>
<path d="M135.601 101.5H130.401V106.7H135.601V101.5Z" fill="#284867"/>
<mask id="mask10_7_83" style="mask-type:luminance" maskUnits="userSpaceOnUse" x="130" y="101" width="6" height="6">
<path d="M135.601 101.5H130.401V106.7H135.601V101.5Z" fill="white"/>
</mask>
<g mask="url(#mask10_7_83)">
<path d="M132.301 99.1L127.601 104.8L133.301 109.5L138.001 103.8L132.301 99.1Z" fill="#284867"/>
</g>
<path d="M91.5009 72.1H65.9009V86.3H91.5009V72.1Z" fill="#284867"/>
<mask id="mask11_7_83" style="mask-type:luminance" maskUnits="userSpaceOnUse" x="65" y="72" width="27" height="15">
<path d="M91.5009 72.1H65.9009V86.3H91.5009V72.1Z" fill="white"/>
</mask>
<g mask="url(#mask11_7_83)">
<path d="M73.0009 85.8C104.801 85.8 52.6009 85.8 84.4009 85.8C88.2009 85.8 91.5009 82.5 91.5009 78.7C91.5009 74.9 88.7009 71.6 84.4009 71.6C52.6009 71.6 104.801 71.6 73.0009 71.6C69.2009 71.6 65.9009 74.4 65.9009 78.7C65.9009 83 69.2009 85.8 73.0009 85.8Z" fill="#284867"/>
<mask id="mask12_7_83" style="mask-type:luminance" maskUnits="userSpaceOnUse" x="65" y="71" width="27" height="15">
<path d="M73.0009 85.8C104.801 85.8 52.6009 85.8 84.4009 85.8C88.2009 85.8 91.5009 82.5 91.5009 78.7C91.5009 74.9 88.7009 71.6 84.4009 71.6C52.6009 71.6 104.801 71.6 73.0009 71.6C69.2009 71.6 65.9009 74.4 65.9009 78.7C65.9009 83 69.2009 85.8 73.0009 85.8Z" fill="white"/>
</mask>
<g mask="url(#mask12_7_83)">
<path d="M73.0009 85.8C104.801 85.8 52.6009 85.8 84.4009 85.8C88.2009 85.8 91.5009 82.5 91.5009 78.7C91.5009 74.9 88.7009 71.6 84.4009 71.6C52.6009 71.6 104.801 71.6 73.0009 71.6C69.2009 71.6 65.9009 74.4 65.9009 78.7C65.9009 83 69.2009 85.8 73.0009 85.8Z" fill="#284867"/>
<mask id="mask13_7_83" style="mask-type:luminance" maskUnits="userSpaceOnUse" x="65" y="71" width="27" height="15">
<path d="M73.0009 85.8C104.801 85.8 52.6009 85.8 84.4009 85.8C88.2009 85.8 91.5009 82.5 91.5009 78.7C91.5009 74.9 88.7009 71.6 84.4009 71.6C52.6009 71.6 104.801 71.6 73.0009 71.6C69.2009 71.6 65.9009 74.4 65.9009 78.7C65.9009 83 69.2009 85.8 73.0009 85.8Z" fill="white"/>
</mask>
<g mask="url(#mask13_7_83)">
<path d="M72.501 46.5L45.501 80.7L84.401 111.5L111.401 77.3L72.501 46.5Z" fill="#284867"/>
</g>
</g>
</g>
<mask id="mask14_7_83" style="mask-type:luminance" maskUnits="userSpaceOnUse" x="76" y="0" width="148" height="59">
<path d="M223.801 0H76.3008V58.3H223.801V0Z" fill="white"/>
</mask>
<g mask="url(#mask14_7_83)">
<path d="M83.4007 30.3C124.201 30.3 103.801 30.3 144.601 30.3C145.101 30.3 145.501 30.3 146.001 30.3H172.601C173.101 30.3 173.101 30.3 173.501 30.3C174.001 30.3 174.001 30.3 174.401 30.3C179.601 30.3 183.901 34.6 183.901 39.3V58.3H223.701V51.2C223.701 37 222.301 27 219.401 20.8C216.601 14.6 210.901 9.89999 202.301 6.09999C193.801 2.29999 183.301 0.399994 171.001 0.399994C160.101 0.399994 150.601 2.29999 142.501 5.59999C136.301 8.39999 131.601 11.8 128.301 16.5H82.8007C79.0007 16.5 75.7007 19.3 75.7007 23.6C76.8007 27 79.7007 30.3 83.4007 30.3Z" fill="#284867"/>
<mask id="mask15_7_83" style="mask-type:luminance" maskUnits="userSpaceOnUse" x="75" y="0" width="149" height="59">
<path d="M83.4007 30.3C124.201 30.3 103.801 30.3 144.601 30.3C145.101 30.3 145.501 30.3 146.001 30.3H172.601C173.101 30.3 173.101 30.3 173.501 30.3C174.001 30.3 174.001 30.3 174.401 30.3C179.601 30.3 183.901 34.6 183.901 39.3V58.3H223.701V51.2C223.701 37 222.301 27 219.401 20.8C216.601 14.6 210.901 9.89999 202.301 6.09999C193.801 2.29999 183.301 0.399994 171.001 0.399994C160.101 0.399994 150.601 2.29999 142.501 5.59999C136.301 8.39999 131.601 11.8 128.301 16.5H82.8007C79.0007 16.5 75.7007 19.3 75.7007 23.6C76.8007 27 79.7007 30.3 83.4007 30.3Z" fill="white"/>
</mask>
<g mask="url(#mask15_7_83)">
<path d="M83.4007 30.3C124.201 30.3 103.801 30.3 144.601 30.3C145.101 30.3 145.501 30.3 146.001 30.3H172.601C173.101 30.3 173.101 30.3 173.501 30.3C174.001 30.3 174.001 30.3 174.401 30.3C179.601 30.3 183.901 34.6 183.901 39.3V58.3H223.701V51.2C223.701 37 222.301 27 219.401 20.8C216.601 14.6 210.901 9.89999 202.301 6.09999C193.801 2.29999 183.301 0.399994 171.001 0.399994C160.101 0.399994 150.601 2.29999 142.501 5.59999C136.301 8.39999 131.601 11.8 128.301 16.5H82.8007C79.0007 16.5 75.7007 19.3 75.7007 23.6C76.8007 27 79.7007 30.3 83.4007 30.3Z" fill="#284867"/>
<mask id="mask16_7_83" style="mask-type:luminance" maskUnits="userSpaceOnUse" x="75" y="0" width="149" height="59">
<path d="M83.4007 30.3C124.201 30.3 103.801 30.3 144.601 30.3C145.101 30.3 145.501 30.3 146.001 30.3H172.601C173.101 30.3 173.101 30.3 173.501 30.3C174.001 30.3 174.001 30.3 174.401 30.3C179.601 30.3 183.901 34.6 183.901 39.3V58.3H223.701V51.2C223.701 37 222.301 27 219.401 20.8C216.601 14.6 210.901 9.89999 202.301 6.09999C193.801 2.29999 183.301 0.399994 171.001 0.399994C160.101 0.399994 150.601 2.29999 142.501 5.59999C136.301 8.39999 131.601 11.8 128.301 16.5H82.8007C79.0007 16.5 75.7007 19.3 75.7007 23.6C76.8007 27 79.7007 30.3 83.4007 30.3Z" fill="white"/>
</mask>
<g mask="url(#mask16_7_83)">
<path d="M133.201 -71.2L48.3008 36L167.401 129.9L252.301 22.2L133.201 -71.2Z" fill="#284867"/>
</g>
</g>
</g>
<path d="M181.201 58.8H180.301V58.3L181.201 58.8Z" fill="#121210"/>
<mask id="mask17_7_83" style="mask-type:luminance" maskUnits="userSpaceOnUse" x="42" y="44" width="186" height="145">
<path d="M227.701 44.1H42.2009V188.3H227.701V44.1Z" fill="white"/>
</mask>
<g mask="url(#mask17_7_83)">
<mask id="mask18_7_83" style="mask-type:luminance" maskUnits="userSpaceOnUse" x="42" y="44" width="190" height="149">
<path d="M159.301 168.4H163.601V164.1H159.301V168.4ZM146.101 152.2H155.101V143.2H146.101V152.2ZM182.101 70.7C183.501 71.6 185.401 72.6 186.801 73.5L187.701 74.4L188.201 74.9H188.701L189.201 75.4L189.701 75.9L190.201 76.4L190.701 76.9L191.601 77.8H192.101L192.601 78.3H193.101L193.601 78.8H194.101L194.601 79.3V79.8L195.101 80.3H195.601L196.101 80.8H196.601L197.101 81.3H197.601L198.101 81.8H198.601L199.101 82.3H199.601L200.101 82.8L200.601 83.3H201.101L201.601 83.8L202.101 84.3L202.601 84.8L203.101 85.3L203.601 85.8L204.101 86.3L204.601 86.8H205.101L205.601 87.3H206.101L206.601 87.8H207.101L207.601 88.3L208.101 88.8L208.601 89.3L209.101 89.8L209.601 90.3C216.201 95.5 221.001 99.8 223.801 104.1C229.501 112.2 231.901 125 231.901 142.5C231.901 155.3 230.501 164.8 227.201 171C224.401 177.2 218.201 182.4 209.701 186.2C201.201 190.5 191.201 192.4 179.801 192.4C167.001 192.4 156.601 190 147.501 185.3C138.501 180.6 132.801 174.4 130.001 167.3C129.501 166.4 129.101 164.9 129.101 163.5H138.601V147.4H123.401V156.9H113.901V153.1C113.901 146.9 103.901 139.3 98.201 139.3H91.101V125.1H105.301V132.7C105.301 137.4 114.301 147.4 119.101 147.4H123.401V135.1C123.401 127.5 108.701 110.9 100.601 110.9H92.501V94.8H108.601V97.6C108.601 107.6 125.201 120.4 134.701 120.4H146.101V131.3H159.401V112.3H151.301V120.4H165.501V135.6H160.301V145.1H166.001C166.001 150.3 166.901 154.1 167.901 155.5C169.301 157.4 171.201 158.3 174.501 158.3C177.301 158.3 179.701 156.9 181.601 154.5C183.001 152.1 184.001 148.3 184.001 143.6C184.001 133.2 182.601 126.1 179.701 122.7C176.801 119.3 169.301 114.2 157.901 106.6C146.501 99 138.501 93.3 134.701 89.5C133.801 88.6 132.801 87.6 131.901 86.7H111.501C107.701 86.7 104.401 83.4 104.401 79.6C104.401 75.8 107.201 72.5 111.501 72.5C124.801 72.5 112.001 72.5 124.801 72.5C128.601 72.5 131.901 69.2 131.901 65.4C131.901 61.6 128.601 58.3 124.801 58.3C91.101 58.3 83.501 58.3 49.901 58.3C46.101 58.3 42.801 55 42.801 51.2C42.801 47.4 45.601 44.1 49.901 44.1H121.501H166.101V45C166.101 45.5 166.101 46.4 166.101 46.9V48.3C166.601 52.6 167.001 55.9 168.501 58.3C169.901 61.1 173.701 64.5 180.801 69.2L182.101 70.7Z" fill="white"/>
</mask>
<g mask="url(#mask18_7_83)">
<mask id="mask19_7_83" style="mask-type:luminance" maskUnits="userSpaceOnUse" x="42" y="44" width="190" height="149">
<path d="M159.301 168.4H163.601V164.1H159.301V168.4ZM146.101 152.2H155.101V143.2H146.101V152.2ZM182.101 70.7C183.501 71.6 185.401 72.6 186.801 73.5L187.701 74.4L188.201 74.9H188.701L189.201 75.4L189.701 75.9L190.201 76.4L190.701 76.9L191.601 77.8H192.101L192.601 78.3H193.101L193.601 78.8H194.101L194.601 79.3V79.8L195.101 80.3H195.601L196.101 80.8H196.601L197.101 81.3H197.601L198.101 81.8H198.601L199.101 82.3H199.601L200.101 82.8L200.601 83.3H201.101L201.601 83.8L202.101 84.3L202.601 84.8L203.101 85.3L203.601 85.8L204.101 86.3L204.601 86.8H205.101L205.601 87.3H206.101L206.601 87.8H207.101L207.601 88.3L208.101 88.8L208.601 89.3L209.101 89.8L209.601 90.3C216.201 95.5 221.001 99.8 223.801 104.1C229.501 112.2 231.901 125 231.901 142.5C231.901 155.3 230.501 164.8 227.201 171C224.401 177.2 218.201 182.4 209.701 186.2C201.201 190.5 191.201 192.4 179.801 192.4C167.001 192.4 156.601 190 147.501 185.3C138.501 180.6 132.801 174.4 130.001 167.3C129.501 166.4 129.101 164.9 129.101 163.5H138.601V147.4H123.401V156.9H113.901V153.1C113.901 146.9 103.901 139.3 98.201 139.3H91.101V125.1H105.301V132.7C105.301 137.4 114.301 147.4 119.101 147.4H123.401V135.1C123.401 127.5 108.701 110.9 100.601 110.9H92.501V94.8H108.601V97.6C108.601 107.6 125.201 120.4 134.701 120.4H146.101V131.3H159.401V112.3H151.301V120.4H165.501V135.6H160.301V145.1H166.001C166.001 150.3 166.901 154.1 167.901 155.5C169.301 157.4 171.201 158.3 174.501 158.3C177.301 158.3 179.701 156.9 181.601 154.5C183.001 152.1 184.001 148.3 184.001 143.6C184.001 133.2 182.601 126.1 179.701 122.7C176.801 119.3 169.301 114.2 157.901 106.6C146.501 99 138.501 93.3 134.701 89.5C133.801 88.6 132.801 87.6 131.901 86.7H111.501C107.701 86.7 104.401 83.4 104.401 79.6C104.401 75.8 107.201 72.5 111.501 72.5C124.801 72.5 112.001 72.5 124.801 72.5C128.601 72.5 131.901 69.2 131.901 65.4C131.901 61.6 128.601 58.3 124.801 58.3C91.101 58.3 83.501 58.3 49.901 58.3C46.101 58.3 42.801 55 42.801 51.2C42.801 47.4 45.601 44.1 49.901 44.1H121.501H166.101V45C166.101 45.5 166.101 46.4 166.101 46.9V48.3C166.601 52.6 167.001 55.9 168.501 58.3C169.901 61.1 173.701 64.5 180.801 69.2L182.101 70.7Z" fill="white"/>
</mask>
<g mask="url(#mask19_7_83)">
<path d="M106.201 276L295.901 138.4L164.101 -44.1L-25.5989 93.4L106.201 276Z" fill="url(#paint0_linear_7_83)"/>
</g>
</g>
</g>
<path d="M261.187 123.91V121.004H281.478V123.91H272.97V148.059H269.694V123.91H261.187ZM296.138 139.763V127.768H299.255V148.059H296.138V144.624H295.926C295.451 145.654 294.711 146.531 293.707 147.253C292.703 147.966 291.435 148.323 289.902 148.323C288.634 148.323 287.507 148.045 286.521 147.491C285.534 146.927 284.759 146.081 284.196 144.954C283.632 143.818 283.35 142.387 283.35 140.661V127.768H286.468V140.45C286.468 141.929 286.882 143.109 287.71 143.99C288.546 144.871 289.612 145.311 290.906 145.311C291.681 145.311 292.47 145.113 293.271 144.716C294.081 144.32 294.759 143.712 295.305 142.893C295.86 142.074 296.138 141.031 296.138 139.763ZM304.965 148.059V127.768H307.977V130.832H308.189C308.559 129.828 309.228 129.014 310.197 128.389C311.165 127.763 312.257 127.451 313.473 127.451C313.702 127.451 313.988 127.455 314.331 127.464C314.675 127.473 314.935 127.486 315.111 127.503V130.674C315.005 130.648 314.763 130.608 314.384 130.555C314.014 130.493 313.623 130.463 313.209 130.463C312.222 130.463 311.342 130.67 310.567 131.083C309.8 131.489 309.193 132.052 308.744 132.774C308.303 133.488 308.083 134.302 308.083 135.218V148.059H304.965ZM321.924 135.852V148.059H318.806V127.768H321.818V130.938H322.083C322.558 129.908 323.28 129.08 324.249 128.455C325.218 127.821 326.468 127.503 328.001 127.503C329.375 127.503 330.577 127.785 331.607 128.349C332.638 128.904 333.439 129.749 334.011 130.885C334.584 132.013 334.87 133.439 334.87 135.165V148.059H331.752V135.377C331.752 133.783 331.339 132.541 330.511 131.652C329.683 130.753 328.547 130.304 327.102 130.304C326.107 130.304 325.218 130.52 324.434 130.951C323.659 131.383 323.047 132.013 322.598 132.84C322.149 133.668 321.924 134.672 321.924 135.852ZM340.567 148.059V127.768H343.685V148.059H340.567ZM342.152 124.386C341.545 124.386 341.021 124.179 340.58 123.765C340.149 123.351 339.933 122.853 339.933 122.272C339.933 121.691 340.149 121.193 340.58 120.779C341.021 120.366 341.545 120.159 342.152 120.159C342.76 120.159 343.279 120.366 343.711 120.779C344.151 121.193 344.372 121.691 344.372 122.272C344.372 122.853 344.151 123.351 343.711 123.765C343.279 124.179 342.76 124.386 342.152 124.386ZM352.512 135.852V148.059H349.395V127.768H352.407V130.938H352.671C353.146 129.908 353.869 129.08 354.837 128.455C355.806 127.821 357.057 127.503 358.589 127.503C359.963 127.503 361.165 127.785 362.195 128.349C363.226 128.904 364.027 129.749 364.6 130.885C365.172 132.013 365.458 133.439 365.458 135.165V148.059H362.341V135.377C362.341 133.783 361.927 132.541 361.099 131.652C360.271 130.753 359.135 130.304 357.691 130.304C356.696 130.304 355.806 130.52 355.022 130.951C354.247 131.383 353.635 132.013 353.186 132.84C352.737 133.668 352.512 134.672 352.512 135.852ZM379.346 156.09C377.84 156.09 376.545 155.897 375.462 155.509C374.379 155.13 373.476 154.628 372.754 154.003C372.04 153.387 371.472 152.726 371.05 152.022L373.533 150.278C373.815 150.648 374.172 151.071 374.603 151.546C375.035 152.03 375.625 152.449 376.373 152.801C377.131 153.162 378.121 153.343 379.346 153.343C380.984 153.343 382.336 152.946 383.401 152.154C384.467 151.361 385 150.119 385 148.428V144.307H384.735C384.506 144.677 384.181 145.135 383.758 145.681C383.344 146.218 382.745 146.698 381.961 147.121C381.186 147.535 380.138 147.742 378.817 147.742C377.179 147.742 375.708 147.354 374.405 146.579C373.11 145.804 372.084 144.677 371.327 143.197C370.578 141.718 370.204 139.921 370.204 137.807C370.204 135.729 370.57 133.919 371.301 132.378C372.032 130.828 373.049 129.63 374.352 128.785C375.656 127.931 377.162 127.503 378.87 127.503C380.191 127.503 381.239 127.724 382.014 128.164C382.798 128.596 383.397 129.089 383.811 129.644C384.233 130.19 384.559 130.639 384.788 130.991H385.105V127.768H388.117V148.64C388.117 150.384 387.721 151.802 386.928 152.894C386.144 153.994 385.088 154.8 383.758 155.311C382.437 155.831 380.966 156.09 379.346 156.09ZM379.24 144.941C380.49 144.941 381.547 144.655 382.41 144.082C383.273 143.51 383.93 142.686 384.379 141.612C384.828 140.538 385.052 139.252 385.052 137.755C385.052 136.293 384.832 135.003 384.392 133.884C383.952 132.766 383.3 131.889 382.437 131.255C381.574 130.621 380.508 130.304 379.24 130.304C377.919 130.304 376.818 130.639 375.937 131.308C375.065 131.977 374.409 132.876 373.969 134.003C373.538 135.13 373.322 136.381 373.322 137.755C373.322 139.164 373.542 140.41 373.982 141.493C374.431 142.568 375.092 143.413 375.964 144.029C376.844 144.637 377.937 144.941 379.24 144.941ZM407.985 121.004V148.059H404.709V121.004H407.985ZM421.793 148.481C420.102 148.481 418.61 148.054 417.315 147.2C416.021 146.337 415.008 145.122 414.277 143.554C413.546 141.978 413.18 140.115 413.18 137.966C413.18 135.835 413.546 133.985 414.277 132.418C415.008 130.85 416.025 129.639 417.328 128.785C418.632 127.931 420.138 127.503 421.846 127.503C423.167 127.503 424.211 127.724 424.977 128.164C425.752 128.596 426.342 129.089 426.747 129.644C427.161 130.19 427.483 130.639 427.712 130.991H427.976V121.004H431.093V148.059H428.081V144.941H427.712C427.483 145.311 427.157 145.778 426.734 146.341C426.311 146.896 425.708 147.394 424.924 147.834C424.14 148.266 423.097 148.481 421.793 148.481ZM422.216 145.681C423.467 145.681 424.523 145.355 425.387 144.703C426.25 144.043 426.906 143.131 427.355 141.969C427.804 140.797 428.029 139.446 428.029 137.913C428.029 136.398 427.808 135.073 427.368 133.937C426.928 132.792 426.276 131.903 425.413 131.268C424.55 130.626 423.484 130.304 422.216 130.304C420.895 130.304 419.794 130.643 418.914 131.321C418.042 131.991 417.386 132.902 416.945 134.056C416.514 135.201 416.298 136.486 416.298 137.913C416.298 139.357 416.518 140.67 416.958 141.85C417.408 143.021 418.068 143.955 418.94 144.65C419.821 145.337 420.913 145.681 422.216 145.681ZM445.744 148.481C443.788 148.481 442.102 148.05 440.684 147.187C439.275 146.315 438.187 145.1 437.421 143.541C436.664 141.973 436.285 140.15 436.285 138.072C436.285 135.993 436.664 134.161 437.421 132.576C438.187 130.982 439.253 129.74 440.618 128.851C441.992 127.953 443.595 127.503 445.426 127.503C446.483 127.503 447.527 127.68 448.557 128.032C449.588 128.384 450.526 128.957 451.371 129.749C452.217 130.533 452.89 131.572 453.392 132.867C453.894 134.161 454.145 135.755 454.145 137.649V138.97H438.504V136.275H450.975C450.975 135.13 450.746 134.109 450.288 133.21C449.839 132.312 449.196 131.603 448.359 131.083C447.531 130.564 446.554 130.304 445.426 130.304C444.185 130.304 443.11 130.612 442.203 131.229C441.305 131.836 440.614 132.629 440.129 133.607C439.645 134.584 439.403 135.632 439.403 136.751V138.547C439.403 140.08 439.667 141.379 440.195 142.444C440.732 143.501 441.477 144.307 442.428 144.862C443.379 145.408 444.484 145.681 445.744 145.681C446.563 145.681 447.302 145.566 447.963 145.337C448.632 145.1 449.209 144.747 449.693 144.28C450.178 143.805 450.552 143.215 450.816 142.51L453.828 143.356C453.511 144.377 452.978 145.276 452.23 146.051C451.481 146.817 450.556 147.416 449.456 147.847C448.355 148.27 447.117 148.481 445.744 148.481ZM464.859 148.534C463.573 148.534 462.406 148.292 461.358 147.808C460.31 147.314 459.478 146.605 458.861 145.681C458.245 144.747 457.937 143.62 457.937 142.299C457.937 141.136 458.166 140.194 458.623 139.472C459.081 138.741 459.694 138.169 460.46 137.755C461.226 137.341 462.071 137.032 462.996 136.83C463.93 136.619 464.868 136.451 465.81 136.328C467.043 136.169 468.042 136.051 468.809 135.971C469.584 135.883 470.147 135.738 470.499 135.535C470.861 135.333 471.041 134.98 471.041 134.478V134.373C471.041 133.069 470.684 132.057 469.971 131.334C469.267 130.612 468.197 130.251 466.761 130.251C465.273 130.251 464.106 130.577 463.26 131.229C462.415 131.88 461.82 132.576 461.477 133.316L458.518 132.259C459.046 131.026 459.751 130.066 460.631 129.379C461.521 128.684 462.49 128.199 463.538 127.926C464.595 127.644 465.634 127.503 466.655 127.503C467.307 127.503 468.056 127.583 468.901 127.741C469.755 127.891 470.579 128.204 471.371 128.679C472.173 129.155 472.838 129.873 473.366 130.832C473.895 131.792 474.159 133.078 474.159 134.69V148.059H471.041V145.311H470.883C470.671 145.751 470.319 146.222 469.826 146.724C469.333 147.226 468.676 147.653 467.857 148.006C467.038 148.358 466.039 148.534 464.859 148.534ZM465.334 145.734C466.567 145.734 467.606 145.491 468.452 145.007C469.306 144.523 469.949 143.897 470.381 143.131C470.821 142.365 471.041 141.559 471.041 140.714V137.86C470.909 138.019 470.618 138.164 470.169 138.296C469.729 138.42 469.218 138.53 468.637 138.627C468.064 138.715 467.505 138.794 466.959 138.864C466.422 138.926 465.986 138.979 465.651 139.023C464.841 139.128 464.084 139.3 463.379 139.538C462.683 139.767 462.12 140.115 461.688 140.582C461.266 141.04 461.054 141.665 461.054 142.457C461.054 143.541 461.455 144.36 462.256 144.915C463.067 145.461 464.093 145.734 465.334 145.734ZM494.222 132.312L491.421 133.105C491.245 132.638 490.985 132.184 490.642 131.744C490.307 131.295 489.849 130.925 489.268 130.634C488.687 130.344 487.942 130.198 487.035 130.198C485.794 130.198 484.759 130.485 483.931 131.057C483.112 131.621 482.702 132.338 482.702 133.21C482.702 133.985 482.984 134.597 483.548 135.047C484.112 135.496 484.992 135.87 486.19 136.169L489.202 136.909C491.016 137.35 492.368 138.023 493.257 138.93C494.147 139.829 494.592 140.987 494.592 142.405C494.592 143.567 494.257 144.606 493.588 145.522C492.927 146.438 492.002 147.16 490.814 147.689C489.625 148.217 488.242 148.481 486.665 148.481C484.596 148.481 482.883 148.032 481.527 147.134C480.17 146.236 479.312 144.923 478.951 143.197L481.91 142.457C482.192 143.55 482.724 144.369 483.508 144.915C484.301 145.461 485.336 145.734 486.613 145.734C488.066 145.734 489.219 145.425 490.074 144.809C490.937 144.184 491.368 143.435 491.368 142.563C491.368 141.859 491.122 141.269 490.629 140.793C490.135 140.309 489.378 139.948 488.356 139.71L484.975 138.917C483.116 138.477 481.751 137.794 480.879 136.87C480.016 135.936 479.585 134.769 479.585 133.369C479.585 132.224 479.906 131.211 480.549 130.33C481.201 129.45 482.086 128.758 483.204 128.256C484.332 127.754 485.609 127.503 487.035 127.503C489.043 127.503 490.62 127.944 491.765 128.825C492.918 129.705 493.737 130.868 494.222 132.312ZM509.747 148.059V127.768H512.865V148.059H509.747ZM511.332 124.386C510.725 124.386 510.201 124.179 509.76 123.765C509.329 123.351 509.113 122.853 509.113 122.272C509.113 121.691 509.329 121.193 509.76 120.779C510.201 120.366 510.725 120.159 511.332 120.159C511.94 120.159 512.46 120.366 512.891 120.779C513.331 121.193 513.552 121.691 513.552 122.272C513.552 122.853 513.331 123.351 512.891 123.765C512.46 124.179 511.94 124.386 511.332 124.386ZM521.692 135.852V148.059H518.575V127.768H521.587V130.938H521.851C522.327 129.908 523.049 129.08 524.017 128.455C524.986 127.821 526.237 127.503 527.769 127.503C529.143 127.503 530.345 127.785 531.376 128.349C532.406 128.904 533.207 129.749 533.78 130.885C534.352 132.013 534.638 133.439 534.638 135.165V148.059H531.521V135.377C531.521 133.783 531.107 132.541 530.279 131.652C529.451 130.753 528.315 130.304 526.871 130.304C525.876 130.304 524.986 130.52 524.202 130.951C523.427 131.383 522.815 132.013 522.366 132.84C521.917 133.668 521.692 134.672 521.692 135.852ZM549.16 127.768V130.41H538.644V127.768H549.16ZM541.709 122.906H544.827V142.246C544.827 143.127 544.955 143.787 545.21 144.228C545.474 144.659 545.809 144.95 546.214 145.1C546.628 145.24 547.064 145.311 547.522 145.311C547.865 145.311 548.147 145.293 548.367 145.258C548.587 145.214 548.763 145.179 548.896 145.152L549.53 147.953C549.318 148.032 549.023 148.111 548.645 148.191C548.266 148.279 547.786 148.323 547.205 148.323C546.324 148.323 545.461 148.133 544.615 147.755C543.779 147.376 543.083 146.799 542.528 146.024C541.982 145.249 541.709 144.272 541.709 143.092V122.906ZM561.875 148.481C560.043 148.481 558.436 148.045 557.053 147.174C555.679 146.302 554.605 145.082 553.83 143.514C553.063 141.947 552.68 140.115 552.68 138.019C552.68 135.905 553.063 134.06 553.83 132.484C554.605 130.907 555.679 129.683 557.053 128.811C558.436 127.939 560.043 127.503 561.875 127.503C563.706 127.503 565.309 127.939 566.683 128.811C568.066 129.683 569.14 130.907 569.906 132.484C570.681 134.06 571.069 135.905 571.069 138.019C571.069 140.115 570.681 141.947 569.906 143.514C569.14 145.082 568.066 146.302 566.683 147.174C565.309 148.045 563.706 148.481 561.875 148.481ZM561.875 145.681C563.266 145.681 564.411 145.324 565.309 144.611C566.208 143.897 566.873 142.959 567.304 141.797C567.736 140.634 567.951 139.375 567.951 138.019C567.951 136.663 567.736 135.399 567.304 134.227C566.873 133.056 566.208 132.109 565.309 131.387C564.411 130.665 563.266 130.304 561.875 130.304C560.483 130.304 559.338 130.665 558.44 131.387C557.542 132.109 556.877 133.056 556.445 134.227C556.014 135.399 555.798 136.663 555.798 138.019C555.798 139.375 556.014 140.634 556.445 141.797C556.877 142.959 557.542 143.897 558.44 144.611C559.338 145.324 560.483 145.681 561.875 145.681ZM595.062 148.059H586.713V121.004H595.432C598.056 121.004 600.302 121.546 602.169 122.629C604.036 123.703 605.467 125.249 606.462 127.266C607.458 129.274 607.955 131.678 607.955 134.478C607.955 137.297 607.453 139.723 606.449 141.757C605.445 143.783 603.983 145.342 602.063 146.434C600.144 147.517 597.81 148.059 595.062 148.059ZM589.989 145.152H594.851C597.088 145.152 598.941 144.721 600.412 143.858C601.883 142.995 602.979 141.766 603.702 140.172C604.424 138.578 604.785 136.68 604.785 134.478C604.785 132.294 604.428 130.414 603.715 128.838C603.001 127.252 601.936 126.037 600.518 125.192C599.1 124.337 597.334 123.91 595.221 123.91H589.989V145.152ZM613.028 148.059V127.768H616.146V148.059H613.028ZM614.613 124.386C614.005 124.386 613.481 124.179 613.041 123.765C612.61 123.351 612.394 122.853 612.394 122.272C612.394 121.691 612.61 121.193 613.041 120.779C613.481 120.366 614.005 120.159 614.613 120.159C615.221 120.159 615.74 120.366 616.172 120.779C616.612 121.193 616.832 121.691 616.832 122.272C616.832 122.853 616.612 123.351 616.172 123.765C615.74 124.179 615.221 124.386 614.613 124.386ZM630.046 156.09C628.54 156.09 627.245 155.897 626.162 155.509C625.079 155.13 624.176 154.628 623.454 154.003C622.741 153.387 622.173 152.726 621.75 152.022L624.234 150.278C624.515 150.648 624.872 151.071 625.304 151.546C625.735 152.03 626.325 152.449 627.074 152.801C627.831 153.162 628.822 153.343 630.046 153.343C631.684 153.343 633.036 152.946 634.102 152.154C635.167 151.361 635.7 150.119 635.7 148.428V144.307H635.436C635.207 144.677 634.881 145.135 634.458 145.681C634.044 146.218 633.445 146.698 632.662 147.121C631.887 147.535 630.839 147.742 629.518 147.742C627.88 147.742 626.409 147.354 625.105 146.579C623.811 145.804 622.785 144.677 622.027 143.197C621.279 141.718 620.905 139.921 620.905 137.807C620.905 135.729 621.27 133.919 622.001 132.378C622.732 130.828 623.749 129.63 625.053 128.785C626.356 127.931 627.862 127.503 629.57 127.503C630.891 127.503 631.939 127.724 632.714 128.164C633.498 128.596 634.097 129.089 634.511 129.644C634.934 130.19 635.26 130.639 635.489 130.991H635.806V127.768H638.818V148.64C638.818 150.384 638.421 151.802 637.629 152.894C636.845 153.994 635.788 154.8 634.458 155.311C633.137 155.831 631.666 156.09 630.046 156.09ZM629.94 144.941C631.191 144.941 632.248 144.655 633.111 144.082C633.974 143.51 634.63 142.686 635.079 141.612C635.528 140.538 635.753 139.252 635.753 137.755C635.753 136.293 635.533 135.003 635.092 133.884C634.652 132.766 634 131.889 633.137 131.255C632.274 130.621 631.209 130.304 629.94 130.304C628.619 130.304 627.518 130.639 626.638 131.308C625.766 131.977 625.11 132.876 624.669 134.003C624.238 135.13 624.022 136.381 624.022 137.755C624.022 139.164 624.242 140.41 624.683 141.493C625.132 142.568 625.792 143.413 626.664 144.029C627.545 144.637 628.637 144.941 629.94 144.941ZM644.524 148.059V127.768H647.642V148.059H644.524ZM646.11 124.386C645.502 124.386 644.978 124.179 644.538 123.765C644.106 123.351 643.89 122.853 643.89 122.272C643.89 121.691 644.106 121.193 644.538 120.779C644.978 120.366 645.502 120.159 646.11 120.159C646.717 120.159 647.237 120.366 647.668 120.779C648.109 121.193 648.329 121.691 648.329 122.272C648.329 122.853 648.109 123.351 647.668 123.765C647.237 124.179 646.717 124.386 646.11 124.386ZM662.177 127.768V130.41H651.661V127.768H662.177ZM654.726 122.906H657.844V142.246C657.844 143.127 657.971 143.787 658.227 144.228C658.491 144.659 658.826 144.95 659.231 145.1C659.645 145.24 660.081 145.311 660.539 145.311C660.882 145.311 661.164 145.293 661.384 145.258C661.604 145.214 661.78 145.179 661.912 145.152L662.546 147.953C662.335 148.032 662.04 148.111 661.661 148.191C661.283 148.279 660.803 148.323 660.221 148.323C659.341 148.323 658.478 148.133 657.632 147.755C656.796 147.376 656.1 146.799 655.545 146.024C654.999 145.249 654.726 144.272 654.726 143.092V122.906ZM672.837 148.534C671.551 148.534 670.385 148.292 669.337 147.808C668.289 147.314 667.456 146.605 666.84 145.681C666.223 144.747 665.915 143.62 665.915 142.299C665.915 141.136 666.144 140.194 666.602 139.472C667.06 138.741 667.672 138.169 668.438 137.755C669.204 137.341 670.05 137.032 670.975 136.83C671.908 136.619 672.846 136.451 673.788 136.328C675.021 136.169 676.021 136.051 676.787 135.971C677.562 135.883 678.126 135.738 678.478 135.535C678.839 135.333 679.02 134.98 679.02 134.478V134.373C679.02 133.069 678.663 132.057 677.95 131.334C677.245 130.612 676.175 130.251 674.74 130.251C673.251 130.251 672.084 130.577 671.239 131.229C670.393 131.88 669.799 132.576 669.455 133.316L666.496 132.259C667.025 131.026 667.729 130.066 668.61 129.379C669.499 128.684 670.468 128.199 671.516 127.926C672.573 127.644 673.612 127.503 674.634 127.503C675.286 127.503 676.034 127.583 676.88 127.741C677.734 127.891 678.557 128.204 679.35 128.679C680.151 129.155 680.816 129.873 681.345 130.832C681.873 131.792 682.137 133.078 682.137 134.69V148.059H679.02V145.311H678.861C678.65 145.751 678.297 146.222 677.804 146.724C677.311 147.226 676.655 147.653 675.836 148.006C675.017 148.358 674.017 148.534 672.837 148.534ZM673.313 145.734C674.546 145.734 675.585 145.491 676.43 145.007C677.285 144.523 677.928 143.897 678.359 143.131C678.799 142.365 679.02 141.559 679.02 140.714V137.86C678.888 138.019 678.597 138.164 678.148 138.296C677.707 138.42 677.197 138.53 676.615 138.627C676.043 138.715 675.484 138.794 674.938 138.864C674.4 138.926 673.965 138.979 673.63 139.023C672.82 139.128 672.062 139.3 671.358 139.538C670.662 139.767 670.098 140.115 669.667 140.582C669.244 141.04 669.033 141.665 669.033 142.457C669.033 143.541 669.433 144.36 670.235 144.915C671.045 145.461 672.071 145.734 673.313 145.734ZM690.945 121.004V148.059H687.828V121.004H690.945ZM707.541 148.059V121.004H716.682C718.796 121.004 720.531 121.365 721.887 122.087C723.243 122.801 724.247 123.783 724.899 125.033C725.55 126.284 725.876 127.706 725.876 129.3C725.876 130.894 725.55 132.308 724.899 133.541C724.247 134.774 723.247 135.742 721.9 136.447C720.553 137.143 718.831 137.49 716.735 137.49H709.337V134.531H716.629C718.073 134.531 719.236 134.32 720.117 133.897C721.006 133.475 721.649 132.876 722.045 132.101C722.45 131.317 722.653 130.383 722.653 129.3C722.653 128.217 722.45 127.27 722.045 126.46C721.64 125.65 720.993 125.024 720.103 124.584C719.214 124.135 718.038 123.91 716.576 123.91H710.817V148.059H707.541ZM720.275 135.905L726.933 148.059H723.129L716.576 135.905H720.275ZM739.202 148.481C737.247 148.481 735.561 148.05 734.143 147.187C732.734 146.315 731.646 145.1 730.88 143.541C730.122 141.973 729.744 140.15 729.744 138.072C729.744 135.993 730.122 134.161 730.88 132.576C731.646 130.982 732.712 129.74 734.077 128.851C735.45 127.953 737.053 127.503 738.885 127.503C739.942 127.503 740.986 127.68 742.016 128.032C743.046 128.384 743.984 128.957 744.83 129.749C745.675 130.533 746.349 131.572 746.851 132.867C747.353 134.161 747.604 135.755 747.604 137.649V138.97H731.963V136.275H744.433C744.433 135.13 744.204 134.109 743.746 133.21C743.297 132.312 742.654 131.603 741.818 131.083C740.99 130.564 740.012 130.304 738.885 130.304C737.643 130.304 736.569 130.612 735.662 131.229C734.763 131.836 734.072 132.629 733.588 133.607C733.103 134.584 732.861 135.632 732.861 136.751V138.547C732.861 140.08 733.125 141.379 733.654 142.444C734.191 143.501 734.935 144.307 735.886 144.862C736.838 145.408 737.943 145.681 739.202 145.681C740.021 145.681 740.761 145.566 741.421 145.337C742.091 145.1 742.668 144.747 743.152 144.28C743.636 143.805 744.011 143.215 744.275 142.51L747.287 143.356C746.97 144.377 746.437 145.276 745.688 146.051C744.94 146.817 744.015 147.416 742.914 147.847C741.813 148.27 740.576 148.481 739.202 148.481ZM758.317 148.534C757.032 148.534 755.865 148.292 754.817 147.808C753.769 147.314 752.936 146.605 752.32 145.681C751.703 144.747 751.395 143.62 751.395 142.299C751.395 141.136 751.624 140.194 752.082 139.472C752.54 138.741 753.152 138.169 753.918 137.755C754.685 137.341 755.53 137.032 756.455 136.83C757.388 136.619 758.326 136.451 759.268 136.328C760.501 136.169 761.501 136.051 762.267 135.971C763.042 135.883 763.606 135.738 763.958 135.535C764.319 135.333 764.5 134.98 764.5 134.478V134.373C764.5 133.069 764.143 132.057 763.43 131.334C762.725 130.612 761.655 130.251 760.22 130.251C758.731 130.251 757.564 130.577 756.719 131.229C755.873 131.88 755.279 132.576 754.936 133.316L751.976 132.259C752.505 131.026 753.209 130.066 754.09 129.379C754.98 128.684 755.948 128.199 756.996 127.926C758.053 127.644 759.092 127.503 760.114 127.503C760.766 127.503 761.514 127.583 762.36 127.741C763.214 127.891 764.037 128.204 764.83 128.679C765.631 129.155 766.296 129.873 766.825 130.832C767.353 131.792 767.617 133.078 767.617 134.69V148.059H764.5V145.311H764.341C764.13 145.751 763.778 146.222 763.284 146.724C762.791 147.226 762.135 147.653 761.316 148.006C760.497 148.358 759.497 148.534 758.317 148.534ZM758.793 145.734C760.026 145.734 761.065 145.491 761.911 145.007C762.765 144.523 763.408 143.897 763.839 143.131C764.28 142.365 764.5 141.559 764.5 140.714V137.86C764.368 138.019 764.077 138.164 763.628 138.296C763.187 138.42 762.677 138.53 762.095 138.627C761.523 138.715 760.964 138.794 760.418 138.864C759.881 138.926 759.445 138.979 759.11 139.023C758.3 139.128 757.542 139.3 756.838 139.538C756.142 139.767 755.578 140.115 755.147 140.582C754.724 141.04 754.513 141.665 754.513 142.457C754.513 143.541 754.913 144.36 755.715 144.915C756.525 145.461 757.551 145.734 758.793 145.734ZM776.425 121.004V148.059H773.308V121.004H776.425ZM782.135 148.059V127.768H785.253V148.059H782.135ZM783.721 124.386C783.113 124.386 782.589 124.179 782.149 123.765C781.717 123.351 781.501 122.853 781.501 122.272C781.501 121.691 781.717 121.193 782.149 120.779C782.589 120.366 783.113 120.159 783.721 120.159C784.328 120.159 784.848 120.366 785.279 120.779C785.72 121.193 785.94 121.691 785.94 122.272C785.94 122.853 785.72 123.351 785.279 123.765C784.848 124.179 784.328 124.386 783.721 124.386ZM799.788 127.768V130.41H789.272V127.768H799.788ZM792.337 122.906H795.455V142.246C795.455 143.127 795.582 143.787 795.838 144.228C796.102 144.659 796.437 144.95 796.842 145.1C797.256 145.24 797.691 145.311 798.149 145.311C798.493 145.311 798.775 145.293 798.995 145.258C799.215 145.214 799.391 145.179 799.523 145.152L800.157 147.953C799.946 148.032 799.651 148.111 799.272 148.191C798.894 148.279 798.414 148.323 797.832 148.323C796.952 148.323 796.089 148.133 795.243 147.755C794.407 147.376 793.711 146.799 793.156 146.024C792.61 145.249 792.337 144.272 792.337 143.092V122.906ZM806.485 155.668C805.957 155.668 805.486 155.624 805.072 155.536C804.658 155.456 804.372 155.377 804.213 155.298L805.006 152.55C805.763 152.744 806.432 152.814 807.014 152.761C807.595 152.709 808.11 152.449 808.559 151.982C809.017 151.524 809.435 150.78 809.814 149.75L810.395 148.164L802.892 127.768H806.274L811.875 143.937H812.086L817.687 127.768H821.069L812.456 151.018C812.069 152.066 811.589 152.933 811.016 153.62C810.444 154.316 809.779 154.831 809.022 155.166C808.273 155.5 807.427 155.668 806.485 155.668Z" fill="#284767"/>
<defs>
<linearGradient id="paint0_linear_7_83" x1="201.231" y1="207.058" x2="68.7928" y2="24.3846" gradientUnits="userSpaceOnUse">
<stop stop-color="#F26322"/>
<stop offset="0.0078125" stop-color="#F26322"/>
<stop offset="0.015625" stop-color="#F26322"/>
<stop offset="0.0234375" stop-color="#F26522"/>
<stop offset="0.03125" stop-color="#F26522"/>
<stop offset="0.046875" stop-color="#F26622"/>
<stop offset="0.0546875" stop-color="#F26722"/>
<stop offset="0.0625" stop-color="#F26722"/>
<stop offset="0.0703125" stop-color="#F26922"/>
<stop offset="0.078125" stop-color="#F26921"/>
<stop offset="0.0859375" stop-color="#F26921"/>
<stop offset="0.09375" stop-color="#F26A21"/>
<stop offset="0.1016" stop-color="#F26A21"/>
<stop offset="0.1094" stop-color="#F36B21"/>
<stop offset="0.1172" stop-color="#F36C21"/>
<stop offset="0.125" stop-color="#F36D21"/>
<stop offset="0.1328" stop-color="#F36D21"/>
<stop offset="0.1406" stop-color="#F36D21"/>
<stop offset="0.1484" stop-color="#F36E21"/>
<stop offset="0.1562" stop-color="#F36F21"/>
<stop offset="0.1641" stop-color="#F36F21"/>
<stop offset="0.1719" stop-color="#F37021"/>
<stop offset="0.1797" stop-color="#F37121"/>
<stop offset="0.1875" stop-color="#F37221"/>
<stop offset="0.1953" stop-color="#F37321"/>
<stop offset="0.2031" stop-color="#F37321"/>
<stop offset="0.207" stop-color="#F47421"/>
<stop offset="0.2109" stop-color="#F47521"/>
<stop offset="0.2148" stop-color="#F47521"/>
<stop offset="0.2188" stop-color="#F47621"/>
<stop offset="0.2266" stop-color="#F27621"/>
<stop offset="0.2344" stop-color="#F07622"/>
<stop offset="0.2422" stop-color="#F07722"/>
<stop offset="0.2461" stop-color="#F07822"/>
<stop offset="0.25" stop-color="#F07922"/>
<stop offset="0.2539" stop-color="#F07922"/>
<stop offset="0.2578" stop-color="#F07A22"/>
<stop offset="0.2656" stop-color="#F07A22"/>
<stop offset="0.2734" stop-color="#F07B22"/>
<stop offset="0.2773" stop-color="#F07B22"/>
<stop offset="0.2812" stop-color="#EF7C22"/>
<stop offset="0.2852" stop-color="#EF7D22"/>
<stop offset="0.2891" stop-color="#EE7E23"/>
<stop offset="0.293" stop-color="#EE7E23"/>
<stop offset="0.2969" stop-color="#ED7E23"/>
<stop offset="0.3047" stop-color="#ED7E23"/>
<stop offset="0.3125" stop-color="#ED8023"/>
<stop offset="0.3203" stop-color="#ED8123"/>
<stop offset="0.3242" stop-color="#ED8223"/>
<stop offset="0.3281" stop-color="#ED8223"/>
<stop offset="0.3359" stop-color="#EC8323"/>
<stop offset="0.3398" stop-color="#EC8323"/>
<stop offset="0.3438" stop-color="#EC8423"/>
<stop offset="0.3477" stop-color="#EC8423"/>
<stop offset="0.3516" stop-color="#EC8423"/>
<stop offset="0.3555" stop-color="#EC8623"/>
<stop offset="0.3594" stop-color="#EB8723"/>
<stop offset="0.3633" stop-color="#EB8723"/>
<stop offset="0.3672" stop-color="#EA8824"/>
<stop offset="0.3711" stop-color="#EA8924"/>
<stop offset="0.375" stop-color="#EA8924"/>
<stop offset="0.3789" stop-color="#EA8A23"/>
<stop offset="0.3828" stop-color="#EA8A23"/>
<stop offset="0.3867" stop-color="#E98B24"/>
<stop offset="0.3906" stop-color="#E98B24"/>
<stop offset="0.3945" stop-color="#E98B24"/>
<stop offset="0.3984" stop-color="#E98C24"/>
<stop offset="0.4023" stop-color="#E98D24"/>
<stop offset="0.4062" stop-color="#E98D24"/>
<stop offset="0.4141" stop-color="#E78E24"/>
<stop offset="0.418" stop-color="#E88F24"/>
<stop offset="0.4219" stop-color="#E78F24"/>
<stop offset="0.4258" stop-color="#E78F24"/>
<stop offset="0.4297" stop-color="#E79124"/>
<stop offset="0.4336" stop-color="#E79124"/>
<stop offset="0.4375" stop-color="#E79124"/>
<stop offset="0.4414" stop-color="#E69225"/>
<stop offset="0.4453" stop-color="#E69325"/>
<stop offset="0.4492" stop-color="#E59325"/>
<stop offset="0.4531" stop-color="#E59425"/>
<stop offset="0.457" stop-color="#E59425"/>
<stop offset="0.4609" stop-color="#E49525"/>
<stop offset="0.4648" stop-color="#E49525"/>
<stop offset="0.4688" stop-color="#E49725"/>
<stop offset="0.4766" stop-color="#E49725"/>
<stop offset="0.4805" stop-color="#E49825"/>
<stop offset="0.4844" stop-color="#E49825"/>
<stop offset="0.4883" stop-color="#E49925"/>
<stop offset="0.4922" stop-color="#E39A25"/>
<stop offset="0.4961" stop-color="#E39A25"/>
<stop offset="0.5" stop-color="#E39B25"/>
<stop offset="0.5039" stop-color="#E39B25"/>
<stop offset="0.5078" stop-color="#E29B25"/>
<stop offset="0.5117" stop-color="#E29B25"/>
<stop offset="0.5156" stop-color="#E39D25"/>
<stop offset="0.5195" stop-color="#E39D25"/>
<stop offset="0.5234" stop-color="#E39D25"/>
<stop offset="0.5312" stop-color="#E39D25"/>
<stop offset="0.5391" stop-color="#E19D25"/>
<stop offset="0.543" stop-color="#E19E26"/>
<stop offset="0.5469" stop-color="#E1A026"/>
<stop offset="0.5508" stop-color="#E1A026"/>
<stop offset="0.5547" stop-color="#E2A026"/>
<stop offset="0.5586" stop-color="#E2A026"/>
<stop offset="0.5625" stop-color="#E2A225"/>
<stop offset="0.5664" stop-color="#E2A225"/>
<stop offset="0.5703" stop-color="#E2A225"/>
<stop offset="0.5742" stop-color="#E2A225"/>
<stop offset="0.5781" stop-color="#E0A326"/>
<stop offset="0.582" stop-color="#E0A326"/>
<stop offset="0.5859" stop-color="#E0A526"/>
<stop offset="0.5898" stop-color="#E0A526"/>
<stop offset="0.5938" stop-color="#E0A526"/>
<stop offset="0.5977" stop-color="#E0A526"/>
<stop offset="0.6016" stop-color="#E0A626"/>
<stop offset="0.6055" stop-color="#E0A626"/>
<stop offset="0.6094" stop-color="#E1A726"/>
<stop offset="0.6133" stop-color="#E1A726"/>
<stop offset="0.6172" stop-color="#E1A825"/>
<stop offset="0.625" stop-color="#E1A825"/>
<stop offset="0.6328" stop-color="#E0A926"/>
<stop offset="0.6367" stop-color="#E0A926"/>
<stop offset="0.6406" stop-color="#E0AA26"/>
<stop offset="0.6445" stop-color="#E0AA26"/>
<stop offset="0.6484" stop-color="#E0AB26"/>
<stop offset="0.6523" stop-color="#E0AB26"/>
<stop offset="0.6562" stop-color="#E0AC26"/>
<stop offset="0.6641" stop-color="#E0AC26"/>
<stop offset="0.668" stop-color="#E0AC26"/>
<stop offset="0.6719" stop-color="#E0AD25"/>
<stop offset="0.6758" stop-color="#E0AD25"/>
<stop offset="0.6797" stop-color="#E0AE25"/>
<stop offset="0.6836" stop-color="#E0AE25"/>
<stop offset="0.6875" stop-color="#E0AF25"/>
<stop offset="0.6914" stop-color="#E0AF25"/>
<stop offset="0.6953" stop-color="#DFAF26"/>
<stop offset="0.7031" stop-color="#DFAF26"/>
<stop offset="0.707" stop-color="#DFAF26"/>
<stop offset="0.7109" stop-color="#DFB126"/>
<stop offset="0.7148" stop-color="#DEB126"/>
<stop offset="0.7188" stop-color="#DEB326"/>
<stop offset="0.7266" stop-color="#DEB326"/>
<stop offset="0.7305" stop-color="#DEB326"/>
<stop offset="0.7344" stop-color="#DFB425"/>
<stop offset="0.7383" stop-color="#DFB425"/>
<stop offset="0.7422" stop-color="#DEB426"/>
<stop offset="0.7461" stop-color="#DEB426"/>
<stop offset="0.75" stop-color="#DEB526"/>
<stop offset="0.7539" stop-color="#DEB526"/>
<stop offset="0.7578" stop-color="#DEB625"/>
<stop offset="0.7656" stop-color="#DEB625"/>
<stop offset="0.7695" stop-color="#DEB625"/>
<stop offset="0.7734" stop-color="#DEB725"/>
<stop offset="0.7773" stop-color="#DEB825"/>
<stop offset="0.7812" stop-color="#DEBA25"/>
<stop offset="0.7891" stop-color="#DEBA25"/>
<stop offset="0.793" stop-color="#DEBA25"/>
<stop offset="0.7969" stop-color="#DEBA25"/>
<stop offset="0.8008" stop-color="#DEBA25"/>
<stop offset="0.8047" stop-color="#DFBB25"/>
<stop offset="0.8086" stop-color="#DFBB25"/>
<stop offset="0.8125" stop-color="#DFBC24"/>
<stop offset="0.8164" stop-color="#DFBC24"/>
<stop offset="0.8203" stop-color="#DEBD25"/>
<stop offset="0.8242" stop-color="#DEBD25"/>
<stop offset="0.8281" stop-color="#DEBE24"/>
<stop offset="0.832" stop-color="#DDBE25"/>
<stop offset="0.8359" stop-color="#DDBE25"/>
<stop offset="0.8398" stop-color="#DDBF25"/>
<stop offset="0.8438" stop-color="#DDBF25"/>
<stop offset="0.8477" stop-color="#DDC025"/>
<stop offset="0.8516" stop-color="#DCC025"/>
<stop offset="0.8555" stop-color="#DCC125"/>
<stop offset="0.8594" stop-color="#DCC125"/>
<stop offset="0.8633" stop-color="#DCC225"/>
<stop offset="0.8672" stop-color="#DCC225"/>
<stop offset="0.8711" stop-color="#DCC325"/>
<stop offset="0.875" stop-color="#DCC325"/>
<stop offset="0.8789" stop-color="#DCC424"/>
<stop offset="0.8828" stop-color="#DCC424"/>
<stop offset="0.8906" stop-color="#DCC424"/>
<stop offset="0.9062" stop-color="#DCC424"/>
<stop offset="0.9375" stop-color="#DCC424"/>
<stop offset="1" stop-color="#DCC424"/>
</linearGradient>
</defs>
</svg>
