<svg width="153" height="50" viewBox="0 0 153 50" fill="none" xmlns="http://www.w3.org/2000/svg">
<rect width="152.855" height="49.6452" rx="5.22581" fill="black"/>
<g clip-path="url(#clip0_8423_972)">
<path d="M13.6741 12.7438L29.5279 22.3319C31.2093 23.3483 31.2093 25.7874 29.5279 26.8039L13.6741 36.3919C11.9326 37.4449 9.70898 36.1907 9.70898 34.1566V14.9792C9.70898 12.945 11.9326 11.6908 13.6741 12.7438Z" fill="#59CAF6"/>
<path d="M13.6735 36.3904L29.5273 26.8024C31.2087 25.786 31.2087 23.3468 29.5273 22.3304L26.3174 20.389L26.1606 20.3838L12.5957 36.734C12.9762 36.7017 13.3445 36.5843 13.6735 36.3904Z" fill="#E73C55"/>
<path d="M9.70898 30.59V34.1553C9.70898 36.1907 11.9326 37.4436 13.6741 36.3906L29.5279 26.8026C30.5273 26.199 30.9179 25.0937 30.7285 24.0825L9.70898 30.59Z" fill="#E93C4F"/>
<path d="M11.1174 12.6724C10.6921 12.889 10.3353 13.2193 10.0867 13.6267C9.83804 14.034 9.70729 14.5023 9.709 14.9796V18.3319L11.1174 12.6724Z" fill="#59CAF6"/>
<path d="M29.528 22.3324L13.6742 12.7443C13.3443 12.55 12.9751 12.4322 12.5938 12.3994L26.1599 28.8411L29.5293 26.8043C31.2094 25.7866 31.2094 23.3488 29.528 22.3324Z" fill="#70C266"/>
<path d="M20.454 27.2634L12.5957 36.7352C12.9602 36.6973 13.326 36.6006 13.6735 36.3916L29.5273 26.8035C30.5267 26.1999 30.9174 25.0947 30.7279 24.0835L20.454 27.2634Z" fill="#E3404C"/>
<path d="M29.5275 22.3314L26.3176 20.39L26.1608 20.3848L22.6621 24.602L26.1595 28.8401L29.5288 26.8034C31.2089 25.7856 31.2089 23.3478 29.5275 22.3314Z" fill="#FAD800"/>
<path d="M23.9609 26.1768L26.1584 28.8393L29.5277 26.8026C30.5272 26.199 30.9178 25.0937 30.7284 24.0825L23.9609 26.1768Z" fill="#FBD700"/>
</g>
<path d="M43.4996 18.8521C42.6983 18.8521 42.0224 18.7023 41.472 18.4027C40.9215 18.0961 40.5035 17.6606 40.2178 17.0963C39.9391 16.5319 39.7997 15.8595 39.7997 15.0791C39.7997 14.4938 39.8799 13.9712 40.0401 13.5113C40.2073 13.0445 40.4443 12.6473 40.7508 12.3199C41.0644 11.9854 41.4441 11.7311 41.8901 11.5569C42.343 11.3827 42.8551 11.2956 43.4264 11.2956C43.8445 11.2956 44.2556 11.3513 44.6597 11.4628C45.0639 11.5673 45.4332 11.7415 45.7676 11.9854C45.8652 12.0551 45.9279 12.1352 45.9557 12.2258C45.9836 12.3164 45.9836 12.4104 45.9557 12.508C45.9348 12.5986 45.8895 12.6787 45.8199 12.7484C45.7572 12.8181 45.677 12.8599 45.5795 12.8738C45.4889 12.8877 45.3879 12.8599 45.2764 12.7902C45.0046 12.6021 44.719 12.4662 44.4193 12.3826C44.1197 12.292 43.7888 12.2467 43.4264 12.2467C42.883 12.2467 42.4231 12.3582 42.0468 12.5812C41.6775 12.8041 41.3988 13.1281 41.2107 13.5532C41.0226 13.9712 40.9285 14.4799 40.9285 15.0791C40.9285 16.0058 41.148 16.7095 41.587 17.1903C42.0259 17.6711 42.6774 17.9115 43.5414 17.9115C43.855 17.9115 44.1615 17.8836 44.4612 17.8279C44.7677 17.7652 45.0604 17.6781 45.3391 17.5666L45.1196 18.1101V15.6748H43.7713C43.632 15.6748 43.5205 15.64 43.4369 15.5703C43.3603 15.4937 43.3219 15.3892 43.3219 15.2568C43.3219 15.1244 43.3603 15.0268 43.4369 14.9641C43.5205 14.8944 43.632 14.8596 43.7713 14.8596H45.5795C45.7258 14.8596 45.8373 14.8979 45.9139 14.9746C45.9906 15.0512 46.0289 15.1627 46.0289 15.309V17.9428C46.0289 18.0683 46.0045 18.1763 45.9557 18.2668C45.9139 18.3504 45.8408 18.4132 45.7363 18.455C45.4366 18.5734 45.0848 18.671 44.6806 18.7476C44.2765 18.8173 43.8828 18.8521 43.4996 18.8521ZM49.9738 18.8521C49.4164 18.8521 48.9356 18.7476 48.5315 18.5386C48.1343 18.3226 47.8243 18.0195 47.6013 17.6293C47.3853 17.2321 47.2773 16.7618 47.2773 16.2183C47.2773 15.6888 47.3853 15.2254 47.6013 14.8282C47.8173 14.4311 48.1134 14.121 48.4897 13.8981C48.8659 13.6751 49.2945 13.5636 49.7752 13.5636C50.1306 13.5636 50.4476 13.6228 50.7263 13.7413C51.005 13.8528 51.2419 14.02 51.437 14.243C51.6391 14.459 51.7889 14.7237 51.8865 15.0373C51.991 15.3508 52.0432 15.7027 52.0432 16.0929C52.0432 16.2113 52.0084 16.3019 51.9387 16.3646C51.869 16.4204 51.7645 16.4482 51.6252 16.4482H48.1134V15.8002H51.3325L51.1548 15.9466C51.1548 15.5982 51.1026 15.3021 50.9981 15.0582C50.9005 14.8143 50.7507 14.6297 50.5486 14.5042C50.3536 14.3719 50.1097 14.3057 49.817 14.3057C49.4896 14.3057 49.2108 14.3823 48.9809 14.5356C48.7579 14.6889 48.5872 14.9014 48.4688 15.1732C48.3503 15.4449 48.2911 15.7619 48.2911 16.1243V16.187C48.2911 16.8001 48.4339 17.2635 48.7196 17.577C49.0123 17.8836 49.4338 18.0369 49.9843 18.0369C50.1933 18.0369 50.4128 18.009 50.6427 17.9533C50.8796 17.8975 51.1026 17.8035 51.3116 17.6711C51.4301 17.6014 51.5346 17.5701 51.6252 17.577C51.7227 17.584 51.7994 17.6153 51.8551 17.6711C51.9178 17.7268 51.9561 17.7965 51.9701 17.8801C51.984 17.9637 51.9701 18.0508 51.9283 18.1414C51.8865 18.225 51.8133 18.3017 51.7088 18.3713C51.4719 18.5316 51.1966 18.6535 50.8831 18.7372C50.5696 18.8138 50.2665 18.8521 49.9738 18.8521ZM55.3578 18.8521C54.9397 18.8521 54.5878 18.779 54.3022 18.6326C54.0165 18.4863 53.804 18.2703 53.6646 17.9846C53.5253 17.699 53.4556 17.3506 53.4556 16.9395V14.4729H52.8285C52.6891 14.4729 52.5811 14.4381 52.5045 14.3684C52.4278 14.2917 52.3895 14.1907 52.3895 14.0653C52.3895 13.9329 52.4278 13.8319 52.5045 13.7622C52.5811 13.6925 52.6891 13.6577 52.8285 13.6577H53.4556V12.5812C53.4556 12.407 53.5009 12.2746 53.5915 12.184C53.689 12.0934 53.8214 12.0481 53.9886 12.0481C54.1558 12.0481 54.2847 12.0934 54.3753 12.184C54.4659 12.2746 54.5112 12.407 54.5112 12.5812V13.6577H55.734C55.8734 13.6577 55.9814 13.6925 56.058 13.7622C56.1347 13.8319 56.173 13.9329 56.173 14.0653C56.173 14.1907 56.1347 14.2917 56.058 14.3684C55.9814 14.4381 55.8734 14.4729 55.734 14.4729H54.5112V16.8559C54.5112 17.2252 54.5878 17.5039 54.7411 17.692C54.9014 17.8801 55.1592 17.9742 55.5146 17.9742C55.64 17.9742 55.748 17.9637 55.8386 17.9428C55.9361 17.915 56.0162 17.8975 56.0789 17.8906C56.1556 17.8906 56.2183 17.9184 56.2671 17.9742C56.3158 18.023 56.3402 18.1205 56.3402 18.2668C56.3402 18.3713 56.3193 18.4689 56.2775 18.5595C56.2427 18.6501 56.1765 18.7093 56.0789 18.7372C55.9953 18.765 55.8804 18.7894 55.734 18.8103C55.5947 18.8382 55.4693 18.8521 55.3578 18.8521ZM60.2795 18.8208C60.1123 18.8208 59.9834 18.772 59.8928 18.6744C59.8022 18.5699 59.7569 18.4271 59.7569 18.2459V14.1698C59.7569 13.9886 59.8022 13.8493 59.8928 13.7517C59.9834 13.6542 60.1123 13.6054 60.2795 13.6054C60.4467 13.6054 60.5756 13.6542 60.6662 13.7517C60.7638 13.8493 60.8125 13.9886 60.8125 14.1698V18.2459C60.8125 18.4271 60.7673 18.5699 60.6767 18.6744C60.5861 18.772 60.4537 18.8208 60.2795 18.8208ZM60.2795 12.5184C60.0705 12.5184 59.9067 12.4662 59.7883 12.3617C59.6768 12.2572 59.6211 12.1108 59.6211 11.9227C59.6211 11.7276 59.6768 11.5813 59.7883 11.4837C59.9067 11.3792 60.0705 11.327 60.2795 11.327C60.4885 11.327 60.6488 11.3792 60.7603 11.4837C60.8787 11.5813 60.938 11.7276 60.938 11.9227C60.938 12.1108 60.8787 12.2572 60.7603 12.3617C60.6488 12.4662 60.4885 12.5184 60.2795 12.5184ZM64.4723 18.8521C64.0543 18.8521 63.7024 18.779 63.4167 18.6326C63.131 18.4863 62.9185 18.2703 62.7792 17.9846C62.6398 17.699 62.5701 17.3506 62.5701 16.9395V14.4729H61.943C61.8037 14.4729 61.6957 14.4381 61.619 14.3684C61.5424 14.2917 61.5041 14.1907 61.5041 14.0653C61.5041 13.9329 61.5424 13.8319 61.619 13.7622C61.6957 13.6925 61.8037 13.6577 61.943 13.6577H62.5701V12.5812C62.5701 12.407 62.6154 12.2746 62.706 12.184C62.8035 12.0934 62.9359 12.0481 63.1032 12.0481C63.2704 12.0481 63.3993 12.0934 63.4899 12.184C63.5804 12.2746 63.6257 12.407 63.6257 12.5812V13.6577H64.8486C64.9879 13.6577 65.0959 13.6925 65.1726 13.7622C65.2492 13.8319 65.2875 13.9329 65.2875 14.0653C65.2875 14.1907 65.2492 14.2917 65.1726 14.3684C65.0959 14.4381 64.9879 14.4729 64.8486 14.4729H63.6257V16.8559C63.6257 17.2252 63.7024 17.5039 63.8557 17.692C64.0159 17.8801 64.2737 17.9742 64.6291 17.9742C64.7545 17.9742 64.8625 17.9637 64.9531 17.9428C65.0506 17.915 65.1308 17.8975 65.1935 17.8906C65.2701 17.8906 65.3328 17.9184 65.3816 17.9742C65.4304 18.023 65.4548 18.1205 65.4548 18.2668C65.4548 18.3713 65.4339 18.4689 65.3921 18.5595C65.3572 18.6501 65.291 18.7093 65.1935 18.7372C65.1099 18.765 64.9949 18.7894 64.8486 18.8103C64.7092 18.8382 64.5838 18.8521 64.4723 18.8521ZM71.0872 18.8521C70.5716 18.8521 70.1257 18.7441 69.7494 18.5281C69.3801 18.3121 69.091 18.0055 68.8819 17.6084C68.6729 17.2112 68.5684 16.7444 68.5684 16.2079C68.5684 15.7968 68.6276 15.431 68.7461 15.1104C68.8645 14.7899 69.0317 14.5147 69.2477 14.2848C69.4707 14.0479 69.7355 13.8702 70.0421 13.7517C70.3556 13.6263 70.704 13.5636 71.0872 13.5636C71.5959 13.5636 72.0348 13.6716 72.4041 13.8876C72.7804 14.1036 73.073 14.4102 73.2821 14.8073C73.4911 15.1975 73.5956 15.6644 73.5956 16.2079C73.5956 16.612 73.5364 16.9778 73.4179 17.3053C73.2995 17.6328 73.1288 17.9115 72.9058 18.1414C72.6898 18.3713 72.425 18.549 72.1115 18.6744C71.8049 18.7929 71.4635 18.8521 71.0872 18.8521ZM71.0872 18.0369C71.3729 18.0369 71.6237 17.9672 71.8397 17.8279C72.0557 17.6885 72.223 17.483 72.3414 17.2112C72.4668 16.9395 72.5295 16.605 72.5295 16.2079C72.5295 15.6086 72.3971 15.1557 72.1324 14.8492C71.8676 14.5426 71.5192 14.3893 71.0872 14.3893C70.7946 14.3893 70.5402 14.459 70.3242 14.5983C70.1082 14.7307 69.9375 14.9328 69.8121 15.2045C69.6937 15.4762 69.6344 15.8107 69.6344 16.2079C69.6344 16.8001 69.7668 17.253 70.0316 17.5666C70.2964 17.8801 70.6482 18.0369 71.0872 18.0369ZM75.3037 18.8312C75.1365 18.8312 75.0076 18.7859 74.917 18.6953C74.8264 18.5978 74.7811 18.4654 74.7811 18.2982V14.1175C74.7811 13.9433 74.8264 13.811 74.917 13.7204C75.0076 13.6298 75.133 13.5845 75.2933 13.5845C75.4605 13.5845 75.5859 13.6298 75.6695 13.7204C75.7601 13.811 75.8054 13.9433 75.8054 14.1175V14.9328L75.6904 14.7446C75.8437 14.3544 76.0841 14.0618 76.4116 13.8667C76.7391 13.6646 77.1153 13.5636 77.5403 13.5636C77.9445 13.5636 78.2789 13.6402 78.5437 13.7935C78.8154 13.9399 79.0175 14.1663 79.1499 14.4729C79.2823 14.7725 79.3485 15.1522 79.3485 15.6121V18.2982C79.3485 18.4654 79.3032 18.5978 79.2126 18.6953C79.122 18.7859 78.9931 18.8312 78.8259 18.8312C78.6517 18.8312 78.5193 18.7859 78.4287 18.6953C78.3382 18.5978 78.2929 18.4654 78.2929 18.2982V15.6748C78.2929 15.2359 78.2058 14.9153 78.0316 14.7133C77.8643 14.5112 77.5996 14.4102 77.2373 14.4102C76.8122 14.4102 76.4708 14.5426 76.213 14.8073C75.9622 15.0721 75.8367 15.4275 75.8367 15.8734V18.2982C75.8367 18.6535 75.6591 18.8312 75.3037 18.8312Z" fill="white"/>
<path d="M46.7292 37.1485C45.3269 37.1485 44.1441 36.8863 43.1808 36.362C42.2175 35.8255 41.4859 35.0634 40.986 34.0757C40.4983 33.088 40.2544 31.9114 40.2544 30.5457C40.2544 29.5214 40.3946 28.6069 40.6751 27.8021C40.9677 26.9852 41.3823 26.2901 41.9188 25.717C42.4675 25.1318 43.1321 24.6867 43.9124 24.3819C44.705 24.077 45.6013 23.9246 46.6011 23.9246C47.3327 23.9246 48.0522 24.0221 48.7594 24.2172C49.4666 24.4001 50.1129 24.705 50.6982 25.1318C50.8689 25.2537 50.9786 25.3939 51.0274 25.5524C51.0762 25.711 51.0762 25.8756 51.0274 26.0463C50.9908 26.2048 50.9115 26.345 50.7896 26.4669C50.6799 26.5889 50.5396 26.662 50.3689 26.6864C50.2104 26.7108 50.0336 26.662 49.8385 26.5401C49.363 26.2109 48.863 25.9731 48.3387 25.8268C47.8144 25.6683 47.2352 25.589 46.6011 25.589C45.65 25.589 44.8453 25.7841 44.1868 26.1743C43.5405 26.5645 43.0528 27.1315 42.7236 27.8753C42.3943 28.6069 42.2297 29.497 42.2297 30.5457C42.2297 32.1674 42.6138 33.399 43.382 34.2403C44.1502 35.0817 45.2903 35.5024 46.8023 35.5024C47.351 35.5024 47.8875 35.4536 48.4119 35.356C48.9484 35.2463 49.4605 35.0939 49.9483 34.8988L49.5642 35.8499V31.5882H47.2047C46.9608 31.5882 46.7657 31.5273 46.6194 31.4053C46.4853 31.2712 46.4182 31.0883 46.4182 30.8566C46.4182 30.625 46.4853 30.4542 46.6194 30.3445C46.7657 30.2226 46.9608 30.1616 47.2047 30.1616H50.3689C50.625 30.1616 50.8201 30.2287 50.9542 30.3628C51.0883 30.4969 51.1554 30.692 51.1554 30.9481V35.5572C51.1554 35.7767 51.1127 35.9657 51.0274 36.1242C50.9542 36.2706 50.8262 36.3803 50.6433 36.4535C50.119 36.6608 49.5032 36.8315 48.796 36.9656C48.0887 37.0875 47.3998 37.1485 46.7292 37.1485ZM57.7481 37.1485C56.8458 37.1485 56.0654 36.9595 55.4069 36.5815C54.7607 36.2035 54.2546 35.667 53.8888 34.972C53.523 34.2769 53.3401 33.46 53.3401 32.521C53.3401 31.8016 53.4438 31.1615 53.651 30.6006C53.8583 30.0397 54.151 29.558 54.529 29.1556C54.9192 28.741 55.3825 28.4301 55.919 28.2228C56.4678 28.0033 57.0774 27.8936 57.7481 27.8936C58.6382 27.8936 59.4064 28.0826 60.0527 28.4606C60.7111 28.8386 61.2232 29.3751 61.589 30.0701C61.9548 30.753 62.1378 31.57 62.1378 32.521C62.1378 33.2283 62.0341 33.8684 61.8268 34.4415C61.6195 35.0146 61.3208 35.5024 60.9306 35.9048C60.5526 36.3071 60.0892 36.6181 59.5405 36.8376C59.004 37.0449 58.4065 37.1485 57.7481 37.1485ZM57.7481 35.7219C58.248 35.7219 58.687 35.5999 59.065 35.356C59.443 35.1122 59.7356 34.7525 59.9429 34.2769C60.1624 33.8014 60.2721 33.2161 60.2721 32.521C60.2721 31.4724 60.0405 30.6798 59.5771 30.1433C59.1138 29.6068 58.5041 29.3385 57.7481 29.3385C57.2359 29.3385 56.7909 29.4605 56.4129 29.7043C56.0349 29.936 55.7361 30.2896 55.5167 30.7652C55.3094 31.2407 55.2057 31.826 55.2057 32.521C55.2057 33.5575 55.4374 34.3501 55.9008 34.8988C56.3641 35.4475 56.9799 35.7219 57.7481 35.7219ZM68.09 37.1485C67.1876 37.1485 66.4073 36.9595 65.7488 36.5815C65.1025 36.2035 64.5965 35.667 64.2307 34.972C63.8649 34.2769 63.682 33.46 63.682 32.521C63.682 31.8016 63.7856 31.1615 63.9929 30.6006C64.2002 30.0397 64.4929 29.558 64.8709 29.1556C65.2611 28.741 65.7244 28.4301 66.2609 28.2228C66.8096 28.0033 67.4193 27.8936 68.09 27.8936C68.9801 27.8936 69.7483 28.0826 70.3945 28.4606C71.053 28.8386 71.5651 29.3751 71.9309 30.0701C72.2967 30.753 72.4796 31.57 72.4796 32.521C72.4796 33.2283 72.376 33.8684 72.1687 34.4415C71.9614 35.0146 71.6627 35.5024 71.2725 35.9048C70.8945 36.3071 70.4311 36.6181 69.8824 36.8376C69.3459 37.0449 68.7484 37.1485 68.09 37.1485ZM68.09 35.7219C68.5899 35.7219 69.0289 35.5999 69.4069 35.356C69.7849 35.1122 70.0775 34.7525 70.2848 34.2769C70.5043 33.8014 70.614 33.2161 70.614 32.521C70.614 31.4724 70.3824 30.6798 69.919 30.1433C69.4556 29.6068 68.846 29.3385 68.09 29.3385C67.5778 29.3385 67.1328 29.4605 66.7548 29.7043C66.3768 29.936 66.078 30.2896 65.8585 30.7652C65.6513 31.2407 65.5476 31.826 65.5476 32.521C65.5476 33.5575 65.7793 34.3501 66.2426 34.8988C66.706 35.4475 67.3218 35.7219 68.09 35.7219ZM78.5965 40.4408C77.938 40.4408 77.2979 40.3737 76.676 40.2396C76.0663 40.1054 75.5115 39.886 75.0116 39.5811C74.8287 39.4836 74.7067 39.3616 74.6458 39.2153C74.5848 39.0812 74.5665 38.941 74.5909 38.7946C74.6275 38.6483 74.6945 38.5203 74.7921 38.4105C74.8896 38.3008 75.0055 38.2276 75.1396 38.191C75.2859 38.1545 75.4383 38.1789 75.5969 38.2642C76.1334 38.5569 76.6394 38.752 77.115 38.8495C77.6027 38.9592 78.0539 39.0141 78.4684 39.0141C79.322 39.0141 79.9621 38.7946 80.3889 38.3557C80.8157 37.9289 81.0291 37.2948 81.0291 36.4535V34.5879H81.1937C81.0108 35.2585 80.6267 35.7889 80.0414 36.1791C79.4561 36.5693 78.7794 36.7644 78.0112 36.7644C77.2064 36.7644 76.5053 36.5815 75.9078 36.2157C75.3103 35.8377 74.847 35.3195 74.5177 34.661C74.1885 33.9904 74.0239 33.21 74.0239 32.3199C74.0239 31.6492 74.1153 31.0456 74.2982 30.5091C74.4933 29.9726 74.7616 29.5092 75.103 29.119C75.4566 28.7289 75.8773 28.4301 76.3651 28.2228C76.865 28.0033 77.4137 27.8936 78.0112 27.8936C78.7916 27.8936 79.4683 28.0887 80.0414 28.4789C80.6267 28.8691 81.0047 29.3995 81.1754 30.0701L80.9925 30.3811V28.863C80.9925 28.5581 81.0718 28.3265 81.2303 28.168C81.401 28.0094 81.6266 27.9302 81.907 27.9302C82.1997 27.9302 82.4252 28.0094 82.5838 28.168C82.7423 28.3265 82.8215 28.5581 82.8215 28.863V36.234C82.8215 37.624 82.4618 38.6727 81.7424 39.3799C81.023 40.0871 79.9743 40.4408 78.5965 40.4408ZM78.4501 35.3195C78.9867 35.3195 79.4439 35.1975 79.8219 34.9537C80.1999 34.7098 80.4926 34.3623 80.6999 33.9111C80.9071 33.46 81.0108 32.9295 81.0108 32.3199C81.0108 31.4053 80.7791 30.6798 80.3158 30.1433C79.8646 29.6068 79.2427 29.3385 78.4501 29.3385C77.9258 29.3385 77.4747 29.4605 77.0967 29.7043C76.7187 29.9482 76.4199 30.2957 76.2004 30.7469C75.9931 31.1859 75.8895 31.7102 75.8895 32.3199C75.8895 33.2466 76.1212 33.9782 76.5845 34.5147C77.0479 35.0512 77.6698 35.3195 78.4501 35.3195ZM88.2858 37.1485C87.3347 37.1485 86.6153 36.8741 86.1275 36.3254C85.652 35.7645 85.4142 34.9598 85.4142 33.9111V24.894C85.4142 24.5891 85.4934 24.3575 85.652 24.1989C85.8105 24.0404 86.0361 23.9612 86.3287 23.9612C86.6214 23.9612 86.8469 24.0404 87.0054 24.1989C87.1762 24.3575 87.2615 24.5891 87.2615 24.894V33.8014C87.2615 34.411 87.3834 34.8683 87.6273 35.1731C87.8834 35.4658 88.2492 35.6121 88.7247 35.6121C88.8345 35.6121 88.932 35.6121 89.0174 35.6121C89.1027 35.5999 89.1881 35.5877 89.2734 35.5755C89.4198 35.5633 89.5234 35.606 89.5844 35.7036C89.6454 35.7889 89.6758 35.9718 89.6758 36.2523C89.6758 36.5083 89.621 36.7095 89.5112 36.8559C89.4015 36.99 89.2247 37.0753 88.9808 37.1119C88.8711 37.1241 88.7552 37.1302 88.6333 37.1302C88.5114 37.1424 88.3955 37.1485 88.2858 37.1485ZM95.1041 37.1485C94.1286 37.1485 93.2872 36.9656 92.58 36.5998C91.885 36.2218 91.3423 35.6914 90.9522 35.0085C90.5742 34.3135 90.3852 33.4904 90.3852 32.5393C90.3852 31.6126 90.5742 30.8018 90.9522 30.1067C91.3302 29.4117 91.8484 28.8691 92.5068 28.4789C93.1653 28.0887 93.9152 27.8936 94.7565 27.8936C95.3784 27.8936 95.9332 27.9972 96.421 28.2045C96.9087 28.3996 97.3233 28.6923 97.6647 29.0825C98.0183 29.4605 98.2805 29.9238 98.4512 30.4725C98.6341 31.0212 98.7255 31.637 98.7255 32.3199C98.7255 32.5271 98.6646 32.6857 98.5426 32.7954C98.4207 32.893 98.2378 32.9417 97.9939 32.9417H91.8484V31.8077H97.4818L97.1709 32.0638C97.1709 31.4541 97.0794 30.9359 96.8965 30.5091C96.7258 30.0823 96.4636 29.7592 96.11 29.5397C95.7686 29.308 95.3418 29.1922 94.8297 29.1922C94.2566 29.1922 93.7689 29.3263 93.3665 29.5946C92.9763 29.8629 92.6775 30.2348 92.4703 30.7103C92.263 31.1859 92.1593 31.7407 92.1593 32.3747V32.4845C92.1593 33.5575 92.4093 34.3684 92.9092 34.9171C93.4213 35.4536 94.1591 35.7219 95.1224 35.7219C95.4882 35.7219 95.8723 35.6731 96.2746 35.5755C96.6892 35.478 97.0794 35.3134 97.4452 35.0817C97.6525 34.9598 97.8354 34.9049 97.9939 34.9171C98.1646 34.9293 98.2988 34.9841 98.3963 35.0817C98.5061 35.1792 98.5731 35.3012 98.5975 35.4475C98.6219 35.5938 98.5975 35.7462 98.5244 35.9048C98.4512 36.0511 98.3232 36.1852 98.1403 36.3071C97.7257 36.5876 97.244 36.801 96.6953 36.9473C96.1466 37.0814 95.6162 37.1485 95.1041 37.1485ZM106.714 37.1119C106.41 37.1119 106.172 37.0266 106.001 36.8559C105.843 36.6851 105.763 36.4474 105.763 36.1425V25.0586C105.763 24.7416 105.849 24.5038 106.019 24.3453C106.19 24.1746 106.428 24.0892 106.733 24.0892H111.104C112.494 24.0892 113.567 24.4367 114.323 25.1318C115.079 25.8146 115.457 26.7779 115.457 28.0216C115.457 29.2776 115.079 30.253 114.323 30.9481C113.567 31.6309 112.494 31.9723 111.104 31.9723H107.666V36.1425C107.666 36.4474 107.586 36.6851 107.428 36.8559C107.269 37.0266 107.031 37.1119 106.714 37.1119ZM107.666 30.4542H110.83C111.744 30.4542 112.433 30.253 112.897 29.8507C113.372 29.4361 113.61 28.8264 113.61 28.0216C113.61 27.229 113.372 26.6316 112.897 26.2292C112.433 25.8146 111.744 25.6073 110.83 25.6073H107.666V30.4542ZM120.169 37.1485C119.218 37.1485 118.498 36.8741 118.011 36.3254C117.535 35.7645 117.297 34.9598 117.297 33.9111V24.894C117.297 24.5891 117.376 24.3575 117.535 24.1989C117.694 24.0404 117.919 23.9612 118.212 23.9612C118.504 23.9612 118.73 24.0404 118.888 24.1989C119.059 24.3575 119.145 24.5891 119.145 24.894V33.8014C119.145 34.411 119.266 34.8683 119.51 35.1731C119.766 35.4658 120.132 35.6121 120.608 35.6121C120.718 35.6121 120.815 35.6121 120.9 35.6121C120.986 35.5999 121.071 35.5877 121.156 35.5755C121.303 35.5633 121.406 35.606 121.467 35.7036C121.528 35.7889 121.559 35.9718 121.559 36.2523C121.559 36.5083 121.504 36.7095 121.394 36.8559C121.285 36.99 121.108 37.0753 120.864 37.1119C120.754 37.1241 120.638 37.1302 120.516 37.1302C120.394 37.1424 120.279 37.1485 120.169 37.1485ZM125.741 37.1485C125.119 37.1485 124.558 37.0266 124.058 36.7827C123.571 36.5388 123.187 36.2096 122.906 35.795C122.626 35.3804 122.486 34.911 122.486 34.3867C122.486 33.7282 122.65 33.21 122.979 32.832C123.321 32.4418 123.876 32.1674 124.644 32.0089C125.424 31.8382 126.473 31.7529 127.79 31.7529H128.649V32.8869H127.808C126.93 32.8869 126.235 32.9295 125.723 33.0149C125.211 33.1002 124.845 33.2466 124.625 33.4539C124.418 33.649 124.315 33.9233 124.315 34.2769C124.315 34.7403 124.473 35.1183 124.79 35.4109C125.107 35.6914 125.546 35.8316 126.107 35.8316C126.558 35.8316 126.954 35.728 127.296 35.5207C127.637 35.3012 127.906 35.0085 128.101 34.6427C128.308 34.2769 128.412 33.8562 128.412 33.3807V31.2773C128.412 30.5823 128.265 30.0823 127.973 29.7775C127.68 29.4727 127.198 29.3202 126.528 29.3202C126.137 29.3202 125.729 29.369 125.302 29.4666C124.888 29.5641 124.455 29.7287 124.004 29.9604C123.796 30.058 123.62 30.0884 123.473 30.0519C123.327 30.0153 123.211 29.936 123.126 29.8141C123.04 29.68 122.992 29.5397 122.979 29.3934C122.979 29.2349 123.016 29.0825 123.089 28.9361C123.174 28.7898 123.315 28.6801 123.51 28.6069C124.046 28.3509 124.577 28.168 125.101 28.0582C125.625 27.9485 126.119 27.8936 126.583 27.8936C127.4 27.8936 128.07 28.0216 128.594 28.2777C129.131 28.5338 129.527 28.924 129.783 29.4483C130.039 29.9726 130.167 30.6493 130.167 31.4785V36.1791C130.167 36.4718 130.094 36.7034 129.948 36.8741C129.802 37.0327 129.588 37.1119 129.308 37.1119C129.04 37.1119 128.826 37.0327 128.668 36.8741C128.509 36.7034 128.43 36.4718 128.43 36.1791V34.9902H128.594C128.497 35.4414 128.314 35.8316 128.046 36.1608C127.79 36.4779 127.467 36.7217 127.076 36.8924C126.686 37.0631 126.241 37.1485 125.741 37.1485ZM134.726 40.4042C134.506 40.4042 134.324 40.3432 134.177 40.2213C134.043 40.1115 133.964 39.9591 133.939 39.764C133.927 39.5811 133.964 39.3799 134.049 39.1604L135.293 36.362V37.1485L131.873 29.1922C131.787 28.9727 131.757 28.7654 131.781 28.5703C131.806 28.3752 131.897 28.2228 132.056 28.1131C132.214 27.9911 132.427 27.9302 132.696 27.9302C132.927 27.9302 133.11 27.985 133.244 28.0948C133.379 28.2045 133.5 28.3935 133.61 28.6618L136.372 35.4841H135.86L138.658 28.6618C138.768 28.3813 138.896 28.1923 139.042 28.0948C139.189 27.985 139.39 27.9302 139.646 27.9302C139.865 27.9302 140.036 27.9911 140.158 28.1131C140.292 28.2228 140.372 28.3752 140.396 28.5703C140.432 28.7532 140.402 28.9544 140.304 29.1739L135.732 39.6909C135.61 39.9713 135.47 40.1603 135.311 40.2579C135.165 40.3554 134.97 40.4042 134.726 40.4042Z" fill="white"/>
<defs>
<clipPath id="clip0_8423_972">
<rect width="22.2097" height="26.129" fill="white" transform="translate(9.14453 11.7578)"/>
</clipPath>
</defs>
</svg>
