<svg width="59" height="54" viewBox="0 0 59 54" fill="none" xmlns="http://www.w3.org/2000/svg">
<path d="M13.7812 22.5938C16.1354 21.6979 18.1979 20.8542 19.9688 20.0625C21.7396 19.25 23.2917 18.4167 24.625 17.5625C25.9583 16.6875 27.1354 15.7396 28.1562 14.7188C29.1771 13.6979 30.1146 12.5104 30.9688 11.1562C31.8229 9.80208 32.6458 8.23958 33.4375 6.46875C34.25 4.67708 35.1042 2.58333 36 0.1875C36.8958 2.58333 37.7396 4.67708 38.5312 6.46875C39.3438 8.23958 40.1771 9.80208 41.0312 11.1562C41.8854 12.5104 42.8125 13.6979 43.8125 14.7188C44.8333 15.7396 46.0104 16.6875 47.3438 17.5625C48.6979 18.4167 50.25 19.25 52 20.0625C53.7708 20.8542 55.8333 21.6979 58.1875 22.5938C55.8333 23.5104 53.7708 24.3646 52 25.1562C50.25 25.9479 48.6979 26.7812 47.3438 27.6562C46.0104 28.5104 44.8333 29.4479 43.8125 30.4688C42.8125 31.4896 41.8854 32.6771 41.0312 34.0312C40.1771 35.3854 39.3438 36.9583 38.5312 38.75C37.7396 40.5208 36.8958 42.6042 36 45C35.0833 42.6042 34.2292 40.5208 33.4375 38.75C32.6458 36.9583 31.8229 35.3854 30.9688 34.0312C30.1146 32.6771 29.1771 31.4896 28.1562 30.4688C27.1354 29.4479 25.9583 28.5104 24.625 27.6562C23.2917 26.7812 21.7396 25.9479 19.9688 25.1562C18.1979 24.3438 16.1354 23.4896 13.7812 22.5938Z" fill="#340831"/>
<path d="M5.05664 37.998C5.79232 37.7181 6.43685 37.4544 6.99023 37.207C7.54362 36.9531 8.02865 36.6927 8.44531 36.4258C8.86198 36.1523 9.22982 35.8561 9.54883 35.5371C9.86784 35.2181 10.1608 34.847 10.4277 34.4238C10.6947 34.0007 10.9518 33.5124 11.1992 32.959C11.4531 32.3991 11.7201 31.7448 12 30.9961C12.2799 31.7448 12.5436 32.3991 12.791 32.959C13.0449 33.5124 13.3053 34.0007 13.5723 34.4238C13.8392 34.847 14.1289 35.2181 14.4414 35.5371C14.7604 35.8561 15.1283 36.1523 15.5449 36.4258C15.9681 36.6927 16.4531 36.9531 17 37.207C17.5534 37.4544 18.1979 37.7181 18.9336 37.998C18.1979 38.2845 17.5534 38.5514 17 38.7988C16.4531 39.0462 15.9681 39.3066 15.5449 39.5801C15.1283 39.847 14.7604 40.14 14.4414 40.459C14.1289 40.778 13.8392 41.1491 13.5723 41.5723C13.3053 41.9954 13.0449 42.487 12.791 43.0469C12.5436 43.6003 12.2799 44.2513 12 45C11.7135 44.2513 11.4466 43.6003 11.1992 43.0469C10.9518 42.487 10.6947 41.9954 10.4277 41.5723C10.1608 41.1491 9.86784 40.778 9.54883 40.459C9.22982 40.14 8.86198 39.847 8.44531 39.5801C8.02865 39.3066 7.54362 39.0462 6.99023 38.7988C6.43685 38.5449 5.79232 38.278 5.05664 37.998Z" fill="#340831"/>
</svg>
