<svg width="19" height="18" viewBox="0 0 19 18" fill="none" xmlns="http://www.w3.org/2000/svg">
<path d="M18.1143 14.024C18.1143 15.0053 17.7943 15.816 17.1543 16.456C16.5569 17.0533 15.7676 17.352 14.7863 17.352C13.8049 17.352 12.9943 17.0107 12.3542 16.328C11.7143 15.6453 11.3943 14.6427 11.3943 13.32C11.3943 11.656 11.9063 9.71466 12.9303 7.496C13.9969 5.27733 15.4263 3.05866 17.2183 0.839996L18.5623 2.056C17.2396 3.80533 16.2796 5.384 15.6823 6.792C15.0849 8.15733 14.7436 9.45867 14.6583 10.696H14.7863C15.7676 10.696 16.5569 11.016 17.1543 11.656C17.7943 12.2533 18.1143 13.0427 18.1143 14.024ZM7.36225 14.024C7.36225 15.0053 7.06358 15.816 6.46625 16.456C5.86892 17.0533 5.07958 17.352 4.09825 17.352C3.11692 17.352 2.30625 17.0107 1.66625 16.328C1.02625 15.6453 0.70625 14.6427 0.70625 13.32C0.70625 11.656 1.21825 9.71466 2.24225 7.496C3.26625 5.27733 4.67425 3.05866 6.46625 0.839996L7.87425 2.056C6.55158 3.80533 5.57025 5.384 4.93025 6.792C4.33292 8.15733 3.99158 9.45867 3.90625 10.696H4.09825C5.07958 10.696 5.86892 11.016 6.46625 11.656C7.06358 12.2533 7.36225 13.0427 7.36225 14.024Z" fill="white"/>
</svg>
