<svg width="20" height="18" viewBox="0 0 20 18" fill="none" xmlns="http://www.w3.org/2000/svg">
<path d="M11.1443 0.633009C10.9334 0.234571 10.5936 0.023634 10.1248 0.000196457C9.67949 0.023634 9.33965 0.234571 9.10527 0.633009L6.85527 5.27363L1.79277 6.04707C1.34746 6.11738 1.05449 6.36348 0.913867 6.78535C0.773242 7.23066 0.866992 7.61738 1.19512 7.94551L4.85137 11.5666L3.97246 16.6994C3.92559 17.1447 4.07793 17.508 4.42949 17.7893C4.80449 18.0471 5.20293 18.0705 5.6248 17.8596L10.1248 15.4689L14.66 17.8596C15.0584 18.0705 15.4451 18.0471 15.8201 17.7893C16.1951 17.508 16.3475 17.1447 16.2771 16.6994L15.4334 11.5666L19.0896 7.94551C19.3943 7.61738 19.4881 7.23066 19.3709 6.78535C19.2068 6.36348 18.9021 6.11738 18.4568 6.04707L13.3943 5.27363L11.1443 0.633009Z" fill="#C5B149"/>
</svg>
