<svg width="52" height="52" viewBox="0 0 52 52" fill="none" xmlns="http://www.w3.org/2000/svg">
<rect x="0.929688" y="26" width="36" height="36" rx="18" transform="rotate(-45 0.929688 26)" fill="white"/>
<path d="M20.4526 21.4816V20.3878C20.4774 19.9155 20.8503 19.5426 21.2978 19.5426L30.968 19.5178C31.4403 19.5426 31.8132 19.9155 31.8132 20.363V30.0581C31.8132 30.5055 31.4403 30.8784 30.968 30.9033H29.8742C29.4019 30.8784 29.029 30.5055 29.0041 30.0332L29.1533 24.1664L22.0187 31.301C21.6707 31.6491 21.1735 31.6491 20.8254 31.301L20.0299 30.5055C19.7068 30.1824 19.6819 29.6603 20.0299 29.3123L27.1645 22.1777L21.3226 22.3517C20.8503 22.3269 20.4526 21.9788 20.4526 21.4816Z" fill="#4A2848"/>
</svg>
