<svg width="220" height="55" viewBox="0 0 220 55" fill="none" xmlns="http://www.w3.org/2000/svg">
<g clip-path="url(#clip0_8445_1646)">
<g clip-path="url(#clip1_8445_1646)">
<path d="M27.5 49.225C29.425 48.565 31.185 47.74 32.89 46.695C33.44 46.365 33.935 46.035 34.43 45.705C39.05 42.185 41.195 35.97 39.215 30.14C38.335 27.555 36.85 25.41 34.87 23.815C34.485 23.485 34.045 23.21 33.66 22.935C29.425 20.02 24.475 18.865 19.69 19.305C26.84 15.95 35.585 16.72 42.075 22.055C43.175 22.935 44.165 23.98 45.045 25.025C45.045 22.33 44.605 19.525 43.725 16.83C41.415 10.065 36.63 4.89498 30.745 1.97998C40.26 3.07998 48.785 9.56998 52.03 19.305C54.56 26.785 53.405 34.65 49.5 40.92C47.3 44.44 44.275 47.465 40.535 49.61C39.105 50.435 37.51 51.15 35.86 51.7C29.205 53.9 22.33 53.295 16.5 50.435C20.13 50.82 23.815 50.435 27.5 49.225Z" fill="#274666"/>
<path d="M29.7553 41.1398C28.3253 41.6348 26.9503 41.9098 25.5203 42.0198C25.0803 42.0748 24.6403 42.0749 24.2003 42.0749C19.9653 42.0749 16.0053 39.3798 14.5753 35.0898C13.9703 33.2198 13.9153 31.2948 14.3003 29.5348C14.4103 29.1498 14.4653 28.8199 14.6303 28.4899C15.8403 24.9699 18.2053 22.0549 21.1753 20.2399C15.5103 21.4499 10.7803 25.7399 9.35028 31.6799C9.13028 32.6699 8.96528 33.7149 8.91028 34.7049C7.70028 33.1099 6.76528 31.3498 6.10528 29.3698C4.45528 24.4748 4.95028 19.3598 7.09528 15.0698C2.03529 19.9098 -0.0547166 27.4449 2.31028 34.4849C4.12528 39.9849 8.25028 44.0549 13.2553 45.9799C16.0603 47.0799 19.1403 47.5199 22.2753 47.0799C23.4853 46.9149 24.6953 46.6399 25.9053 46.2549C30.7453 44.6599 34.4853 41.2498 36.6303 37.0148C34.7053 38.8298 32.3953 40.2598 29.7553 41.1398Z" fill="#274666"/>
<path d="M31.2398 15.125C33.852 15.125 35.9698 13.0074 35.9698 10.395C35.9698 7.78276 33.852 5.66504 31.2398 5.66504C28.6274 5.66504 26.5098 7.78276 26.5098 10.395C26.5098 13.0074 28.6274 15.125 31.2398 15.125Z" fill="#274666"/>
<path d="M10.3943 23.485C12.3688 23.485 13.9693 21.8844 13.9693 19.91C13.9693 17.9355 12.3688 16.335 10.3943 16.335C8.41995 16.335 6.81934 17.9355 6.81934 19.91C6.81934 21.8844 8.41995 23.485 10.3943 23.485Z" fill="#274666"/>
<path d="M30.1395 24.585C29.4245 24.585 28.7645 24.75 28.1045 25.025C27.4995 25.3 26.9495 25.74 26.5095 26.29C26.0695 25.74 25.5195 25.3 24.9145 25.025C24.3095 24.75 23.5945 24.585 22.8795 24.585C20.3495 24.585 18.3145 26.565 18.3145 29.04C18.3145 31.68 19.6345 33.275 20.6795 34.485L20.8995 34.76C22.1645 36.245 26.0145 38.94 26.1795 39.105C26.2895 39.16 26.3995 39.215 26.5095 39.215C26.6195 39.215 26.7295 39.16 26.8395 39.105C27.0045 38.995 30.9095 36.3 32.1195 34.76L32.3395 34.485C33.3845 33.22 34.7045 31.68 34.7045 29.04C34.7045 26.565 32.6145 24.585 30.1395 24.585Z" fill="#F68E50"/>
<path d="M64.7346 15.4002C65.1746 14.9052 65.8346 14.4651 66.5496 14.1351C67.2646 13.8601 68.0896 13.6951 68.9146 13.6951C69.7396 13.6951 70.2896 13.7502 70.6746 13.9152C71.1146 14.0802 71.4996 14.2451 71.8846 14.4101C72.2696 14.5751 72.4896 14.7402 72.6546 14.9052C72.8746 15.0702 73.2046 15.1802 73.4246 15.1802C73.6996 15.1802 73.9196 15.1251 74.0296 14.9601L74.3596 14.6302L75.6796 12.8152L75.5146 12.6502C74.7446 11.8802 73.8096 11.2751 72.7096 10.8351C71.4996 10.3401 70.2346 10.1201 68.8596 10.1201C67.3196 10.1201 65.9996 10.3401 64.7896 10.8351C63.5246 11.3301 62.4796 12.0451 61.5996 12.8701C60.7196 13.7501 60.0596 14.7951 59.5646 16.0601C59.0696 17.2701 58.8496 18.5902 58.8496 20.1302C58.8496 21.5602 59.0696 22.9351 59.5096 24.1451C59.9496 25.4101 60.6096 26.4551 61.3796 27.3351C62.2046 28.2151 63.1946 28.8751 64.4046 29.3701C65.5596 29.8651 66.8246 30.0851 68.3096 30.0851C69.8496 30.0851 71.2796 29.8102 72.4896 29.3152C73.6446 28.8202 74.6346 28.0501 75.4596 27.0601L75.6246 26.8951L74.0846 25.2451C73.8646 25.0251 73.6446 24.9152 73.4246 24.9152C73.2596 24.9152 73.0946 24.9702 72.9846 25.0252C72.8746 25.0802 72.7646 25.1351 72.5996 25.2451C72.3246 25.5201 72.0496 25.7402 71.7746 25.9052C71.4996 26.0702 71.1696 26.2351 70.8946 26.3451C70.5646 26.4551 70.2346 26.5102 69.8496 26.5652C69.4646 26.6202 69.0246 26.6201 68.5846 26.6201C67.8696 26.6201 67.0996 26.4552 66.4396 26.1802C65.7796 25.9052 65.2296 25.4651 64.7346 24.9701C64.2946 24.4751 63.9096 23.8702 63.5246 22.9902C63.2496 22.1102 63.0846 21.1752 63.0846 20.2402C63.0846 19.3052 63.2496 18.3702 63.5246 17.4902C63.8546 16.7202 64.2396 16.0052 64.7346 15.4002Z" fill="#274666"/>
<path d="M88.6052 17.6C87.9452 16.94 87.2302 16.445 86.4052 16.17C85.5802 15.84 84.5902 15.675 83.5452 15.675C82.5002 15.675 81.5102 15.84 80.6852 16.17C79.8052 16.5 79.0352 17.05 78.4852 17.6C77.8802 18.205 77.4402 18.92 77.1102 19.91C76.7802 20.79 76.6152 21.78 76.6152 22.88C76.6152 23.98 76.7802 25.025 77.1102 25.905C77.4952 26.895 77.9352 27.61 78.4852 28.215C79.1452 28.875 79.8602 29.3701 80.6852 29.6451C81.5102 29.975 82.5002 30.14 83.5452 30.14C84.5902 30.14 85.5802 29.975 86.4052 29.6451C87.2302 29.3151 87.9452 28.82 88.6052 28.215C89.2102 27.61 89.6502 26.895 89.9802 25.905C90.3102 25.025 90.4752 23.98 90.4752 22.88C90.4752 21.78 90.3102 20.735 89.9802 19.91C89.7052 19.085 89.2102 18.315 88.6052 17.6ZM85.8002 26.125C85.3052 26.785 84.5902 27.06 83.5452 27.06C82.4452 27.06 81.7302 26.7301 81.2902 26.0701C80.7952 25.3551 80.5202 24.255 80.5202 22.935C80.5202 21.56 80.7402 20.515 81.2902 19.745C81.7852 19.03 82.5552 18.7 83.5452 18.7C84.6452 18.7 85.3602 19.03 85.8002 19.745C86.2952 20.46 86.5702 21.56 86.5702 22.935C86.5702 24.31 86.3502 25.355 85.8002 26.125Z" fill="#274666"/>
<path d="M103.62 17.215C103.235 16.72 102.795 16.39 102.08 16.06C101.475 15.785 100.815 15.675 99.9904 15.675C99.5504 15.675 99.1104 15.73 98.6154 15.785C98.2304 15.895 97.8454 16.005 97.5154 16.17C97.1854 16.335 96.8554 16.555 96.5254 16.775C96.4154 16.885 96.3054 16.94 96.1954 17.05C96.1404 17.105 96.0854 17.16 96.0304 17.215L95.9204 16.61C95.7554 16.115 95.3154 15.84 94.8204 15.84H92.5654V29.92H96.3604V20.02C96.7454 19.635 97.1854 19.36 97.6254 19.14C98.1204 18.92 98.6154 18.755 99.0554 18.755C99.7154 18.755 100.265 18.975 100.54 19.305C100.87 19.745 101.09 20.35 101.09 21.065V29.92H104.885V21.065C104.885 20.295 104.775 19.58 104.555 18.865C104.225 18.095 103.95 17.6 103.62 17.215Z" fill="#274666"/>
<path d="M116.765 23.705C116.545 23.54 116.38 23.375 116.215 23.21C116.105 23.045 115.94 22.935 115.775 22.825C115.39 22.495 115.005 22.22 114.675 22.11C114.51 22.055 114.29 21.945 114.07 21.89C113.85 21.835 113.63 21.725 113.465 21.615C113.025 21.45 112.64 21.34 112.255 21.23C112.035 21.175 111.815 21.065 111.65 21.01C111.485 20.955 111.375 20.9 111.265 20.845C110.99 20.68 110.715 20.515 110.55 20.35C110.44 20.24 110.385 20.075 110.385 19.8C110.385 19.47 110.55 19.14 110.825 18.975C111.1 18.755 111.54 18.59 112.2 18.59C112.585 18.59 112.915 18.645 113.19 18.7C113.3 18.755 113.41 18.81 113.575 18.81C113.74 18.865 113.85 18.92 113.96 18.975C114.18 19.085 114.4 19.195 114.565 19.25C114.785 19.36 114.95 19.415 115.225 19.415C115.445 19.415 115.665 19.305 115.72 19.305C115.83 19.25 115.995 19.14 116.105 18.92L116.985 17.6L116.82 17.435C116.27 16.885 115.61 16.445 114.785 16.17C114.015 15.84 113.135 15.675 112.145 15.675C111.32 15.675 110.55 15.785 109.835 16.005C109.175 16.225 108.625 16.555 108.13 16.94C107.635 17.325 107.305 17.82 107.085 18.37C106.865 18.865 106.755 19.47 106.755 20.075C106.755 20.625 106.865 21.23 107.03 21.725C107.305 22.22 107.525 22.605 107.855 22.88C108.185 23.155 108.625 23.43 108.955 23.65L109.23 23.76C109.56 23.925 109.89 24.035 110.22 24.1451C110.66 24.3101 111.045 24.42 111.43 24.53C111.76 24.64 112.09 24.75 112.475 24.915C112.75 25.08 113.025 25.245 113.19 25.41C113.3 25.52 113.355 25.74 113.355 26.015C113.355 26.125 113.3 26.345 113.245 26.51C113.19 26.675 113.08 26.785 112.97 26.8951C112.805 27.005 112.585 27.115 112.365 27.225C112.09 27.335 111.815 27.335 111.485 27.335C110.99 27.335 110.605 27.2801 110.385 27.17C110.055 27.0601 109.78 26.95 109.56 26.84C109.395 26.785 109.23 26.675 109.12 26.565L108.955 26.455C108.735 26.345 108.515 26.235 108.24 26.235C107.965 26.235 107.745 26.29 107.58 26.4C107.415 26.51 107.305 26.62 107.14 26.84L106.26 28.2701L106.425 28.435L106.48 28.49C106.755 28.71 107.03 28.93 107.36 29.095C107.635 29.26 107.965 29.425 108.295 29.59L108.515 29.7C109.01 29.865 109.395 29.975 109.835 30.03C110.275 30.14 110.77 30.14 111.21 30.14C112.145 30.14 112.97 30.03 113.63 29.8101C114.345 29.59 114.895 29.26 115.445 28.8201C115.885 28.4351 116.27 27.94 116.6 27.28C116.765 26.84 116.985 26.125 116.985 25.355C117.04 24.75 116.93 24.2 116.765 23.705Z" fill="#274666"/>
<path d="M122.76 10.5051C122.595 10.3401 122.375 10.23 122.155 10.065L121.99 9.95509C121.715 9.84509 121.385 9.79004 121.055 9.79004C120.725 9.79004 120.45 9.84509 120.12 9.95509C119.845 10.0651 119.625 10.23 119.35 10.45C119.075 10.725 118.91 10.945 118.855 11.22C118.745 11.495 118.69 11.8251 118.69 12.1551C118.69 12.4851 118.745 12.76 118.855 13.09C118.965 13.365 119.13 13.585 119.35 13.86C119.625 14.135 119.845 14.2451 120.12 14.3551C120.395 14.4651 120.725 14.52 121.055 14.52C121.385 14.52 121.66 14.4651 121.99 14.3551C122.265 14.2451 122.485 14.08 122.76 13.86C123.035 13.585 123.145 13.365 123.255 13.09C123.365 12.815 123.42 12.4851 123.42 12.1551C123.42 11.8251 123.365 11.55 123.255 11.22C123.145 11 122.98 10.7801 122.76 10.5051Z" fill="#274666"/>
<path d="M122.98 15.895H119.185V29.9751H122.98V15.895Z" fill="#274666"/>
<path d="M134.31 16.6649C133.98 16.4449 133.65 16.2249 133.265 16.0049C132.715 15.7299 132.055 15.6199 131.23 15.6199C130.24 15.6199 129.415 15.7849 128.7 16.1699C127.875 16.6099 127.27 17.1049 126.775 17.7649C126.225 18.5349 125.785 19.3049 125.565 20.1299C125.29 21.0649 125.125 22.0549 125.125 23.0449C125.125 24.2549 125.235 25.2449 125.51 26.0149C125.73 26.8949 126.115 27.6649 126.555 28.2699C126.995 28.8749 127.545 29.3149 128.26 29.6999C128.975 30.0299 129.635 30.1949 130.405 30.1949C130.9 30.1949 131.34 30.1399 131.78 30.0299C132.165 29.9199 132.55 29.8099 132.935 29.5899C133.21 29.4799 133.485 29.2599 133.76 29.0949C133.87 29.0399 133.925 28.9849 134.035 28.8749C134.145 28.7649 134.255 28.6549 134.365 28.5999C134.42 28.5449 134.475 28.4899 134.585 28.4349L134.75 29.2599C134.915 29.7549 135.355 30.0299 135.85 30.0299H138.105V9.8999H134.31V16.6649ZM134.365 25.5749C133.98 26.0699 133.595 26.3999 133.155 26.6199C132.77 26.8949 132.22 27.0049 131.56 27.0049C131.12 27.0049 130.79 26.9499 130.515 26.7849C130.24 26.6749 130.02 26.4549 129.8 26.1249C129.58 25.7949 129.415 25.4099 129.305 24.9149C129.195 24.3649 129.14 23.7049 129.14 22.9349C129.14 22.1099 129.195 21.4499 129.36 21.0099C129.525 20.4599 129.69 20.0199 129.965 19.6899C130.24 19.3599 130.515 19.0849 130.845 18.9749C131.23 18.8099 131.67 18.6999 132.055 18.6999C132.495 18.6999 132.935 18.8099 133.32 18.9749C133.705 19.1399 134.09 19.4149 134.365 19.7999V25.5749Z" fill="#274666"/>
<path d="M150.04 16.1699C149.655 15.7849 149.105 15.5649 148.335 15.5649C147.51 15.5649 146.74 15.8399 145.97 16.3349C145.475 16.6649 145.035 17.1599 144.595 17.7099L144.485 16.83C144.43 16.555 144.32 16.1699 144.1 16.0599C143.935 15.8949 143.66 15.7849 143.22 15.7849H141.02V29.8649H144.815V21.23C145.145 20.515 145.53 20.0199 145.915 19.7449C146.355 19.4149 146.905 19.1949 147.51 19.1949C147.895 19.1949 148.17 19.25 148.39 19.305C148.61 19.36 148.83 19.4149 148.995 19.4149C149.215 19.4149 149.435 19.3049 149.49 19.2499C149.6 19.1399 149.765 18.975 149.765 18.755L150.205 16.1699L150.15 16.1149L150.04 16.1699Z" fill="#274666"/>
<path d="M162.745 21.0652C162.69 20.8452 162.635 20.6801 162.635 20.4601C162.525 19.9101 162.415 19.4151 162.25 18.9201C162.03 18.2601 161.7 17.7101 161.26 17.1601C160.82 16.7201 160.325 16.3352 159.555 16.0052C158.895 15.7302 158.18 15.6201 157.3 15.6201C155.045 15.6201 153.01 16.3902 151.525 17.8752L151.36 18.0402L152.075 19.2502C152.185 19.4152 152.35 19.5802 152.57 19.8002C152.79 19.9652 153.065 20.0201 153.285 20.0201C153.615 20.0201 153.89 19.9652 154.165 19.8002C154.275 19.7452 154.44 19.6352 154.605 19.5252C154.715 19.4702 154.77 19.4151 154.88 19.3601C155.155 19.1951 155.485 19.0852 155.76 18.9752C156.09 18.8652 156.475 18.8101 156.97 18.8101C157.575 18.8101 158.125 19.0301 158.4 19.3601C158.73 19.7451 158.95 20.4052 158.95 21.2302V21.7252C157.685 21.7252 156.42 21.8901 155.265 22.1101C154.11 22.4401 153.285 22.7702 152.68 23.1552C151.965 23.6502 151.525 24.0902 151.25 24.6402C150.975 25.1902 150.81 25.7402 150.81 26.2902C150.81 26.9502 150.92 27.5551 151.14 27.9951C151.36 28.4901 151.635 28.8751 152.02 29.2601C152.405 29.5901 152.845 29.8102 153.395 29.9752C153.835 30.1402 154.385 30.1951 155.1 30.1951C155.595 30.1951 156.035 30.1401 156.475 30.0851C156.86 30.0301 157.245 29.8652 157.685 29.7002C158.07 29.5352 158.4 29.3151 158.73 29.0951C158.95 28.9301 159.225 28.7651 159.445 28.5451L159.61 29.0951C159.72 29.4251 159.94 29.7001 160.16 29.8101C160.435 29.9201 160.655 29.9752 161.04 29.9752H162.8L162.745 21.0652ZM158.895 26.0701C158.675 26.2901 158.51 26.4002 158.29 26.5652C158.07 26.7302 157.85 26.8952 157.575 27.0052C157.41 27.1152 157.135 27.2252 156.86 27.2802C156.585 27.3352 156.31 27.3902 155.98 27.3902C155.485 27.3902 155.1 27.2802 154.825 27.1152C154.55 26.8402 154.44 26.5102 154.44 26.0152C154.44 25.7402 154.495 25.5752 154.66 25.3552C154.77 25.1902 154.99 24.9702 155.375 24.8052C155.815 24.5852 156.31 24.4752 156.86 24.3652C157.465 24.2552 158.125 24.2002 158.95 24.2002V26.0701H158.895Z" fill="#274666"/>
<path d="M179.355 25.4651C179.245 25.4651 178.97 25.465 178.75 25.685C178.42 25.96 178.09 26.2351 177.76 26.4551C177.43 26.6751 177.1 26.8401 176.715 26.9501C176.33 27.0601 175.945 27.1701 175.505 27.2251C175.065 27.2801 174.57 27.335 174.02 27.335C173.14 27.335 172.26 27.1701 171.545 26.8401C170.83 26.5651 170.17 26.07 169.565 25.41C168.96 24.75 168.52 23.98 168.19 23.21C167.86 22.33 167.695 21.34 167.695 20.185C167.695 19.085 167.86 18.0401 168.19 17.2151C168.52 16.2801 168.96 15.565 169.565 14.96C170.17 14.355 170.885 13.8601 171.6 13.5301C172.425 13.2001 173.305 13.035 174.24 13.035C174.68 13.035 175.12 13.09 175.67 13.145C176.11 13.2 176.44 13.31 176.77 13.42C177.1 13.53 177.375 13.6401 177.54 13.8051C177.705 13.9151 177.815 13.9701 177.925 14.0801C177.98 14.1351 178.09 14.1901 178.145 14.1901C178.31 14.3001 178.475 14.41 178.585 14.52C178.75 14.63 178.97 14.685 179.08 14.685C179.3 14.685 179.52 14.5751 179.575 14.5751C179.685 14.5201 179.74 14.465 179.795 14.41C179.85 14.355 179.85 14.3551 179.905 14.3001L180.895 12.9801L180.73 12.8151C180.015 12.1001 179.135 11.4951 177.925 11.0551C176.88 10.6151 175.615 10.395 174.24 10.395C172.755 10.395 171.435 10.615 170.28 11.11C169.015 11.66 167.97 12.32 167.2 13.145C166.375 14.025 165.715 15.07 165.22 16.335C164.725 17.655 164.505 18.9751 164.505 20.3501C164.505 21.7801 164.725 23.1551 165.165 24.3651C165.66 25.6851 166.265 26.6751 167.035 27.5001C167.75 28.3251 168.74 29.0401 169.95 29.5901C170.995 30.0851 172.315 30.3051 173.745 30.3051C175.285 30.3051 176.66 30.03 177.87 29.535C179.025 28.985 180.015 28.2701 180.785 27.3901L180.95 27.2251L179.795 25.96C179.795 25.575 179.63 25.4651 179.355 25.4651Z" fill="#F68E50"/>
<path d="M192.555 17.3251C192.17 16.8851 191.565 16.4451 190.96 16.2251C190.355 15.9501 189.695 15.8401 188.87 15.8401C187.77 15.8401 186.78 16.0051 185.9 16.3901C184.855 16.8301 184.085 17.3801 183.425 18.0401L183.26 18.2051L183.81 19.1401C183.865 19.3051 183.975 19.4151 184.085 19.4701C184.14 19.4701 184.14 19.5251 184.195 19.5801C184.36 19.6901 184.58 19.7451 184.745 19.7451C184.965 19.7451 185.295 19.6351 185.515 19.4701C185.735 19.3051 185.955 19.1401 186.23 18.9751C186.505 18.8101 186.835 18.6451 187.22 18.4801C187.605 18.3701 188.045 18.2601 188.54 18.2601C189.365 18.2601 189.915 18.4801 190.3 18.9201C190.685 19.3601 190.85 20.0751 190.85 21.1201V21.8901C189.365 21.8901 188.155 22.0001 187.275 22.2751C186.285 22.4951 185.35 22.8251 184.635 23.2101C183.92 23.5951 183.425 24.0901 183.095 24.6401C182.765 25.0801 182.655 25.6301 182.655 26.2901C182.655 26.8951 182.765 27.5001 182.985 27.9951C183.26 28.5451 183.535 28.9301 183.81 29.2051C184.14 29.5351 184.58 29.7551 185.075 29.8651C185.57 30.0301 186.175 30.0851 186.615 30.0851C187.11 30.0851 187.605 30.0301 188.045 29.9751C188.485 29.8651 188.87 29.7551 189.255 29.5901C189.64 29.4251 189.97 29.2051 190.355 28.9301L191.07 28.3801L191.235 29.1501C191.29 29.5351 191.455 29.7001 191.675 29.7551C191.895 29.8651 192.115 29.8651 192.335 29.8651H193.655V21.0651C193.655 20.2951 193.545 19.5251 193.325 18.9751C193.27 18.3151 192.995 17.7651 192.555 17.3251ZM186.615 27.8301C186.395 27.7751 186.175 27.6651 186.065 27.5001C185.9 27.3901 185.845 27.1701 185.735 27.0051C185.625 26.7851 185.57 26.5651 185.57 26.2351C185.57 25.9601 185.68 25.6301 185.845 25.3551C186.01 25.1351 186.34 24.9151 186.78 24.6951C187.165 24.4751 187.715 24.3651 188.54 24.1451C189.255 24.0351 190.025 23.9251 190.96 23.9251V26.3451C190.795 26.5651 190.52 26.7851 190.245 26.9501C189.97 27.1701 189.695 27.3351 189.42 27.5001C189.145 27.6651 188.87 27.7751 188.54 27.8301C188.21 27.8851 187.825 27.9401 187.44 27.9401C187.165 27.9401 186.89 27.8851 186.615 27.8301Z" fill="#F68E50"/>
<path d="M205.26 16.3352C205.095 16.1702 204.82 16.0602 204.6 15.9502L204.49 15.8952C204.16 15.7852 203.83 15.7852 203.39 15.7852C202.455 15.7852 201.575 16.0602 200.86 16.6102C200.365 16.9952 199.925 17.4902 199.54 18.0402L199.43 16.8302C199.375 16.5552 199.32 16.2802 199.155 16.1702C199.1 16.1152 198.88 15.8952 198.44 15.8952H196.79V29.7552H199.705V21.1752C200.09 20.1852 200.585 19.5802 200.97 19.2502C201.465 18.8102 202.07 18.6452 202.84 18.6452C203.28 18.6452 203.61 18.7002 203.775 18.7552C204.05 18.8652 204.325 18.8652 204.435 18.8652C204.765 18.8652 205.04 18.6452 205.095 18.3152L205.425 16.3902L205.37 16.3352H205.26Z" fill="#F68E50"/>
<path d="M217.25 26.4553C217.14 26.4553 216.865 26.5102 216.59 26.6752C216.48 26.7302 216.37 26.7852 216.26 26.8402C216.15 26.8952 215.985 27.0052 215.82 27.1152C215.655 27.2252 215.38 27.3352 215.105 27.4452C214.995 27.5002 214.885 27.5002 214.775 27.5553C214.445 27.6653 213.95 27.7752 213.345 27.7752C212.795 27.7752 212.3 27.6652 211.75 27.5002C211.31 27.2802 210.925 27.0052 210.54 26.6752C210.155 26.1802 209.88 25.7402 209.715 25.2452C209.55 24.7502 209.44 24.0903 209.385 23.4303H217.965C218.24 23.4303 218.515 23.3202 218.68 23.1002C218.79 22.9352 218.845 22.6052 218.845 22.2202C218.845 21.2852 218.68 20.4603 218.405 19.5803C218.13 18.7553 217.69 18.0952 217.195 17.6002C216.645 17.0502 215.985 16.6102 215.325 16.3902C214.555 16.0602 213.785 15.9502 213.015 15.9502C212.025 15.9502 211.145 16.1152 210.265 16.4452C209.44 16.7752 208.725 17.2702 208.175 17.8752C207.57 18.5352 207.13 19.2502 206.91 20.0752C206.635 20.9552 206.47 21.8352 206.47 22.7702C206.47 23.9252 206.635 25.0252 206.965 25.9602C207.295 26.8952 207.79 27.6652 208.34 28.3252C209 28.9852 209.715 29.4803 210.485 29.7552C211.255 30.0853 212.135 30.2502 213.125 30.2502C213.62 30.2502 214.115 30.1952 214.61 30.1402C215.105 30.0302 215.6 29.9202 216.04 29.7552C216.535 29.5903 216.975 29.3702 217.36 29.0952C217.8 28.8202 218.13 28.4902 218.46 28.1602L218.625 27.9952L217.855 27.0052C217.8 26.6203 217.525 26.4553 217.25 26.4553ZM215.27 19.0852C215.49 19.3602 215.765 19.6902 215.875 20.1852C216.04 20.5152 216.095 20.8452 216.095 21.2852H209.44C209.605 20.2952 209.99 19.5803 210.54 19.0303C211.145 18.4253 211.97 18.1502 213.015 18.1502C213.455 18.1502 213.95 18.2602 214.335 18.4252C214.775 18.5902 215.05 18.8102 215.27 19.0852Z" fill="#F68E50"/>
<path d="M63.0298 34.76C62.3698 34.76 61.8748 34.815 61.4348 34.87C61.3248 34.87 61.1598 34.925 61.0498 34.925V42.68H62.0398V40.04V39.545C62.3148 39.6 62.5898 39.6 62.8648 39.6C63.9098 39.6 64.7348 39.325 65.2848 38.775C65.7248 38.335 65.8898 37.785 65.8898 37.07C65.8898 36.41 65.6698 35.805 65.2298 35.42C64.7898 34.98 64.0198 34.76 63.0298 34.76ZM64.8998 37.125C64.8998 38.17 64.1848 38.775 62.9748 38.775C62.6448 38.775 62.3698 38.775 62.1498 38.72V35.64C62.2048 35.64 62.3148 35.64 62.4248 35.64C62.5898 35.64 62.8098 35.585 63.1398 35.585C64.2398 35.64 64.8998 36.19 64.8998 37.125Z" fill="#274666"/>
<path d="M71.7749 41.1399V37.0149H70.7299V40.4799C70.7299 40.6449 70.6749 40.8099 70.6199 40.9749C70.4549 41.4149 69.9599 41.91 69.2999 41.91C68.4749 41.91 68.0899 41.3049 68.0899 40.1499V36.96H67.0449V40.26C67.0449 42.515 68.4199 42.735 69.0249 42.735C69.8499 42.735 70.3999 42.35 70.6749 41.91C70.7299 41.855 70.7849 41.7449 70.8399 41.6899L70.8949 42.5699H71.7199H71.8299H71.8849C71.7749 42.2949 71.7749 41.6899 71.7749 41.1399Z" fill="#274666"/>
<path d="M76.1746 37.015H74.7446V35.695V35.365V35.3101L73.6996 35.75V37.07H72.7646V37.895H73.6996V40.975C73.6996 41.69 73.8096 42.1851 74.0846 42.4601C74.4146 42.7901 74.7446 42.9 75.2396 42.9C75.6246 42.9 75.8996 42.8451 76.1746 42.7351L76.0646 41.9101C76.0096 41.9101 75.8996 41.9101 75.8446 41.9101C75.7346 41.9101 75.6246 41.965 75.4596 41.965C74.9646 41.965 74.6896 41.58 74.6896 40.865V37.84H76.1746V37.015Z" fill="#274666"/>
<path d="M80.0796 37.84V37.015H78.6496V35.75V35.42V35.365L77.6596 35.695V37.015H76.7246V37.84H77.6046V40.92C77.6046 41.635 77.7146 42.13 77.9896 42.405C78.3196 42.735 78.6496 42.845 79.1446 42.845C79.5296 42.845 79.8046 42.79 80.0796 42.68L79.9696 41.855C79.9146 41.855 79.8046 41.855 79.7496 41.855C79.6396 41.855 79.5296 41.91 79.3646 41.91C78.8696 41.91 78.5946 41.525 78.5946 40.81V37.84H80.0796Z" fill="#274666"/>
<path d="M81.6746 34.8699C81.3446 34.8699 81.0146 35.1449 81.0146 35.5299C81.0146 35.9149 81.2896 36.1899 81.6746 36.1899C82.1146 36.1899 82.3896 35.9149 82.3896 35.5299C82.3896 35.1449 82.0596 34.8699 81.6746 34.8699Z" fill="#274666"/>
<path d="M81.125 37.0699L81.18 42.7349H82.225L82.17 37.0149L81.125 37.0699Z" fill="#274666"/>
<path d="M86.68 36.905C85.855 36.905 85.305 37.29 85.03 37.73C84.975 37.785 84.92 37.895 84.865 37.95L84.81 37.015H83.985H83.93H83.875C83.93 37.455 83.93 37.95 83.93 38.5V42.68H84.975V39.325C84.975 39.105 84.975 38.94 85.03 38.83C85.25 38.335 85.69 37.785 86.405 37.785C87.505 37.785 87.67 38.83 87.67 39.435V42.735H88.715V39.325C88.715 37.565 87.67 36.905 86.68 36.905Z" fill="#274666"/>
<path d="M95.2602 37.0699L94.3252 37.1249V37.5649V37.8949C94.1052 37.4549 93.5002 36.96 92.5652 36.96C91.3002 36.96 90.0352 38.005 90.0352 39.985C90.0352 41.58 91.0802 42.735 92.4552 42.735C93.2802 42.735 93.7752 42.4049 94.0502 42.0199C94.1052 41.9649 94.1602 41.9099 94.2152 41.7999V42.4049C94.2152 43.6699 93.6102 44.3299 92.4552 44.3299C91.9052 44.3299 91.3552 44.1649 90.8052 43.9449C90.8052 43.9449 90.8052 43.9449 90.7502 43.9449L90.4752 44.7699C90.9152 45.0449 91.6302 45.21 92.3452 45.21C92.9502 45.21 93.8302 45.0999 94.4352 44.5499C94.9852 43.9999 95.2052 43.1749 95.2052 41.9649V38.7199C95.2052 38.2799 95.2052 37.9499 95.2602 37.6749C95.2602 37.5099 95.2602 37.3449 95.2602 37.1799V37.0699ZM94.1602 39.2699H94.0502V40.26C94.0502 40.425 94.0502 40.645 93.9952 40.81C93.7752 41.47 93.2252 41.8549 92.6202 41.8549C91.4102 41.8549 90.9702 40.8099 90.9702 39.8749C90.9702 38.6099 91.6302 37.785 92.6202 37.785C93.3352 37.785 93.8852 38.1699 94.0502 38.8299C94.1602 38.9949 94.1602 39.1599 94.1602 39.2699Z" fill="#274666"/>
<path d="M103.125 41.7449C102.795 41.8549 102.465 42.0199 101.915 42.0199C100.76 42.0199 99.99 41.1399 99.99 39.9299C99.99 38.6649 100.815 37.8399 101.97 37.8399C102.52 37.8399 102.96 38.005 103.125 38.06L103.345 37.235C102.85 37.07 102.41 36.96 101.915 36.96C100.1 36.96 98.835 38.17 98.835 39.985C98.835 41.69 99.99 42.8449 101.64 42.8449C102.41 42.8449 103.015 42.625 103.29 42.46L103.125 41.7449Z" fill="#274666"/>
<path d="M108.515 41.36V39.215C108.515 37.675 107.8 36.905 106.37 36.905C105.71 36.905 104.995 37.07 104.5 37.455L104.72 38.005L104.775 38.115C105.215 37.895 105.765 37.73 106.205 37.73C107.03 37.73 107.47 38.17 107.47 38.995L107.525 39.105C107.47 39.105 107.36 39.105 107.305 39.105C105.325 39.105 104.115 39.875 104.115 41.195C104.115 42.02 104.72 42.845 105.875 42.845C106.81 42.845 107.36 42.405 107.635 42.02H107.69L107.8 42.79L108.515 42.735H108.68H108.735C108.515 42.35 108.515 41.91 108.515 41.36ZM106.095 42.075C105.49 42.075 105.16 41.745 105.16 41.14C105.16 40.04 106.48 39.875 107.47 39.875V40.81C107.47 40.92 107.47 41.03 107.415 41.14C107.195 41.745 106.7 42.075 106.095 42.075Z" fill="#274666"/>
<path d="M112.75 36.96C112.035 36.96 111.43 37.455 111.155 38.17H111.1L110.99 37.015H110.165H110.11C110.165 37.51 110.165 38.115 110.165 38.775V42.735H111.21V39.655C111.21 39.545 111.21 39.435 111.265 39.325C111.265 39.27 111.265 39.215 111.265 39.16C111.43 38.39 111.98 37.895 112.64 37.895C112.695 37.895 112.75 37.895 112.805 37.895C112.86 37.895 112.86 37.895 112.915 37.895C112.97 37.895 112.97 37.895 113.025 37.895V36.905C112.97 36.96 112.86 36.96 112.75 36.96Z" fill="#274666"/>
<path d="M116.215 36.905C114.62 36.905 113.575 38.115 113.575 39.985C113.575 41.745 114.62 42.845 116.325 42.845C117.37 42.845 117.975 42.625 118.195 42.46L118.03 41.8V41.69C117.59 41.91 117.095 41.965 116.49 41.965C115.335 41.965 114.62 41.305 114.565 40.205C114.565 40.15 114.565 40.095 114.565 40.04H118.635C118.69 39.93 118.69 39.765 118.69 39.545C118.58 38.61 118.085 36.905 116.215 36.905ZM114.51 39.38C114.565 38.72 115.005 37.73 116.05 37.73C117.315 37.73 117.425 38.995 117.425 39.325C117.425 39.325 117.425 39.325 117.425 39.38L114.675 39.435H114.51V39.38Z" fill="#274666"/>
<path d="M125.125 36.905C124.41 36.905 123.805 37.18 123.42 37.62C123.365 37.73 123.255 37.785 123.2 37.895V34.375H122.155V41.25C122.155 41.525 122.155 41.8 122.1 42.075C122.1 42.295 122.1 42.515 122.1 42.735H122.925L122.98 41.8H123.035C123.475 42.515 124.08 42.9 124.96 42.9C126.225 42.9 127.49 41.855 127.49 39.82C127.545 38.94 127.27 38.17 126.72 37.62C126.335 37.18 125.785 36.905 125.125 36.905ZM124.85 37.84C126.06 37.84 126.5 38.94 126.5 39.875C126.5 41.14 125.785 42.02 124.795 42.02C124.08 42.02 123.53 41.58 123.31 40.865C123.255 40.755 123.255 40.59 123.255 40.48V39.435C123.255 39.38 123.255 39.325 123.255 39.27C123.255 39.215 123.31 39.105 123.255 39.05C123.53 38.335 124.19 37.84 124.85 37.84Z" fill="#274666"/>
<path d="M132.715 41.36V39.215C132.715 37.675 132 36.905 130.57 36.905C129.91 36.905 129.195 37.07 128.7 37.455L128.92 38.06L128.975 38.17C129.415 37.95 129.965 37.785 130.405 37.785C131.23 37.785 131.67 38.225 131.67 39.05L131.725 39.16C131.67 39.16 131.56 39.16 131.505 39.16C129.525 39.16 128.315 39.93 128.315 41.25C128.315 42.075 128.92 42.9 130.075 42.9C131.01 42.9 131.56 42.46 131.835 42.075H131.89L132 42.845L132.715 42.79H132.88H132.935C132.715 42.35 132.715 41.91 132.715 41.36ZM131.725 40.81C131.725 40.92 131.725 41.03 131.67 41.14C131.45 41.745 130.955 42.075 130.35 42.075C129.745 42.075 129.415 41.745 129.415 41.14C129.415 40.04 130.735 39.875 131.725 39.875V40.81Z" fill="#274666"/>
<path d="M138.215 41.7449C137.885 41.8549 137.555 42.0199 137.005 42.0199C135.85 42.0199 135.08 41.1399 135.08 39.9299C135.08 38.6649 135.905 37.8399 137.06 37.8399C137.555 37.8399 137.94 38.005 138.215 38.06L138.435 37.235C137.94 37.07 137.5 36.96 137.005 36.96C135.19 36.96 133.925 38.17 133.925 39.985C133.925 41.69 135.08 42.8449 136.73 42.8449C137.5 42.8449 138.105 42.625 138.38 42.46L138.215 41.7449Z" fill="#274666"/>
<path d="M143.22 38.005L144.1 37.07H142.835L141.13 39.05C141.02 39.16 140.855 39.325 140.8 39.49C140.745 39.545 140.745 39.6 140.69 39.6V34.375H139.645V42.625H140.69V40.535L141.075 40.04L141.13 39.93L143.11 42.625H144.375L141.9 39.325L143.22 38.005Z" fill="#274666"/>
<path d="M147.51 37.0702L147.565 42.7352H148.61L148.555 37.0151L147.51 37.0702Z" fill="#274666"/>
<path d="M148.06 34.8699C147.73 34.8699 147.4 35.1449 147.4 35.5299C147.4 35.9149 147.675 36.1899 148.06 36.1899C148.5 36.1899 148.775 35.9149 148.775 35.5299C148.775 35.1449 148.445 34.8699 148.06 34.8699Z" fill="#274666"/>
<path d="M153.065 36.9053C152.24 36.9053 151.69 37.2903 151.415 37.7303C151.36 37.7853 151.305 37.8953 151.25 37.9503L151.195 37.0153H150.37H150.315H150.26C150.315 37.4553 150.315 37.9503 150.315 38.5003V42.6803H151.36V39.3253C151.36 39.1053 151.36 38.9403 151.415 38.8303C151.635 38.3353 152.075 37.7853 152.79 37.7853C153.89 37.7853 154.055 38.8303 154.055 39.4353V42.7353H155.1V39.3253C155.1 37.5653 154.055 36.9053 153.065 36.9053Z" fill="#274666"/>
<path d="M159.445 37.015H158.015L157.96 35.695V35.365V35.3101L156.97 35.64V36.9601H156.035V37.7851H156.915V40.865C156.915 41.58 157.025 42.075 157.3 42.35C157.63 42.68 157.96 42.79 158.455 42.79C158.84 42.79 159.115 42.735 159.39 42.625L159.28 41.8C159.225 41.8 159.115 41.8 159.06 41.8C158.95 41.8 158.84 41.855 158.675 41.855C158.18 41.855 157.905 41.47 157.905 40.755V37.73H159.39L159.445 37.015Z" fill="#274666"/>
<path d="M162.91 36.905C161.205 36.905 160.105 38.115 160.105 39.93C160.105 41.69 161.205 42.9 162.8 42.9C164.23 42.9 165.605 41.965 165.605 39.875C165.66 38.115 164.56 36.905 162.91 36.905ZM162.855 42.075C161.865 42.075 161.15 41.14 161.15 39.93C161.15 38.885 161.7 37.785 162.91 37.785C164.12 37.785 164.56 39.05 164.56 39.93C164.56 41.14 163.845 42.075 162.855 42.075Z" fill="#274666"/>
<path d="M173.14 41.7449C172.81 41.8549 172.48 42.0199 171.93 42.0199C170.775 42.0199 170.005 41.1399 170.005 39.9299C170.005 38.6649 170.83 37.8399 171.985 37.8399C172.48 37.8399 172.865 38.005 173.14 38.06L173.36 37.235C172.865 37.07 172.425 36.96 171.93 36.96C170.115 36.96 168.85 38.17 168.85 39.985C168.85 41.69 170.005 42.8449 171.655 42.8449C172.425 42.8449 173.03 42.625 173.305 42.46L173.14 41.7449Z" fill="#274666"/>
<path d="M178.53 41.36V39.215C178.53 37.675 177.815 36.905 176.385 36.905C175.725 36.905 175.01 37.07 174.515 37.455L174.735 38.06L174.79 38.17C175.23 37.95 175.78 37.785 176.22 37.785C177.045 37.785 177.485 38.225 177.485 39.05L177.54 39.16C177.485 39.16 177.375 39.16 177.32 39.16C175.34 39.16 174.13 39.93 174.13 41.25C174.13 42.075 174.735 42.9 175.89 42.9C176.825 42.9 177.375 42.46 177.65 42.075H177.705L177.815 42.845L178.53 42.79H178.695H178.75C178.53 42.35 178.53 41.91 178.53 41.36ZM176.11 42.075C175.505 42.075 175.175 41.745 175.175 41.14C175.175 40.04 176.495 39.875 177.485 39.875V40.81C177.485 40.92 177.485 41.03 177.43 41.14C177.21 41.745 176.715 42.075 176.11 42.075Z" fill="#274666"/>
<path d="M182.71 36.96C181.995 36.96 181.39 37.455 181.115 38.17H181.06L180.95 37.015H180.125H180.07H180.015C180.07 37.51 180.07 38.115 180.07 38.775V42.735H181.115V39.655C181.115 39.545 181.115 39.435 181.17 39.325C181.17 39.27 181.17 39.215 181.17 39.16C181.335 38.39 181.885 37.895 182.545 37.895C182.6 37.895 182.655 37.895 182.71 37.895C182.765 37.895 182.765 37.895 182.82 37.895C182.875 37.895 182.875 37.895 182.93 37.895V36.905C182.93 36.96 182.82 36.96 182.71 36.96Z" fill="#274666"/>
<path d="M186.175 36.905C184.58 36.905 183.535 38.115 183.535 39.985C183.535 41.745 184.58 42.845 186.285 42.845C187.33 42.845 187.935 42.625 188.155 42.46L187.99 41.8V41.745C187.55 41.965 187.055 42.02 186.45 42.02C185.295 42.02 184.58 41.36 184.525 40.26C184.525 40.205 184.525 40.15 184.525 40.095H188.595C188.65 39.985 188.65 39.82 188.65 39.6C188.595 38.61 188.1 36.905 186.175 36.905ZM184.525 39.38C184.58 38.72 185.02 37.73 186.065 37.73C187.33 37.73 187.44 38.995 187.44 39.325C187.44 39.325 187.44 39.325 187.44 39.38L184.69 39.435H184.525V39.38Z" fill="#274666"/>
<path d="M194.59 37.0699L193.655 37.1249V37.5649V37.8949C193.435 37.4549 192.83 36.96 191.895 36.96C190.63 36.96 189.365 38.005 189.365 39.985C189.365 41.58 190.41 42.735 191.785 42.735C192.61 42.735 193.105 42.4049 193.38 42.0199C193.435 41.9649 193.49 41.9099 193.545 41.7999V42.4049C193.545 43.6699 192.94 44.3299 191.785 44.3299C191.235 44.3299 190.685 44.1649 190.135 43.9449C190.135 43.9449 190.135 43.9449 190.08 43.9449L189.805 44.7699C190.245 45.0449 190.96 45.21 191.675 45.21C192.28 45.21 193.16 45.0999 193.765 44.5499C194.315 43.9999 194.535 43.1749 194.535 41.9649V38.7199C194.535 38.2799 194.535 37.9499 194.59 37.6749C194.59 37.5099 194.59 37.3449 194.59 37.1799V37.0699ZM193.435 39.3249V40.3149C193.435 40.4799 193.435 40.6999 193.38 40.8649C193.16 41.5249 192.61 41.91 192.005 41.91C190.795 41.91 190.355 40.8649 190.355 39.9299C190.355 38.6649 191.015 37.8399 192.005 37.8399C192.72 37.8399 193.27 38.225 193.435 38.885C193.49 38.995 193.49 39.1599 193.49 39.2699L193.435 39.3249Z" fill="#274666"/>
<path d="M196.13 37.0699L196.185 42.7349H197.23L197.175 37.0149L196.13 37.0699Z" fill="#274666"/>
<path d="M196.68 34.8699C196.35 34.8699 196.02 35.1449 196.02 35.5299C196.02 35.9149 196.295 36.1899 196.68 36.1899C197.12 36.1899 197.395 35.9149 197.395 35.5299C197.395 35.1449 197.065 34.8699 196.68 34.8699Z" fill="#274666"/>
<path d="M202.565 37.0698L201.465 40.2598C201.245 40.7548 201.08 41.2498 200.97 41.6898H200.915C200.805 41.3048 200.695 40.9198 200.585 40.5348L200.475 40.2598L199.32 37.0698H198.605H198.385H198.33L200.475 42.7348H201.465L203.06 38.4998L203.61 37.0698H202.565Z" fill="#274666"/>
<path d="M204.985 34.8699C204.655 34.8699 204.325 35.1449 204.325 35.5299C204.325 35.9149 204.6 36.1899 204.985 36.1899C205.425 36.1899 205.7 35.9149 205.7 35.5299C205.7 35.1449 205.425 34.8699 204.985 34.8699Z" fill="#274666"/>
<path d="M204.49 37.0702L204.545 42.7352H205.59L205.535 37.0151L204.49 37.0702Z" fill="#274666"/>
<path d="M209.99 36.905C209.165 36.905 208.615 37.29 208.34 37.73C208.285 37.785 208.23 37.895 208.175 37.95L208.12 37.015H207.295H207.24H207.185C207.24 37.455 207.24 37.95 207.24 38.5V42.68H208.285V39.325C208.285 39.105 208.285 38.94 208.34 38.83C208.56 38.335 209 37.785 209.715 37.785C210.815 37.785 210.98 38.83 210.98 39.435V42.735H212.025V39.325C212.025 37.565 210.98 36.905 209.99 36.905Z" fill="#274666"/>
<path d="M218.57 37.0699L217.635 37.1249V37.5649V37.8949C217.415 37.4549 216.81 36.96 215.875 36.96C214.61 36.96 213.345 38.005 213.345 39.985C213.345 41.58 214.39 42.735 215.765 42.735C216.59 42.735 217.085 42.4049 217.36 42.0199C217.415 41.9649 217.47 41.9099 217.525 41.7999V42.4049C217.525 43.6699 216.92 44.3299 215.765 44.3299C215.215 44.3299 214.665 44.1649 214.115 43.9449H214.06L213.785 44.7699C214.225 45.0449 214.94 45.21 215.655 45.21C216.26 45.21 217.14 45.0999 217.745 44.5499C218.295 43.9999 218.515 43.1749 218.515 41.9649V38.7199C218.515 38.2799 218.515 37.9499 218.57 37.6749C218.57 37.5099 218.57 37.3449 218.57 37.1799V37.0699ZM217.47 39.2699H217.36V40.26C217.36 40.425 217.36 40.645 217.305 40.81C217.085 41.47 216.535 41.8549 215.93 41.8549C214.72 41.8549 214.28 40.8099 214.28 39.8749C214.28 38.6099 214.94 37.785 215.93 37.785C216.645 37.785 217.195 38.1699 217.36 38.8299C217.47 38.9949 217.47 39.1599 217.47 39.2699Z" fill="#274666"/>
</g>
</g>
<defs>
<clipPath id="clip0_8445_1646">
<rect width="220" height="55" fill="white"/>
</clipPath>
<clipPath id="clip1_8445_1646">
<rect width="220" height="55" fill="white"/>
</clipPath>
</defs>
</svg>
