<svg width="52" height="52" viewBox="0 0 52 52" fill="none" xmlns="http://www.w3.org/2000/svg">
<rect x="0.929688" y="26" width="36" height="36" rx="18" transform="rotate(-45 0.929688 26)" fill="#4A2848"/>
<path d="M20.453 21.4816V20.3878C20.4779 19.9155 20.8508 19.5426 21.2983 19.5426L30.9685 19.5178C31.4408 19.5426 31.8137 19.9155 31.8137 20.363V30.0581C31.8137 30.5055 31.4408 30.8784 30.9685 30.9033H29.8747C29.4024 30.8784 29.0295 30.5055 29.0046 30.0332L29.1538 24.1664L22.0192 31.301C21.6711 31.6491 21.174 31.6491 20.8259 31.301L20.0304 30.5055C19.7073 30.1824 19.6824 29.6603 20.0304 29.3123L27.165 22.1777L21.3231 22.3517C20.8508 22.3269 20.453 21.9788 20.453 21.4816Z" fill="white"/>
</svg>
